<?xml version="1.0" encoding="utf-8"?>
<!-- Generator: Adobe Illustrator 21.0.2, SVG Export Plug-In . SVG Version: 6.00 Build 0)  -->
<svg version="1.1" id="Layer_1" xmlns="http://www.w3.org/2000/svg" xmlns:xlink="http://www.w3.org/1999/xlink" x="0px" y="0px"
	 viewBox="0 0 17.7 17.7" style="enable-background:new 0 0 17.7 17.7;" xml:space="preserve">
<style type="text/css">
	.st0{fill:#056DB6;}
</style>
<path class="st0" d="M14.4,0H3.3C1.5,0,0,1.5,0,3.3v11.1c0,1.8,1.5,3.3,3.3,3.3h5.4l0-6.3H7.1c-0.2,0-0.4-0.2-0.4-0.4l0-2
	c0-0.2,0.2-0.4,0.4-0.4h1.6v-2c0-2.3,1.4-3.5,3.4-3.5h1.7c0.2,0,0.4,0.2,0.4,0.4v1.7c0,0.2-0.2,0.4-0.4,0.4l-1,0
	c-1.1,0-1.3,0.5-1.3,1.3v1.7H14c0.2,0,0.4,0.2,0.4,0.4l-0.2,2c0,0.2-0.2,0.3-0.4,0.3h-2.2l0,6.3h2.9c1.8,0,3.3-1.5,3.3-3.3V3.3
	C17.7,1.5,16.2,0,14.4,0z"/>
</svg>
