<?xml version="1.0" encoding="utf-8"?>
<!-- Generator: Adobe Illustrator 21.0.2, SVG Export Plug-In . SVG Version: 6.00 Build 0)  -->
<svg version="1.1" id="Layer_1" xmlns="http://www.w3.org/2000/svg" xmlns:xlink="http://www.w3.org/1999/xlink" x="0px" y="0px"
	 viewBox="0 0 17.7 17.7" style="enable-background:new 0 0 17.7 17.7;" xml:space="preserve">
<style type="text/css">
	.st0{fill:#056DB6;}
</style>
<path class="st0" d="M14.4,0H3.3C1.5,0,0,1.5,0,3.3v11.1c0,1.8,1.5,3.3,3.3,3.3h11.1c1.8,0,3.3-1.5,3.3-3.3V3.3
	C17.7,1.5,16.2,0,14.4,0z M5.7,14H3.5V7h2.2V14z M4.6,6.2L4.6,6.2C3.8,6.2,3.2,5.6,3.2,5c0-0.7,0.5-1.2,1.3-1.2
	c0.8,0,1.3,0.5,1.3,1.2C5.9,5.6,5.4,6.2,4.6,6.2z M14.5,14H12v-3.6c0-0.9-0.4-1.6-1.2-1.6c-0.7,0-1,0.4-1.2,0.9
	C9.5,9.8,9.5,10,9.5,10.2V14H7.1c0,0,0-6.4,0-6.9h2.5v1.1C9.7,7.6,10.4,7,11.7,7c1.6,0,2.8,1,2.8,3.2V14z"/>
</svg>
