<?xml version="1.0" encoding="utf-8"?>
<!-- Generator: Adobe Illustrator 21.0.2, SVG Export Plug-In . SVG Version: 6.00 Build 0)  -->
<svg version="1.1" id="Layer_1" xmlns="http://www.w3.org/2000/svg" xmlns:xlink="http://www.w3.org/1999/xlink" x="0px" y="0px"
	 viewBox="0 0 17.7 17.7" style="enable-background:new 0 0 17.7 17.7;" xml:space="preserve">
<style type="text/css">
	.st0{fill:#056DB6;}
</style>
<g>
	<path class="st0" d="M13.3,6.9l0,0.3c0,2.9-2.2,6.2-6.2,6.2c-1.2,0-2.4-0.4-3.3-1c0.2,0,0.3,0,0.5,0c1,0,2-0.4,2.7-0.9
		c-1,0-1.8-0.6-2-1.5c0.1,0,0.3,0,0.4,0c0.2,0,0.4,0,0.6-0.1c-1-0.2-1.7-1.1-1.7-2.1v0C4.4,7.9,4.8,8,5.1,8c-0.6-0.4-1-1.1-1-1.8
		c0-0.4,0.1-0.8,0.3-1.1C5.5,6.4,7.1,7.3,9,7.4c0-0.2-0.1-0.3-0.1-0.5c0-1.2,1-2.2,2.2-2.2c0.6,0,1.2,0.3,1.6,0.7
		c0.5-0.1,1-0.3,1.4-0.5c-0.2,0.5-0.5,0.9-1,1.2C13.5,6,14,5.9,14.4,5.7C14.1,6.2,13.7,6.6,13.3,6.9 M14.4,0H3.3C1.5,0,0,1.5,0,3.3
		v11.1c0,1.8,1.5,3.3,3.3,3.3h11.1c1.8,0,3.3-1.5,3.3-3.3V3.3C17.7,1.5,16.2,0,14.4,0"/>
</g>
</svg>
