<?xml version="1.0" encoding="utf-8"?>
<!-- Generator: Adobe Illustrator 21.0.2, SVG Export Plug-In . SVG Version: 6.00 Build 0)  -->
<svg version="1.1" id="Layer_1" xmlns="http://www.w3.org/2000/svg" xmlns:xlink="http://www.w3.org/1999/xlink" x="0px" y="0px"
	 viewBox="0 0 17.7 17.7" style="enable-background:new 0 0 17.7 17.7;" xml:space="preserve">
<style type="text/css">
	.st0{fill:#056DB6;}
</style>
<g>
	<path class="st0" d="M8.9,6.8c0.2,0,0.3-0.2,0.3-0.5V4.7c0-0.3-0.1-0.5-0.3-0.5c-0.2,0-0.3,0.2-0.3,0.5v1.6
		C8.5,6.6,8.6,6.8,8.9,6.8z"/>
	<polygon class="st0" points="6.6,9 4.3,9 4.3,9.7 5.1,9.7 5.1,13.9 5.8,13.9 5.8,9.7 6.6,9.7 	"/>
	<path class="st0" d="M7.8,13c-0.1,0.2-0.3,0.3-0.4,0.3c-0.1,0-0.1-0.1-0.2-0.2c0,0,0-0.1,0-0.3v-2.7H6.5v2.9c0,0.3,0,0.4,0.1,0.5
		c0.1,0.2,0.2,0.3,0.4,0.3c0.2,0,0.5-0.1,0.8-0.4v0.4h0.7v-3.7H7.8V13z"/>
	<path class="st0" d="M14.4,0H3.3C1.5,0,0,1.5,0,3.3v11.1c0,1.8,1.5,3.3,3.3,3.3h11.1c1.8,0,3.3-1.5,3.3-3.3V3.3
		C17.7,1.5,16.2,0,14.4,0z M10.4,3.6H11v2.7c0,0.2,0,0.2,0,0.3c0,0.1,0.1,0.2,0.2,0.2c0.1,0,0.3-0.1,0.4-0.3V3.6h0.7v3.7h-0.7V6.9
		c-0.3,0.3-0.5,0.5-0.8,0.5c-0.2,0-0.4-0.1-0.4-0.3c0-0.1-0.1-0.3-0.1-0.5V3.6z M8.9,3.6c0.3,0,0.6,0.1,0.8,0.4
		c0.1,0.2,0.2,0.5,0.2,0.9v1.3c0,0.4-0.1,0.7-0.2,0.9C9.5,7.3,9.2,7.4,8.9,7.4S8.3,7.3,8.1,7C7.9,6.8,7.9,6.5,7.9,6.1V4.8
		c0-0.4,0.1-0.7,0.2-0.9C8.3,3.7,8.5,3.6,8.9,3.6z M6.2,2.4l0.5,1.9l0.5-1.9H8L7.1,5.3v2H6.4v-2C6.3,5,6.2,4.5,5.9,3.8
		C5.8,3.3,5.6,2.8,5.4,2.4H6.2z M14.3,11.9c0,0.9-0.1,1.8-0.1,1.8s-0.1,0.7-0.4,1.1c-0.4,0.4-0.9,0.4-1.1,0.5
		c-1.5,0.1-3.8,0.1-3.8,0.1s-2.8,0-3.7-0.1c-0.2,0-0.8,0-1.2-0.5c-0.3-0.3-0.4-1.1-0.4-1.1s-0.1-0.9-0.1-1.8v-0.8
		c0-0.9,0.1-1.8,0.1-1.8s0.1-0.7,0.4-1.1C4.4,7.8,4.8,7.8,5,7.8c1.5-0.1,3.8-0.1,3.8-0.1h0c0,0,2.3,0,3.8,0.1c0.2,0,0.7,0,1.1,0.5
		c0.3,0.3,0.4,1.1,0.4,1.1s0.1,0.9,0.1,1.8V11.9z"/>
	<path class="st0" d="M12.4,10.2c-0.3,0-0.6,0.1-0.8,0.4c-0.1,0.2-0.2,0.5-0.2,0.9v1.3c0,0.4,0.1,0.7,0.2,0.9
		c0.2,0.2,0.5,0.4,0.8,0.4c0.3,0,0.6-0.1,0.8-0.4c0.1-0.1,0.1-0.3,0.2-0.4c0-0.1,0-0.2,0-0.4v-0.1h-0.7c0,0.3,0,0.4,0,0.4
		c0,0.2-0.1,0.3-0.3,0.3c-0.2,0-0.3-0.2-0.3-0.5v-0.6h1.3v-0.8c0-0.4-0.1-0.7-0.2-0.9C13,10.3,12.7,10.2,12.4,10.2z M12.7,11.6h-0.7
		v-0.3c0-0.3,0.1-0.5,0.3-0.5c0.2,0,0.3,0.2,0.3,0.5V11.6z"/>
	<path class="st0" d="M10.3,10.2c-0.2,0-0.5,0.1-0.7,0.4V9H9v4.9h0.7v-0.4c0.2,0.3,0.4,0.4,0.7,0.4c0.3,0,0.4-0.1,0.5-0.4
		c0-0.2,0.1-0.4,0.1-0.7v-1.5c0-0.3,0-0.6-0.1-0.7C10.8,10.3,10.6,10.2,10.3,10.2z M10.3,12.8c0,0.3-0.1,0.5-0.3,0.5
		c-0.1,0-0.2-0.1-0.3-0.2v-2.2c0.1-0.1,0.2-0.2,0.3-0.2c0.2,0,0.3,0.2,0.3,0.5V12.8z"/>
</g>
</svg>
