<?xml version="1.0" standalone="no"?>
<!DOCTYPE svg PUBLIC "-//W3C//DTD SVG 20010904//EN"
 "http://www.w3.org/TR/2001/REC-SVG-20010904/DTD/svg10.dtd">
<svg version="1.0" xmlns="http://www.w3.org/2000/svg"
 width="260.000000pt" height="260.000000pt" viewBox="0 0 260.000000 260.000000"
 preserveAspectRatio="xMidYMid meet">
<metadata>
Created by potrace 1.11, written by Peter Selinger 2001-2013
</metadata>
<g transform="translate(0.000000,260.000000) scale(0.100000,-0.100000)"
fill="#000000" stroke="none">
<path d="M1114 2420 c-253 -52 -472 -197 -589 -389 -46 -77 -89 -194 -106
-291 -14 -84 -16 -304 -2 -365 l9 -40 107 -3 c100 -2 187 9 187 26 0 7 -18 36
-52 83 -38 53 -30 142 17 193 73 79 224 71 286 -15 18 -25 23 -47 24 -89 0
-49 -5 -63 -40 -114 -32 -47 -37 -59 -25 -66 27 -17 74 -21 229 -18 l154 3 2
205 c3 242 12 279 70 280 11 0 43 -16 72 -35 66 -44 97 -50 149 -24 49 23 69
62 68 131 -2 119 -108 167 -211 95 -65 -45 -87 -50 -112 -23 -30 33 -35 66
-35 276 l-1 195 -60 1 c-33 1 -96 -6 -141 -16z"/>
<path d="M1358 2427 c-3 -10 -3 -314 1 -388 0 -14 7 -33 14 -42 11 -16 17 -14
71 23 68 47 115 52 180 20 59 -29 88 -76 89 -147 2 -111 -64 -185 -165 -185
-40 1 -58 7 -99 36 -52 38 -73 44 -85 24 -4 -6 -9 -107 -11 -225 l-4 -213 153
-1 c141 0 166 -2 222 -12 10 -2 29 -14 42 -26 28 -26 22 -51 -28 -113 -74 -93
-12 -212 109 -210 80 2 134 50 136 122 1 27 -9 52 -36 93 -43 64 -47 101 -14
119 35 19 42 20 220 22 92 2 169 5 172 7 2 3 -39 61 -92 129 -133 175 -135
180 -139 325 -3 134 -3 138 -33 214 -81 202 -306 371 -561 420 -99 19 -138 21
-142 8z"/>
<path d="M755 1638 c-43 -24 -64 -52 -71 -95 -6 -40 -3 -49 35 -105 47 -70 48
-92 9 -121 -24 -18 -44 -21 -155 -22 l-128 -2 3 -24 c6 -59 113 -233 212 -346
189 -213 231 -389 151 -618 -18 -50 -34 -99 -37 -110 -5 -20 -1 -20 248 -18
139 1 261 2 271 3 16 0 17 16 17 194 0 280 -3 286 -94 221 -38 -27 -59 -35
-92 -35 -106 0 -174 69 -174 175 0 72 35 132 97 164 42 21 141 10 163 -19 12
-15 56 -40 71 -40 11 0 20 11 24 28 7 34 11 409 4 416 -2 3 -79 6 -169 7 -183
2 -223 9 -245 43 -18 28 -13 45 32 107 37 52 42 78 25 129 -17 50 -66 80 -128
80 -27 0 -58 -6 -69 -12z"/>
<path d="M1348 1072 c-3 -192 -5 -221 -21 -246 -16 -24 -24 -28 -53 -23 -19 3
-53 20 -75 38 -68 54 -158 39 -195 -33 -35 -68 -7 -172 54 -197 60 -24 80 -21
141 20 70 47 103 50 128 12 16 -23 18 -57 21 -245 3 -207 4 -218 23 -219 25 0
126 0 183 0 l43 1 18 63 c23 83 70 181 117 244 50 66 87 78 237 82 205 4 244
43 209 213 -11 54 -11 60 10 88 29 39 17 67 -29 68 -64 2 -64 35 0 46 24 4 46
15 55 27 13 20 13 26 -10 69 -38 72 -30 97 43 145 98 64 96 66 -101 63 -218
-4 -223 -6 -165 -89 35 -49 41 -66 41 -104 -2 -57 -22 -96 -69 -132 -32 -25
-45 -28 -108 -28 -60 0 -77 4 -108 25 -20 14 -37 31 -37 38 0 6 -4 12 -9 12
-15 0 -30 89 -21 121 5 17 23 48 39 71 17 23 31 47 31 53 0 27 -54 35 -220 35
l-169 0 -3 -218z"/>
</g>
</svg>
