<?xml version="1.0" encoding="UTF-8" standalone="no"?><!DOCTYPE svg PUBLIC "-//W3C//DTD SVG 1.1//EN" "http://www.w3.org/Graphics/SVG/1.1/DTD/svg11.dtd"><svg width="100%" height="100%" viewBox="0 0 589 411" version="1.1" xmlns="http://www.w3.org/2000/svg" xmlns:xlink="http://www.w3.org/1999/xlink" xml:space="preserve" xmlns:serif="http://www.serif.com/" style="fill-rule:evenodd;clip-rule:evenodd;stroke-linejoin:round;stroke-miterlimit:2;"><g id="Layer-1" serif:id="Layer 1"><path d="M538.512,315.85c-11.954,8.069 -26.305,12.771 -41.831,12.773c-10.356,-0.001 -20.176,-2.093 -29.123,-5.876c-13.418,-5.673 -24.86,-15.172 -32.93,-27.12c-6.506,-9.637 -10.818,-20.836 -12.248,-32.95l148.585,0c-0.839,7.105 -2.651,13.897 -5.335,20.243c-5.673,13.417 -15.173,24.86 -27.119,32.93m-248.14,-271.198c-2.571,-1.085 -4.785,-2.921 -6.338,-5.221c-1.551,-2.307 -2.447,-5.029 -2.451,-8.038c0.002,-2.009 0.403,-3.88 1.127,-5.597c1.086,-2.57 2.92,-4.784 5.221,-6.337c2.307,-1.552 5.029,-2.448 8.038,-2.451c2.01,0.001 3.88,0.402 5.596,1.127c2.57,1.085 4.784,2.921 6.337,5.221c1.553,2.307 2.448,5.029 2.452,8.037c0,2.01 -0.403,3.881 -1.126,5.597c-1.087,2.571 -2.922,4.785 -5.223,6.337c-2.305,1.552 -5.027,2.449 -8.036,2.452c-2.01,-0.001 -3.88,-0.403 -5.597,-1.127m-269.256,201.017l70.989,-175.068l70.988,175.068l-141.976,0Zm112.818,70.181c-11.952,8.069 -26.303,12.771 -41.83,12.773c-10.355,-0.001 -20.175,-2.093 -29.123,-5.876c-13.417,-5.673 -24.86,-15.172 -32.929,-27.12c-6.506,-9.637 -10.82,-20.836 -12.249,-32.95l148.586,0c-0.84,7.105 -2.653,13.897 -5.335,20.243c-5.673,13.417 -15.173,24.86 -27.12,32.93m-47.221,-285.123c0.387,-0.92 1.056,-1.731 1.891,-2.292c0.838,-0.561 1.792,-0.878 2.897,-0.882c0.74,0.001 1.402,0.145 2.019,0.404c0.921,0.388 1.731,1.058 2.292,1.892c0.561,0.839 0.879,1.793 0.882,2.897c-0.001,0.741 -0.145,1.402 -0.405,2.019c-0.387,0.921 -1.057,1.731 -1.891,2.293c-0.839,0.561 -1.791,0.878 -2.897,0.882c-0.74,-0.002 -1.402,-0.146 -2.019,-0.405c-0.921,-0.388 -1.731,-1.058 -2.293,-1.891c-0.56,-0.839 -0.877,-1.793 -0.882,-2.898c0.002,-0.74 0.145,-1.402 0.406,-2.019m404.94,0c0.387,-0.92 1.056,-1.731 1.89,-2.292c0.839,-0.561 1.793,-0.878 2.899,-0.882c0.74,0.001 1.401,0.145 2.019,0.404c0.921,0.388 1.731,1.058 2.291,1.892c0.563,0.839 0.88,1.793 0.882,2.897c0,0.741 -0.144,1.402 -0.404,2.019c-0.387,0.921 -1.058,1.731 -1.891,2.293c-0.839,0.561 -1.793,0.878 -2.897,0.882c-0.741,-0.002 -1.404,-0.146 -2.019,-0.405c-0.921,-0.388 -1.731,-1.058 -2.293,-1.891c-0.56,-0.839 -0.88,-1.793 -0.882,-2.898c0,-0.74 0.146,-1.402 0.405,-2.019m76.016,214.942l-141.975,0l70.988,-175.068l70.987,175.068Zm20.506,5.308l-80.686,-198.985c2.946,-1.694 5.462,-4.024 7.357,-6.827c2.394,-3.533 3.801,-7.85 3.797,-12.419c0.002,-3.042 -0.621,-5.983 -1.748,-8.644c-1.692,-3.995 -4.495,-7.368 -8.034,-9.76c-3.534,-2.393 -7.851,-3.801 -12.419,-3.797c-3.042,-0.001 -5.984,0.621 -8.645,1.748c-3.995,1.692 -7.367,4.495 -9.76,8.035c-0.824,1.217 -1.522,2.533 -2.095,3.915l-149.41,0c-0.409,-1.75 -0.954,-3.449 -1.641,-5.072c-2.39,-5.645 -6.358,-10.421 -11.364,-13.804c-5.001,-3.385 -11.086,-5.371 -17.559,-5.367c-4.311,-0.002 -8.462,0.878 -12.223,2.471c-5.644,2.389 -10.42,6.358 -13.804,11.364c-2.102,3.106 -3.662,6.631 -4.544,10.408l-153.387,0c-0.019,-0.047 -0.036,-0.095 -0.055,-0.141c-1.692,-3.995 -4.496,-7.368 -8.034,-9.76c-3.533,-2.393 -7.851,-3.801 -12.419,-3.797c-3.042,-0.001 -5.984,0.621 -8.645,1.748c-3.995,1.692 -7.367,4.495 -9.76,8.035c-2.393,3.532 -3.8,7.85 -3.796,12.418c-0.002,3.042 0.621,5.984 1.748,8.645c1.691,3.995 4.495,7.368 8.034,9.76c0.658,0.446 1.351,0.845 2.061,1.22l-80.533,198.606c-0.708,1.747 -0.788,3.666 -0.302,5.447c0.329,11.703 2.853,22.894 7.181,33.122c6.977,16.491 18.61,30.496 33.263,40.397c14.646,9.901 32.361,15.692 51.351,15.688c12.656,0.002 24.757,-2.569 35.749,-7.219c16.491,-6.978 30.496,-18.611 40.396,-33.263c9.436,-13.959 15.127,-30.708 15.639,-48.69c0.499,-1.79 0.422,-3.723 -0.291,-5.482l-80.753,-199.15c2.82,-1.679 5.231,-3.952 7.062,-6.662c0.825,-1.217 1.523,-2.533 2.096,-3.915l154.162,0c0.266,0.803 0.555,1.594 0.881,2.366c2.105,4.972 5.437,9.267 9.622,12.533l0,316.035l-75.019,0c-4.697,0 -8.504,3.808 -8.504,8.504c0,4.697 3.807,8.504 8.504,8.504l83.523,0c4.27,0 7.795,-3.151 8.401,-7.252l0.103,0l0,-319.239c0.758,0.054 1.522,0.087 2.293,0.086c0.771,0 1.534,-0.038 2.294,-0.093l0,319.246l0.647,0c0.606,4.101 4.13,7.252 8.401,7.252l76.482,0c4.697,0 8.504,-3.807 8.504,-8.504c0,-4.696 -3.807,-8.504 -8.504,-8.504l-68.522,0l0,-316.054c2.597,-2.029 4.875,-4.441 6.725,-7.178c1.59,-2.35 2.857,-4.945 3.768,-7.702l150.17,0c0.019,0.047 0.036,0.095 0.056,0.141c1.691,3.995 4.495,7.368 8.034,9.76c0.566,0.383 1.158,0.731 1.762,1.062l-80.597,198.764c-0.708,1.747 -0.788,3.666 -0.301,5.447c0.329,11.703 2.853,22.894 7.181,33.122c6.977,16.491 18.61,30.496 33.262,40.397c14.647,9.901 32.362,15.692 51.352,15.688c12.656,0.002 24.757,-2.569 35.748,-7.219c16.491,-6.978 30.496,-18.611 40.397,-33.263c9.436,-13.959 15.127,-30.708 15.639,-48.69c0.498,-1.791 0.422,-3.723 -0.291,-5.482" style="fill:#fff;fill-rule:nonzero;"/><path d="M383.792,393.32l-182.144,0c-4.697,0 -8.504,3.807 -8.504,8.504c0,4.696 3.807,8.504 8.504,8.504l182.144,0c4.696,0 8.504,-3.808 8.504,-8.504c0,-4.697 -3.808,-8.504 -8.504,-8.504" style="fill:#fff;fill-rule:nonzero;"/></g></svg>
