<?xml version="1.0" encoding="UTF-8" standalone="no"?><!DOCTYPE svg PUBLIC "-//W3C//DTD SVG 1.1//EN" "http://www.w3.org/Graphics/SVG/1.1/DTD/svg11.dtd"><svg width="100%" height="100%" viewBox="0 0 44 47" version="1.1" xmlns="http://www.w3.org/2000/svg" xmlns:xlink="http://www.w3.org/1999/xlink" xml:space="preserve" xmlns:serif="http://www.serif.com/" style="fill-rule:evenodd;clip-rule:evenodd;stroke-miterlimit:10;"><g id="icons"><path d="M35.75,32.756l4.717,0c0.575,0 0.937,-0.612 0.667,-1.119c-0.372,-0.696 -0.69,-1.358 -0.633,-1.555c0.088,-0.308 0.594,-0.396 1.781,-1.1c1.188,-0.704 1.056,-1.672 0.572,-2.419c-0.483,-0.748 -3.698,-4.929 -3.783,-6.203c-0.055,-0.825 0.935,-2.903 0.242,-6.169c-0.693,-3.267 -4.542,-13.732 -18.563,-13.435c-14.021,0.297 -20,9.838 -20,16.602c0,6.763 3.434,10.056 4.549,13.339c1.473,4.335 2.262,9.355 -0.486,15.059" style="fill:none;fill-rule:nonzero;stroke:#00aac5;stroke-width:1.5px;"/><path d="M26.749,45.968c0.631,-2.62 1.828,-4.853 2.913,-5.302" style="fill:none;fill-rule:nonzero;stroke:#00aac5;stroke-width:1.5px;"/><path d="M24.75,34.756c0.937,2.625 1.641,4.963 2.534,5.248c1.34,0.425 6.66,1.934 8.664,1.172c2.003,-0.762 1.609,-2.587 1.638,-3.131c0.073,-1.347 1.43,-1.507 1.226,-3.31" style="fill:none;fill-rule:nonzero;stroke:#00aac5;stroke-width:1.5px;"/><path d="M13.75,12.756c0,-1.656 -1.344,-3 -3,-3c-1.656,0 -3,1.344 -3,3c0,1.656 1.344,3 3,3c1.656,0 3,-1.344 3,-3Z" style="fill:none;stroke:#00aac5;stroke-width:1.5px;"/><path d="M33.75,12.756c0,-1.656 -1.344,-3 -3,-3c-1.656,0 -3,1.344 -3,3c0,1.656 1.344,3 3,3c1.656,0 3,-1.344 3,-3Z" style="fill:none;stroke:#00aac5;stroke-width:1.5px;"/><path d="M23.75,7.756c0,-1.656 -1.344,-3 -3,-3c-1.656,0 -3,1.344 -3,3c0,1.656 1.344,3 3,3c1.656,0 3,-1.344 3,-3Z" style="fill:none;stroke:#00aac5;stroke-width:1.5px;"/><path d="M20.75,10.756l0,29" style="fill:none;fill-rule:nonzero;stroke:#00aac5;stroke-width:1.5px;"/><path d="M28.75,14.756l-4,4l0,6" style="fill:none;fill-rule:nonzero;stroke:#00aac5;stroke-width:1.5px;"/><path d="M12.75,14.756l4,4l0,6" style="fill:none;fill-rule:nonzero;stroke:#00aac5;stroke-width:1.5px;"/><path d="M12.75,22.756c0,-1.656 -1.344,-3 -3,-3c-1.656,0 -3,1.344 -3,3c0,1.656 1.344,3 3,3c1.656,0 3,-1.344 3,-3Z" style="fill:none;stroke:#00aac5;stroke-width:1.5px;"/><path d="M11.75,24.756l4,4l0,17" style="fill:none;fill-rule:nonzero;stroke:#00aac5;stroke-width:1.5px;"/><path d="M34.75,22.756c0,-1.656 -1.344,-3 -3,-3c-1.656,0 -3,1.344 -3,3c0,1.656 1.344,3 3,3c1.656,0 3,-1.344 3,-3Z" style="fill:none;stroke:#00aac5;stroke-width:1.5px;"/><path d="M29.75,24.756l-5,5l0,2" style="fill:none;fill-rule:nonzero;stroke:#00aac5;stroke-width:1.5px;"/></g></svg>