<?xml version="1.0" encoding="UTF-8" standalone="no"?><!DOCTYPE svg PUBLIC "-//W3C//DTD SVG 1.1//EN" "http://www.w3.org/Graphics/SVG/1.1/DTD/svg11.dtd"><svg width="100%" height="100%" viewBox="0 0 119 101" version="1.1" xmlns="http://www.w3.org/2000/svg" xmlns:xlink="http://www.w3.org/1999/xlink" xml:space="preserve" xmlns:serif="http://www.serif.com/" style="fill-rule:evenodd;clip-rule:evenodd;stroke-linejoin:round;stroke-miterlimit:2;"><g id="Layer-1" serif:id="Layer 1"><path d="M86.458,100.795c-1.104,0 -2,-0.896 -2,-2c0,-1.104 0.896,-2 2,-2c4.754,0 8.622,-3.867 8.622,-8.621l-0.104,-75.541c0,-3.332 1.296,-6.366 3.412,-8.625l-64.885,0c-4.756,0 -8.625,3.868 -8.625,8.622l0,66.677c0,1.104 -0.896,2 -2,2c-1.105,0 -2,-0.896 -2,-2l0,-66.677c0,-6.96 5.663,-12.622 12.625,-12.622l74.095,0c1.104,0 2,0.896 2,2c0,1.105 -0.896,2 -2,2c-4.754,0 -8.622,3.868 -8.622,8.622l0.104,75.541c0,6.962 -5.662,12.624 -12.622,12.624" style="fill:#00aac5;fill-rule:nonzero;"/><path d="M106.455,4.006l-72.952,0c-1.105,0 -2,-0.896 -2,-2c0,-1.104 0.895,-2 2,-2l72.952,0c1.104,0 2,0.896 2,2c0,1.104 -0.896,2 -2,2" style="fill:#00aac5;fill-rule:nonzero;"/><path d="M98.493,18.911l15.787,0l0,-7.073c0,-4.319 -3.512,-7.832 -7.829,-7.832c-0.046,0 -0.092,-0.002 -0.138,-0.005l-0.104,-0.001c-1.015,0 -4.455,0.29 -6.138,4.03c-1.597,3.544 -1.675,8.327 -1.578,10.881m17.787,4l-19.66,0c-1.02,0 -1.876,-0.768 -1.988,-1.781c-0.039,-0.353 -0.921,-8.718 1.792,-14.742c2.119,-4.71 6.444,-6.388 9.785,-6.388c0.134,0 0.234,0.003 0.299,0.006c6.497,0.03 11.772,5.326 11.772,11.832l0,9.073c0,1.104 -0.895,2 -2,2" style="fill:#00aac5;fill-rule:nonzero;"/><path d="M116.28,22.911l-19.66,0c-1.105,0 -2,-0.896 -2,-2c0,-1.104 0.895,-2 2,-2l17.66,0l0,-7.073c0,-4.319 -3.512,-7.832 -7.829,-7.832c-1.105,0 -2,-0.896 -2,-2c0,-1.105 0.895,-2 2,-2c6.522,0 11.829,5.307 11.829,11.832l0,9.073c0,1.104 -0.896,2 -2,2" style="fill:#00aac5;fill-rule:nonzero;"/><path d="M22.878,58.154c-1.104,0 -2,-0.896 -2,-2l0,-43.524c0,-6.961 5.663,-12.624 12.623,-12.624c1.105,0 2,0.895 2,2c0,1.104 -0.895,2 -2,2c-4.755,0 -8.623,3.869 -8.623,8.624l0,43.524c0,1.104 -0.896,2 -2,2" style="fill:#00aac5;fill-rule:nonzero;"/><path d="M4,81.892l0,7.073c0,4.318 3.513,7.83 7.83,7.83l66.115,0c-1.846,-2.088 -2.968,-4.83 -2.968,-7.83l0.06,-7.073l-71.037,0Zm82.806,18.903l-74.976,0c-6.523,0 -11.83,-5.306 -11.83,-11.83l0,-9.073c0,-1.104 0.896,-2 2,-2l75.054,0c0.533,0 1.045,0.213 1.42,0.592c0.376,0.379 0.585,0.891 0.58,1.425l-0.077,9.073c0,4.301 3.511,7.813 7.829,7.813c1.104,0 2,0.896 2,2c0,1.105 -0.896,2 -2,2" style="fill:#00aac5;fill-rule:nonzero;"/><path d="M86.458,100.795l-74.633,0c-1.104,0 -2,-0.896 -2,-2c0,-1.104 0.896,-2 2,-2l74.633,0c1.104,0 2,0.896 2,2c0,1.104 -0.896,2 -2,2" style="fill:#00aac5;fill-rule:nonzero;"/><path d="M86.806,100.795c-6.522,0 -11.829,-5.307 -11.829,-11.83l0.06,-7.073l-71.037,0l0,7.073c0,4.317 3.513,7.83 7.83,7.83c1.105,0 2,0.896 2,2c0,1.104 -0.895,2 -2,2c-6.523,0 -11.83,-5.307 -11.83,-11.83l0,-9.073c0,-1.105 0.896,-2 2,-2l75.054,0c0.533,0 1.045,0.213 1.42,0.591c0.376,0.379 0.585,0.892 0.58,1.425l-0.077,9.074c0,4.3 3.512,7.813 7.829,7.813c1.104,0 2,0.896 2,2c0,1.104 -0.896,2 -2,2" style="fill:#00aac5;fill-rule:nonzero;"/><path d="M86.458,100.795c-1.104,0 -2,-0.896 -2,-2c0,-1.104 0.896,-2 2,-2c4.754,0 8.622,-3.867 8.622,-8.621l-0.104,-75.541c0,-6.963 5.662,-12.625 12.622,-12.625c1.104,0 2,0.896 2,2c0,1.105 -0.896,2 -2,2c-4.754,0 -8.622,3.868 -8.622,8.622l0.104,75.541c0,6.962 -5.662,12.624 -12.622,12.624" style="fill:#00aac5;fill-rule:nonzero;"/><path d="M57.531,21.144c-6.302,0 -11.428,5.127 -11.428,11.429c0,6.303 5.126,11.43 11.428,11.43c6.303,0 11.43,-5.127 11.43,-11.43c0,-6.302 -5.127,-11.429 -11.43,-11.429m0,26.859c-8.507,0 -15.428,-6.921 -15.428,-15.43c0,-8.508 6.921,-15.429 15.428,-15.429c8.508,0 15.43,6.921 15.43,15.429c0,8.509 -6.922,15.43 -15.43,15.43" style="fill:#00aac5;fill-rule:nonzero;"/><path d="M67.417,61.376c-0.396,0 -0.792,-0.118 -1.131,-0.351l-8.673,-5.945l-8.849,5.955c-0.614,0.414 -1.407,0.454 -2.056,0.107c-0.653,-0.348 -1.061,-1.027 -1.061,-1.766l0,-17.16c0,-1.104 0.896,-2 2,-2c1.105,0 2,0.896 2,2l0,13.403l6.861,-4.617c0.679,-0.458 1.57,-0.454 2.247,0.01l6.662,4.568l0,-13.364c0,-1.104 0.896,-2 2,-2c1.104,0 2,0.896 2,2l0,17.16c0,0.742 -0.411,1.423 -1.067,1.77c-0.293,0.154 -0.614,0.23 -0.933,0.23" style="fill:#00aac5;fill-rule:nonzero;"/></g></svg>