<?xml version="1.0" encoding="UTF-8" standalone="no"?><!DOCTYPE svg PUBLIC "-//W3C//DTD SVG 1.1//EN" "http://www.w3.org/Graphics/SVG/1.1/DTD/svg11.dtd"><svg width="100%" height="100%" viewBox="0 0 40 50" version="1.1" xmlns="http://www.w3.org/2000/svg" xmlns:xlink="http://www.w3.org/1999/xlink" xml:space="preserve" xmlns:serif="http://www.serif.com/" style="fill-rule:evenodd;clip-rule:evenodd;stroke-linejoin:round;stroke-miterlimit:2;"><g id="Symbol"><path d="M34.742,4.188l-7.129,-0.001c-0.552,0 -1,0.447 -1,1l0,7.238l-14.424,0l0,-6.239l2.506,0c0.507,0 0.91,-0.384 0.974,-0.873c0.197,-1.854 1.746,-3.313 3.645,-3.313c1.9,0 3.449,1.459 3.632,3.313l2.018,0c-0.187,-2.96 -2.645,-5.313 -5.65,-5.313c-2.611,0 -4.804,1.778 -5.459,4.186l-2.666,0c-0.552,0 -1,0.448 -1,1l0,8.239c0,0.553 0.448,1 1,1l16.424,0c0.552,0 1,-0.447 1,-1l0,-7.238l6.129,0.001c1.378,0 2.5,1.122 2.5,2.5l0,36.763c0,1.378 -1.122,2.5 -2.5,2.5l-30.242,0c-1.379,0 -2.5,-1.122 -2.5,-2.5l0,-36.763c0,-1.626 0.948,-2.5 2.07,-2.5l3.07,0c0.553,0 1,-0.448 1,-1c0,-0.552 -0.447,-1 -1,-1l-3.07,0c-2.244,0 -4.07,2.019 -4.07,4.5l0,36.763c0,2.481 2.018,4.5 4.5,4.5l30.242,0c2.481,0 4.5,-2.019 4.5,-4.5l0,-36.763c0,-2.481 -2.019,-4.5 -4.5,-4.5m-17.158,1.481c0,0.965 0.785,1.748 1.75,1.748c0.961,0 1.75,-0.783 1.75,-1.748c0,-0.966 -0.789,-1.752 -1.75,-1.752c-0.965,0 -1.75,0.786 -1.75,1.752m-10.393,4.89c0,-0.553 -0.448,-1 -1,-1c-0.552,0 -1,0.447 -1,1l0,32.947c0,0.553 0.448,1 1,1l26.42,0c0.552,0 1,-0.447 1,-1l0,-32.947c0,-0.553 -0.448,-1 -1,-1c-0.552,0 -1,0.447 -1,1l0,31.947l-24.42,0l0,-31.947Zm5.36,26.705l13.705,0c0.552,0 1,-0.448 1,-1c0,-0.553 -0.448,-1 -1,-1l-13.705,0c-0.553,0 -1,0.447 -1,1c0,0.552 0.447,1 1,1m0,-8.055l13.705,0c0.552,0 1,-0.447 1,-1c0,-0.552 -0.448,-1 -1,-1l-13.705,0c-0.553,0 -1,0.448 -1,1c0,0.553 0.447,1 1,1m-1,-9.001c0,-0.552 0.447,-1 1,-1l13.705,0c0.552,0 1,0.448 1,1c0,0.552 -0.448,1 -1,1l-13.705,0c-0.553,0 -1,-0.448 -1,-1" style="fill:#00aac5;fill-rule:nonzero;"/></g></svg>