<?xml version="1.0" encoding="UTF-8" standalone="no"?><!DOCTYPE svg PUBLIC "-//W3C//DTD SVG 1.1//EN" "http://www.w3.org/Graphics/SVG/1.1/DTD/svg11.dtd"><svg width="100%" height="100%" viewBox="0 0 94 74" version="1.1" xmlns="http://www.w3.org/2000/svg" xmlns:xlink="http://www.w3.org/1999/xlink" xml:space="preserve" xmlns:serif="http://www.serif.com/" style="fill-rule:evenodd;clip-rule:evenodd;stroke-linejoin:round;stroke-miterlimit:2;"><g id="_-ÎÓÈ_1" serif:id="„ÎÓÈ_1"><path d="M43.286,48.528c-0.193,0 -0.388,-0.056 -0.56,-0.172c-0.353,-0.239 -0.734,-0.446 -1.131,-0.614l-1.731,-0.772c-0.505,-0.224 -0.731,-0.815 -0.507,-1.32c0.225,-0.505 0.817,-0.732 1.321,-0.506l1.713,0.764c0.499,0.211 0.996,0.479 1.457,0.792c0.457,0.309 0.577,0.932 0.267,1.389c-0.193,0.285 -0.509,0.439 -0.829,0.439" style="fill:#00aac5;fill-rule:nonzero;"/><path d="M1,68.365c-0.552,0 -1,-0.447 -1,-1l0,-13.579c0,-3.449 2.053,-6.545 5.231,-7.886l11.461,-4.845c0.507,-0.215 1.095,0.023 1.31,0.532c0.215,0.508 -0.023,1.095 -0.532,1.31l-11.461,4.845c-2.436,1.028 -4.009,3.4 -4.009,6.044l0,13.579c0,0.553 -0.448,1 -1,1" style="fill:#00aac5;fill-rule:nonzero;"/><path d="M35.029,31.13c-0.552,0 -1,-0.448 -1,-1l0,-8.09c0,-0.552 0.448,-1 1,-1c0.552,0 1,0.448 1,1l0,8.09c0,0.552 -0.448,1 -1,1" style="fill:#00aac5;fill-rule:nonzero;"/><path d="M12.575,31.13c-0.552,0 -1,-0.448 -1,-1l0,-10.026c0,-0.553 0.448,-1 1,-1c0.552,0 1,0.447 1,1l0,10.026c0,0.552 -0.448,1 -1,1" style="fill:#00aac5;fill-rule:nonzero;"/><path d="M39.343,21.958c-0.552,0 -1,-0.448 -1,-1c0,-8.018 -6.523,-14.541 -14.541,-14.541c-8.018,0 -14.541,6.523 -14.541,14.541c0,0.552 -0.447,1 -1,1c-0.552,0 -1,-0.448 -1,-1c0,-9.121 7.42,-16.542 16.541,-16.542c9.121,0.001 16.541,7.421 16.541,16.542c0,0.552 -0.448,1 -1,1" style="fill:#00aac5;fill-rule:nonzero;"/><path d="M40.406,50.735c-0.536,0 -0.979,-0.424 -0.999,-0.963l-1.064,-28.777c-0.02,-0.552 0.411,-1.016 0.962,-1.037c0.575,-0.024 1.017,0.411 1.037,0.963l1.064,28.777c0.02,0.552 -0.411,1.016 -0.962,1.036c-0.013,0.001 -0.026,0.001 -0.038,0.001" style="fill:#00aac5;fill-rule:nonzero;"/><path d="M7.332,47.098c-0.012,0 -0.025,0 -0.038,-0.001c-0.551,-0.02 -0.982,-0.484 -0.962,-1.036l0.93,-25.141c0.02,-0.551 0.473,-0.994 1.036,-0.962c0.552,0.02 0.983,0.484 0.963,1.036l-0.93,25.141c-0.02,0.539 -0.464,0.963 -0.999,0.963" style="fill:#00aac5;fill-rule:nonzero;"/><path d="M12.575,21.104c-0.441,0 -0.845,-0.294 -0.965,-0.741c-0.143,-0.533 0.173,-1.082 0.706,-1.225c0.178,-0.048 0.38,-0.096 0.599,-0.147c0.935,-0.218 2.099,-0.49 3.093,-1.237c2.062,-1.55 2.836,-3.937 3.207,-5.085l0.098,-0.298c0.177,-0.523 0.742,-0.807 1.267,-0.628c0.523,0.176 0.805,0.744 0.628,1.267l-0.09,0.276c-0.435,1.342 -1.34,4.137 -3.909,6.067c-1.33,1 -2.84,1.353 -3.839,1.586c-0.195,0.045 -0.376,0.087 -0.535,0.13c-0.087,0.024 -0.174,0.035 -0.26,0.035" style="fill:#00aac5;fill-rule:nonzero;"/><path d="M35.029,23.04c-0.552,0 -1,-0.448 -1,-1c0,-3.177 -2.482,-4.667 -3.676,-5.383l-0.211,-0.128c-0.908,-0.555 -2.166,-0.733 -3.623,-0.938c-1.937,-0.273 -4.348,-0.613 -6.766,-2.039c-0.476,-0.281 -0.635,-0.894 -0.354,-1.369c0.281,-0.476 0.895,-0.635 1.369,-0.354c2.076,1.224 4.177,1.521 6.03,1.782c1.607,0.226 3.126,0.44 4.388,1.212l0.197,0.119c1.271,0.763 4.646,2.789 4.646,7.098c0,0.552 -0.448,1 -1,1" style="fill:#00aac5;fill-rule:nonzero;"/><path d="M29.059,22.21c-0.431,0 -0.83,-0.282 -0.958,-0.716c-0.323,-1.088 -0.788,-2.122 -1.383,-3.074c-0.887,-1.417 -4.049,-3.2 -5.748,-4.158c-0.568,-0.319 -1.018,-0.575 -1.266,-0.741c-0.458,-0.308 -0.582,-0.929 -0.274,-1.388c0.307,-0.458 0.928,-0.581 1.387,-0.274c0.222,0.149 0.627,0.375 1.135,0.661c2.684,1.514 5.395,3.134 6.461,4.839c0.691,1.106 1.231,2.306 1.605,3.566c0.157,0.53 -0.145,1.086 -0.674,1.243c-0.095,0.028 -0.191,0.042 -0.285,0.042" style="fill:#00aac5;fill-rule:nonzero;"/><path d="M32.212,56.394c-0.538,0 -0.982,-0.428 -0.999,-0.97l-0.475,-15.467c-0.017,-0.552 0.417,-1.013 0.969,-1.03c0.575,-0.039 1.013,0.417 1.03,0.969l0.475,15.468c0.017,0.551 -0.417,1.012 -0.969,1.03l-0.031,0Z" style="fill:#00aac5;fill-rule:nonzero;"/><path d="M37.427,56.616c-0.014,0 -0.028,0 -0.043,-0.001l-5.213,-0.222c-0.552,-0.023 -0.98,-0.489 -0.957,-1.042c0.024,-0.55 0.469,-0.988 1.042,-0.956l5.213,0.222c0.552,0.023 0.98,0.489 0.957,1.041c-0.023,0.538 -0.466,0.958 -0.999,0.958" style="fill:#00aac5;fill-rule:nonzero;"/><path d="M23.802,61.424c-0.176,0 -0.353,-0.047 -0.51,-0.14c-1.216,-0.721 -4.008,-2.858 -5.879,-5.785c-1.296,-2.027 -2.147,-6.018 -2.529,-11.863l-0.016,-0.242c-0.038,-0.551 0.378,-1.029 0.929,-1.067c0.547,-0.016 1.028,0.378 1.066,0.93l0.017,0.249c0.448,6.855 1.453,9.72 2.218,10.915c1.357,2.124 3.384,3.908 4.704,4.815c1.32,-0.907 3.347,-2.691 4.705,-4.815c0.764,-1.195 1.769,-4.059 2.217,-10.914l0.017,-0.25c0.038,-0.551 0.52,-0.947 1.066,-0.93c0.551,0.038 0.967,0.516 0.929,1.067l-0.016,0.243c-0.382,5.845 -1.233,9.836 -2.529,11.862c-1.871,2.927 -4.663,5.064 -5.879,5.785c-0.157,0.093 -0.334,0.14 -0.51,0.14" style="fill:#00aac5;fill-rule:nonzero;"/><path d="M8.64,66.222l6.443,0l0,-1.152l-6.443,0l0,1.152Zm7.443,2l-8.443,0c-0.553,0 -1,-0.447 -1,-1l0,-3.152c0,-0.553 0.447,-1 1,-1l8.443,0c0.552,0 1,0.447 1,1l0,3.152c0,0.553 -0.448,1 -1,1" style="fill:#00aac5;fill-rule:nonzero;"/><path d="M9.023,65.07c-0.552,0 -1,-0.447 -1,-1l0,-5.071c0,-0.553 0.448,-1 1,-1c0.552,0 1,0.447 1,1l0,5.071c0,0.553 -0.448,1 -1,1" style="fill:#00aac5;fill-rule:nonzero;"/><path d="M11.861,65.07c-0.552,0 -1,-0.447 -1,-1l0,-3.372c0,-0.553 0.448,-1 1,-1c0.552,0 1,0.447 1,1l0,3.372c0,0.553 -0.448,1 -1,1" style="fill:#00aac5;fill-rule:nonzero;"/><path d="M35.015,32.091c-0.093,0 -0.187,-0.013 -0.28,-0.04c-0.048,-0.014 -4.877,-1.401 -10.947,-1.401c-6.069,0 -10.898,1.387 -10.946,1.401c-0.528,0.156 -1.085,-0.149 -1.24,-0.68c-0.154,-0.53 0.149,-1.085 0.679,-1.24c0.207,-0.061 5.137,-1.481 11.507,-1.481c6.371,0 11.301,1.42 11.508,1.481c0.53,0.155 0.833,0.71 0.678,1.24c-0.127,0.437 -0.526,0.72 -0.959,0.72" style="fill:#00aac5;fill-rule:nonzero;"/><path d="M9.023,56.616c-0.381,0 -0.691,0.311 -0.691,0.691c0,0.381 0.31,0.692 0.691,0.692c0.381,0 0.691,-0.311 0.691,-0.692c0,-0.38 -0.31,-0.691 -0.691,-0.691m0,3.383c-1.484,0 -2.691,-1.207 -2.691,-2.692c0,-1.484 1.207,-2.691 2.691,-2.691c1.484,0 2.691,1.207 2.691,2.691c0,1.485 -1.207,2.692 -2.691,2.692" style="fill:#00aac5;fill-rule:nonzero;"/><path d="M11.861,61.698c-0.256,0 -0.512,-0.098 -0.707,-0.293c-0.391,-0.391 -0.391,-1.023 0,-1.414l1.857,-1.856c0.391,-0.391 1.023,-0.391 1.414,0c0.391,0.39 0.391,1.023 0,1.414l-1.857,1.856c-0.195,0.195 -0.451,0.293 -0.707,0.293" style="fill:#00aac5;fill-rule:nonzero;"/><path d="M23.778,45.73c-0.09,0 -0.177,-0.01 -0.252,-0.031c-5.645,-1.612 -8.332,-4.602 -9.604,-6.83c-1.63,-2.858 -2.32,-7.342 -2.333,-8.73c-0.006,-0.552 0.438,-1.004 0.99,-1.009c0.512,-0.028 1.004,0.438 1.01,0.991c0.011,1.194 0.643,5.255 2.07,7.757c1.072,1.877 3.352,4.397 8.141,5.818c4.811,-1.442 7.077,-3.948 8.144,-5.818c1.427,-2.501 2.059,-6.563 2.07,-7.757c0.005,-0.553 0.41,-0.997 1.01,-0.991c0.552,0.005 0.996,0.457 0.99,1.009c-0.013,1.389 -0.703,5.873 -2.333,8.73c-1.272,2.228 -3.959,5.218 -9.542,6.812c-0.105,0.03 -0.235,0.049 -0.361,0.049" style="fill:#00aac5;fill-rule:nonzero;"/><path d="M40.862,73.946c-0.552,0 -1,-0.447 -1,-1l0,-15.342c0,-3.844 2.289,-7.295 5.831,-8.79l12.019,-5.2c0.51,-0.221 1.097,0.015 1.316,0.52c0.218,0.508 -0.014,1.096 -0.521,1.316l-12.028,5.203c-2.808,1.186 -4.617,3.913 -4.617,6.951l0,15.342c0,0.553 -0.448,1 -1,1" style="fill:#00aac5;fill-rule:nonzero;"/><path d="M92.387,73.946c-0.553,0 -1,-0.447 -1,-1l0,-15.342c0,-3.038 -1.809,-5.765 -4.608,-6.948c-0.509,-0.215 -0.747,-0.801 -0.533,-1.31c0.215,-0.509 0.802,-0.747 1.31,-0.532c3.542,1.496 5.831,4.946 5.831,8.79l0,15.342c0,0.553 -0.447,1 -1,1" style="fill:#00aac5;fill-rule:nonzero;"/><path d="M66.669,42.263c-1.118,0 -2.237,-0.236 -3.279,-0.708l-6.997,-3.165c-2.841,-1.285 -4.677,-4.131 -4.677,-7.25l0,-18.156c0,-0.552 0.447,-1 1,-1c0.553,0 1,0.448 1,1l0,18.156c0,2.335 1.374,4.466 3.501,5.428l6.997,3.165c1.559,0.706 3.35,0.707 4.911,0l6.996,-3.165c2.16,-0.977 3.502,-3.136 3.502,-5.634l0,-15.457c0,-0.552 0.447,-1 1,-1c0.553,0 1,0.448 1,1l0,15.457c0,3.294 -1.792,6.151 -4.678,7.456l-6.996,3.165c-1.042,0.472 -2.161,0.708 -3.28,0.708" style="fill:#00aac5;fill-rule:nonzero;"/><path d="M51.024,15.721c-0.108,0 -0.219,-0.018 -0.325,-0.055c-0.404,-0.139 -0.675,-0.518 -0.675,-0.945l0,-4.981c0,-5.644 5.41,-9.74 12.865,-9.74c2.492,0 4.499,0.728 5.964,2.163c0.395,0.387 0.4,1.02 0.014,1.414c-0.387,0.395 -1.02,0.399 -1.414,0.015c-1.077,-1.057 -2.613,-1.592 -4.564,-1.592c-6.296,0 -10.865,3.255 -10.865,7.74l0,2.517c1.434,-1.268 3.657,-2.821 6.427,-3.408c1.951,-0.414 3.841,-0.001 5.361,0.33c0.575,0.125 1.118,0.243 1.589,0.302c0.548,0.068 0.937,0.567 0.869,1.115c-0.067,0.548 -0.563,0.941 -1.115,0.869c-0.562,-0.069 -1.148,-0.197 -1.769,-0.332c-1.403,-0.306 -2.995,-0.65 -4.52,-0.328c-4.162,0.883 -7.025,4.495 -7.053,4.531c-0.193,0.247 -0.487,0.385 -0.789,0.385" style="fill:#00aac5;fill-rule:nonzero;"/><path d="M80.623,16.477c-0.129,0 -0.26,-0.025 -0.387,-0.078c-0.509,-0.214 -0.748,-0.8 -0.535,-1.309c0.148,-0.353 3.552,-8.679 -2.222,-11.215c-1.533,-0.673 -2.521,-0.904 -3.308,-0.777c-0.542,0.09 -1.06,-0.279 -1.15,-0.823c-0.09,-0.545 0.279,-1.06 0.824,-1.15c1.502,-0.25 3.088,0.326 4.439,0.919c6.06,2.662 4.782,10.204 3.261,13.821c-0.16,0.382 -0.53,0.612 -0.921,0.612" style="fill:#00aac5;fill-rule:nonzero;"/><path d="M74.878,70.462l9.911,0l0,-2.971l-9.911,0l0,2.971Zm10.912,2l-11.912,0c-0.552,0 -1,-0.448 -1,-1l0,-4.971c0,-0.553 0.448,-1 1,-1l11.912,0c0.552,0 1,0.447 1,1l0,4.971c0,0.552 -0.448,1 -1,1" style="fill:#00aac5;fill-rule:nonzero;"/><path d="M76.442,67.053c-0.553,0 -1,-0.447 -1,-1l0,-7.565c0,-0.553 0.447,-1 1,-1c0.553,0 1,0.447 1,1l0,7.565c0,0.553 -0.447,1 -1,1" style="fill:#00aac5;fill-rule:nonzero;"/><path d="M80.13,67.491c-0.553,0 -1,-0.447 -1,-1l0,-5.439c0,-0.553 0.447,-1 1,-1c0.553,0 1,0.447 1,1l0,5.439c0,0.553 -0.447,1 -1,1" style="fill:#00aac5;fill-rule:nonzero;"/><path d="M66.623,56.277c-0.223,0 -0.446,-0.074 -0.633,-0.227l-11.456,-9.379c-0.427,-0.35 -0.49,-0.98 -0.14,-1.408c0.349,-0.426 0.978,-0.49 1.408,-0.139l11.456,9.38c0.427,0.349 0.49,0.979 0.139,1.407c-0.197,0.241 -0.484,0.366 -0.774,0.366" style="fill:#00aac5;fill-rule:nonzero;"/><path d="M66.625,56.277c-0.29,0 -0.577,-0.125 -0.774,-0.366c-0.351,-0.428 -0.288,-1.058 0.139,-1.407l11.454,-9.38c0.429,-0.352 1.059,-0.287 1.409,0.139c0.349,0.428 0.286,1.058 -0.141,1.408l-11.454,9.379c-0.186,0.153 -0.409,0.227 -0.632,0.227" style="fill:#00aac5;fill-rule:nonzero;"/><path d="M66.625,73.946c-0.553,0 -1.001,-0.447 -1.001,-1l0.001,-17.669c-0.001,-0.553 0.447,-1 0.999,-1c0.553,0 1.001,0.447 1.001,1l-0.001,17.669c0.001,0.553 -0.447,1 -0.999,1" style="fill:#00aac5;fill-rule:nonzero;"/><path d="M71.876,2.773c-3.227,0 -5.852,2.625 -5.852,5.852c0,3.227 2.625,5.852 5.852,5.852c3.227,0 5.852,-2.625 5.852,-5.852c0,-3.227 -2.625,-5.852 -5.852,-5.852m0,13.704c-4.329,0 -7.852,-3.522 -7.852,-7.852c0,-4.33 3.523,-7.852 7.852,-7.852c4.329,0 7.852,3.522 7.852,7.852c0,4.33 -3.523,7.852 -7.852,7.852" style="fill:#00aac5;fill-rule:nonzero;"/><path d="M71.876,8.39c-0.13,0 -0.235,0.105 -0.235,0.235c0,0.259 0.47,0.259 0.47,0c0,-0.13 -0.105,-0.235 -0.235,-0.235m0,2c-0.973,0 -1.765,-0.792 -1.765,-1.765c0,-0.973 0.792,-1.765 1.765,-1.765c0.973,0 1.765,0.792 1.765,1.765c0,0.973 -0.792,1.765 -1.765,1.765" style="fill:#00aac5;fill-rule:nonzero;"/><path d="M80.623,16.477l-27.907,0c-0.553,0 -1,-0.448 -1,-1c0,-0.552 0.447,-1 1,-1l27.907,0c0.553,0 1,0.448 1,1c0,0.552 -0.447,1 -1,1" style="fill:#00aac5;fill-rule:nonzero;"/><path d="M58.111,45.532c-0.087,0 -0.176,-0.011 -0.264,-0.035c-0.532,-0.145 -0.847,-0.694 -0.702,-1.228l1.565,-5.754c0.145,-0.533 0.694,-0.845 1.227,-0.702c0.532,0.144 0.848,0.694 0.702,1.227l-1.564,5.755c-0.121,0.444 -0.525,0.737 -0.964,0.737" style="fill:#00aac5;fill-rule:nonzero;"/><path d="M46.083,50.735c-0.388,0 -0.756,-0.226 -0.919,-0.603c-0.219,-0.507 0.014,-1.095 0.52,-1.315l12.029,-5.203c0.509,-0.221 1.096,0.015 1.314,0.52c0.219,0.508 -0.013,1.096 -0.52,1.316l-12.029,5.203c-0.129,0.056 -0.264,0.082 -0.396,0.082" style="fill:#00aac5;fill-rule:nonzero;"/><path d="M58.111,45.532c-0.087,0 -0.176,-0.011 -0.264,-0.035c-0.532,-0.145 -0.847,-0.694 -0.702,-1.228l1.565,-5.754c0.145,-0.533 0.694,-0.845 1.227,-0.702c0.532,0.144 0.848,0.694 0.702,1.227l-1.564,5.755c-0.121,0.444 -0.525,0.737 -0.964,0.737" style="fill:#00aac5;fill-rule:nonzero;"/><path d="M87.167,50.735c-0.133,0 -0.267,-0.026 -0.397,-0.082l-12.028,-5.203c-0.507,-0.22 -0.739,-0.808 -0.52,-1.316c0.218,-0.504 0.803,-0.74 1.315,-0.52l12.028,5.203c0.507,0.22 0.74,0.808 0.52,1.315c-0.162,0.377 -0.53,0.603 -0.918,0.603" style="fill:#00aac5;fill-rule:nonzero;"/><path d="M75.138,45.532c-0.439,0 -0.843,-0.293 -0.964,-0.737l-1.564,-5.755c-0.146,-0.533 0.17,-1.083 0.702,-1.227c0.531,-0.144 1.082,0.169 1.227,0.702l1.565,5.754c0.145,0.534 -0.17,1.083 -0.702,1.228c-0.088,0.024 -0.177,0.035 -0.264,0.035" style="fill:#00aac5;fill-rule:nonzero;"/><path d="M77.223,38.115c-0.553,0 -1,-0.448 -1,-1l0,-10.642c-1.135,-0.513 -4.29,-1.674 -9.599,-1.674c-5.305,0 -8.46,1.16 -9.598,1.674l0,10.642c0,0.552 -0.448,1 -1,1c-0.553,0 -1,-0.448 -1,-1l0,-11.258c0,-0.349 0.182,-0.673 0.48,-0.854c0.149,-0.091 3.712,-2.204 11.118,-2.204c7.407,0 10.97,2.113 11.119,2.204c0.297,0.181 0.48,0.505 0.48,0.854l0,11.258c0,0.552 -0.447,1 -1,1" style="fill:#00aac5;fill-rule:nonzero;"/><path d="M56.027,26.857c-0.085,0 -0.171,-0.011 -0.256,-0.034l-3.309,-0.873c-0.535,-0.141 -0.853,-0.688 -0.712,-1.222c0.14,-0.535 0.695,-0.852 1.221,-0.712l3.31,0.874c0.534,0.14 0.852,0.688 0.712,1.222c-0.118,0.448 -0.524,0.745 -0.966,0.745" style="fill:#00aac5;fill-rule:nonzero;"/><path d="M77.222,26.857c-0.442,0 -0.848,-0.297 -0.966,-0.745c-0.14,-0.534 0.178,-1.082 0.712,-1.222l3.31,-0.874c0.527,-0.14 1.081,0.177 1.221,0.712c0.141,0.534 -0.177,1.081 -0.712,1.222l-3.309,0.873c-0.085,0.023 -0.171,0.034 -0.256,0.034" style="fill:#00aac5;fill-rule:nonzero;"/></g></svg>