<?xml version="1.0" encoding="UTF-8" standalone="no"?><!DOCTYPE svg PUBLIC "-//W3C//DTD SVG 1.1//EN" "http://www.w3.org/Graphics/SVG/1.1/DTD/svg11.dtd"><svg width="100%" height="100%" viewBox="0 0 48 38" version="1.1" xmlns="http://www.w3.org/2000/svg" xmlns:xlink="http://www.w3.org/1999/xlink" xml:space="preserve" xmlns:serif="http://www.serif.com/" style="fill-rule:evenodd;clip-rule:evenodd;stroke-linejoin:round;stroke-miterlimit:10;"><g id="icons"><path d="M18.932,1.047c-9.969,0 -17.957,7.983 -17.932,17.953c0.026,9.97 8.032,18 18,18" style="fill:none;fill-rule:nonzero;stroke:#00aac5;stroke-width:2px;"/><path d="M28.001,34.602c-2.644,1.526 -5.716,2.398 -9.001,2.398" style="fill:none;fill-rule:nonzero;stroke:#00aac5;stroke-width:2px;"/><path d="M19.068,1.047c7.09,0 13.178,4.038 16.094,9.956" style="fill:none;fill-rule:nonzero;stroke:#00aac5;stroke-width:2px;"/><path d="M28.197,11.996c-1.523,-6.465 -5.069,-10.996 -9.201,-10.996c-5.521,0 -9.996,8.017 -9.996,18c0,9.983 4.478,18 10,18" style="fill:none;fill-rule:nonzero;stroke:#00aac5;stroke-width:2px;"/><path d="M25,12.067l-23,0" style="fill:none;fill-rule:nonzero;stroke:#00aac5;stroke-width:2px;"/><path d="M22,26.067l-20,0" style="fill:none;fill-rule:nonzero;stroke:#00aac5;stroke-width:2px;"/><path d="M19,1.067l0,35.933" style="fill:none;fill-rule:nonzero;stroke:#00aac5;stroke-width:2px;stroke-linejoin:miter;"/><path d="M44,23c0,-5.519 -4.481,-10 -10,-10c-5.519,0 -10,4.481 -10,10c0,5.519 4.481,10 10,10c5.519,0 10,-4.481 10,-10Z" style="fill:none;stroke:#00aac5;stroke-width:2px;stroke-linejoin:miter;"/><path d="M41,30l6,6" style="fill:none;fill-rule:nonzero;stroke:#00aac5;stroke-width:2px;stroke-linejoin:miter;"/></g></svg>