<?xml version="1.0" encoding="UTF-8" standalone="no"?><!DOCTYPE svg PUBLIC "-//W3C//DTD SVG 1.1//EN" "http://www.w3.org/Graphics/SVG/1.1/DTD/svg11.dtd"><svg width="100%" height="100%" viewBox="0 0 866 747" version="1.1" xmlns="http://www.w3.org/2000/svg" xmlns:xlink="http://www.w3.org/1999/xlink" xml:space="preserve" xmlns:serif="http://www.serif.com/" style="fill-rule:evenodd;clip-rule:evenodd;stroke-linecap:round;stroke-linejoin:round;stroke-miterlimit:10;"><g id="Layer-1" serif:id="Layer 1"><path d="M441.851,703.668c-91.359,21.039 -286.617,-1.195 -331.242,-9.938l0,-166.289c16.82,-11.523 97.054,-62.484 157.031,-29.875c34.039,18.508 78.129,16.899 117.047,15.508c51.641,-1.883 80.961,-1.57 83.578,26.149c0.727,7.718 -1.656,14.398 -7.289,20.414c-26.91,28.773 -117.387,32.758 -150,31.859c-4.387,-0.039 -8.102,3.359 -8.219,7.781c-0.117,4.414 3.364,8.094 7.774,8.219c0.718,0.016 3.695,0.086 8.398,0.086c28.731,0 121.641,-2.727 153.727,-37.008c0.937,-1.008 1.797,-2.039 2.625,-3.086c14.265,-7.179 108.64,-55.742 136.75,-97.765c27.351,-40.875 61.351,-71.133 75.773,-67.657c7.539,1.86 10.109,15.797 10.969,23.946c9.765,92.398 -182.102,260.437 -256.922,277.656Zm249.789,-317.133c-36.586,-9 -90.625,70.891 -92.906,74.297c-20.461,30.578 -83.399,67.086 -114.492,83.875c0.148,-2.281 0.172,-4.601 -0.055,-6.984c-4.148,-44.11 -50.758,-42.422 -100.078,-40.641c-36.867,1.336 -78.629,2.844 -108.828,-13.578c-60.825,-33.063 -135.219,6.141 -164.672,24.734l0,-12.125c0,-13.703 -11.149,-24.851 -24.848,-24.851l-75.262,0c-4.414,0 -8,3.578 -8,8c0,4.422 3.586,8 8,8l75.262,0c4.879,0 8.848,3.969 8.848,8.851l0,223.243c0,4.882 -3.969,8.851 -8.848,8.851l-75.262,0c-4.414,0 -8,3.578 -8,8c0,4.422 3.586,8 8,8l75.262,0c13.699,0 24.848,-11.148 24.848,-24.851l0,-9.336c37.344,6.937 136.551,18.507 225.117,18.5c41.41,0 80.48,-2.532 109.719,-9.258c73.406,-16.891 280.781,-185.727 269.234,-294.938c-2.305,-21.867 -10.062,-34.586 -23.039,-37.789Z" style="fill:#00aac5;fill-rule:nonzero;stroke:#00aac5;stroke-width:5px;"/><path d="M67.793,679.801l0,-18.828c0,-4.422 -3.586,-8 -8,-8c-4.422,0 -8,3.578 -8,8l0,18.828c0,4.422 3.578,8 8,8c4.414,0 8,-3.578 8,-8Z" style="fill-rule:nonzero;stroke:#00aac5;stroke-width:5px;"/><path d="M271.75,320.543c-6.789,-2.359 -10.336,-7.898 -10.336,-12.156c0,-3.125 1.898,-5.367 5.68,-6.687c0.144,-0.047 3.722,-0.923 9.996,3.429c3.637,2.516 8.629,1.61 11.133,-2.023c2.515,-3.633 1.609,-8.609 -2.02,-11.133c-4.695,-3.25 -8.922,-4.867 -12.539,-5.671l0,-13.938c0,-4.423 -3.578,-8 -8,-8c-4.414,0 -8,3.577 -8,8l0,16.086c-7.734,4.124 -12.25,11.312 -12.25,19.937c0,11.742 8.672,22.961 21.082,27.266c6.324,2.195 9.129,7.523 9.109,11.828c-0.011,2.429 -0.917,6.805 -7.101,8.898c-0.051,0.016 -5.352,1.813 -9.668,-0.992c-3.703,-2.414 -8.656,-1.382 -11.074,2.32c-2.41,3.696 -1.371,8.657 2.328,11.07c3.535,2.313 7.121,3.415 10.418,3.899l0,8.649c0,4.422 3.586,8 8,8c4.418,0 8,-3.578 8,-8l0,-10.985c9.316,-4.202 15.054,-12.679 15.097,-22.789c0.055,-12.015 -7.925,-22.867 -19.855,-27.008" style="fill:#00aac5;fill-rule:nonzero;stroke:#00aac5;stroke-width:1px;stroke-linecap:butt;stroke-miterlimit:2;"/><path d="M271.75,320.543c-6.789,-2.359 -10.336,-7.898 -10.336,-12.156c0,-3.125 1.898,-5.367 5.68,-6.687c0.144,-0.047 3.722,-0.923 9.996,3.429c3.637,2.516 8.629,1.61 11.133,-2.023c2.515,-3.633 1.609,-8.609 -2.02,-11.133c-4.695,-3.25 -8.922,-4.867 -12.539,-5.671l0,-13.938c0,-4.423 -3.578,-8 -8,-8c-4.414,0 -8,3.577 -8,8l0,16.086c-7.734,4.124 -12.25,11.312 -12.25,19.937c0,11.742 8.672,22.961 21.082,27.266c6.324,2.195 9.129,7.523 9.109,11.828c-0.011,2.429 -0.917,6.805 -7.101,8.898c-0.051,0.016 -5.352,1.813 -9.668,-0.992c-3.703,-2.414 -8.656,-1.382 -11.074,2.32c-2.41,3.696 -1.371,8.657 2.328,11.07c3.535,2.313 7.121,3.415 10.418,3.899l0,8.649c0,4.422 3.586,8 8,8c4.418,0 8,-3.578 8,-8l0,-10.985c9.316,-4.202 15.054,-12.679 15.097,-22.789c0.055,-12.015 -7.925,-22.867 -19.855,-27.008Z" style="fill:none;fill-rule:nonzero;stroke:#00aac5;stroke-width:5px;"/><path d="M699.656,248.317c-13.68,22.008 -39.063,39.773 -75.438,52.821c-29.539,10.601 -60.539,8.515 -93.14,8.46c0,0 -136.633,6.617 -139.512,6.828c-24.164,1.781 -40.797,-0.124 -43.465,-15.039c0.153,-9.375 3.657,-17.539 10.422,-24.28c15.938,-15.892 35.852,-16.352 57.141,-18.907c121.531,-14.562 126.914,-19.821 129.015,-21.875c17.055,-16.969 13.891,-43.751 1.141,-62.211c-14.226,-20.899 -45.391,-42.438 -88.836,-44.907c-67.57,-3.835 -116.797,11.798 -146.426,46.454c-1.871,2.039 -4.859,5.734 -8.672,10.484c-13.847,17.211 -42.644,53.031 -65.957,64.094c-8.257,3.922 -18.269,1.781 -23.312,-4.962c-3.344,-4.46 -6.344,-12.475 6.105,-30.506l43.93,-63.681c13.508,-19.578 29.106,-36.476 46.352,-50.21c34.949,-27.821 60.269,-35.43 108.39,-32.727c4.344,0.242 8.196,-3.117 8.442,-7.531c0.254,-4.407 -3.117,-8.187 -7.535,-8.438c-33.879,-1.945 -57.977,1.149 -81.172,11.844c13.582,-25.273 42.554,-38.5 94.925,-44.289c2.024,-0.101 202.727,-11.055 251.454,36.047c29.359,28.398 66.5,20.187 85.187,13.257l0,162.337c-18.078,-2.306 -55.922,-4.188 -69.039,16.937Zm-430.633,-2.086c17.961,-16.047 34.731,-36.875 45.332,-50.062c3.52,-4.383 6.266,-7.805 8.176,-9.898c25.926,-30.306 71.699,-44.376 133.078,-41.087c36.242,1.938 64.414,19.469 77.008,37.977c8.203,11.867 11.82,29.913 1.516,41.054c-9.125,3.383 -65.172,11.414 -119.434,17.977c-15.785,1.915 -45.617,1.797 -67.473,23.579c-4.836,4.819 -8.492,10.164 -11.015,15.96c-14.809,-21.305 -39.375,-35.328 -67.188,-35.5Zm-0.515,148.844c-36.633,0 -66.43,-29.804 -66.43,-66.437c0,-36.633 29.797,-66.438 66.43,-66.438c36.636,0 66.437,29.805 66.437,66.438c0,36.633 -29.801,66.437 -66.437,66.437Zm585.578,-117.508l-58.516,0c-5.672,-0.016 -11.594,-3.617 -11.586,-7.852l0,-242.179c0.016,-4.719 6.305,-7.781 11.235,-7.781l0.046,0l59.664,0.195l0.024,0c4.406,0 7.984,-3.563 8,-7.977c0.015,-4.414 -3.555,-8.008 -7.977,-8.023l-59.664,-0.195l-0.093,0c-14.891,0 -26.493,10.867 -26.524,23.734l0,24.273c-11.953,5.274 -47.859,17.852 -74.062,-7.476c-53.727,-51.922 -254.961,-41.009 -263.914,-40.484c-48.458,5.351 -99.993,17.882 -114.821,70.296c-0.191,0.688 -0.144,1.367 -0.156,2.047c-5.438,3.626 -10.957,7.649 -16.703,12.219c-18.481,14.719 -35.156,32.765 -49.559,53.641l-43.929,63.671c-13.551,19.633 -15.485,36.188 -5.75,49.188c3.929,5.258 9.285,8.976 15.238,11.156c-17.692,15.133 -28.961,37.57 -28.961,62.618c0,45.452 36.98,82.437 82.43,82.437c45.453,0 82.437,-36.985 82.437,-82.437c0,-0.157 -0.023,-0.313 -0.027,-0.469c8.605,3.867 18.761,4.859 27.633,4.859c5.441,0 152.894,-7.438 152.894,-7.438c32.563,0.125 65.984,2.157 98.18,-9.39c39.851,-14.297 67.984,-34.29 83.625,-59.438c7.89,-12.734 38.976,-11.453 55.445,-9.234l0,22.141c-0.039,13.133 12.234,23.851 26.828,23.898l58.539,0c4.406,0 7.985,-3.562 8,-7.977c0.016,-4.414 -3.554,-8.007 -7.976,-8.023Z" style="fill:#00aac5;fill-rule:nonzero;stroke:#00aac5;stroke-width:5px;"/></g></svg>