<?xml version="1.0" encoding="UTF-8" standalone="no"?><!DOCTYPE svg PUBLIC "-//W3C//DTD SVG 1.1//EN" "http://www.w3.org/Graphics/SVG/1.1/DTD/svg11.dtd"><svg width="100%" height="100%" viewBox="0 0 48 46" version="1.1" xmlns="http://www.w3.org/2000/svg" xmlns:xlink="http://www.w3.org/1999/xlink" xml:space="preserve" xmlns:serif="http://www.serif.com/" style="fill-rule:evenodd;clip-rule:evenodd;stroke-linecap:round;stroke-linejoin:round;stroke-miterlimit:10;"><g id="Layer-1" serif:id="Layer 1"><rect x="16.75" y="33.75" width="30" height="11" style="fill:none;stroke:#00aac5;stroke-width:1.5px;"/><path d="M6.75,44.25l0,-18.5l24,0l0,8" style="fill:none;fill-rule:nonzero;stroke:#00aac5;stroke-width:1.5px;"/><path d="M30.75,27.25l0,-26.5l-30,0l0,41" style="fill:none;fill-rule:nonzero;stroke:#00aac5;stroke-width:1.5px;"/><rect x="34.75" y="12.75" width="12" height="12" style="fill:none;stroke:#00aac5;stroke-width:1.5px;"/><path d="M40.75,15.75l0,6" style="fill:none;fill-rule:nonzero;stroke:#00aac5;stroke-width:1.5px;stroke-linecap:butt;"/><path d="M43.75,18.75l-6,0" style="fill:none;fill-rule:nonzero;stroke:#00aac5;stroke-width:1.5px;stroke-linecap:butt;"/><path d="M40.75,23.75l0,10" style="fill:none;fill-rule:nonzero;stroke:#00aac5;stroke-width:1.5px;stroke-linecap:butt;"/><path d="M22.75,44.75l0,-6l18,0l0,6" style="fill:none;fill-rule:nonzero;stroke:#00aac5;stroke-width:1.5px;"/><path d="M31.75,38.75l0,6" style="fill:none;fill-rule:nonzero;stroke:#00aac5;stroke-width:1.5px;"/><path d="M24.75,19.75l0,2" style="fill:none;fill-rule:nonzero;stroke:#00aac5;stroke-width:1.5px;stroke-linecap:butt;"/><path d="M18.75,19.75l0,2" style="fill:none;fill-rule:nonzero;stroke:#00aac5;stroke-width:1.5px;stroke-linecap:butt;"/><path d="M12.75,19.75l0,2" style="fill:none;fill-rule:nonzero;stroke:#00aac5;stroke-width:1.5px;stroke-linecap:butt;"/><path d="M6.75,19.75l0,2" style="fill:none;fill-rule:nonzero;stroke:#00aac5;stroke-width:1.5px;stroke-linecap:butt;"/><path d="M24.75,14.75l0,2" style="fill:none;fill-rule:nonzero;stroke:#00aac5;stroke-width:1.5px;stroke-linecap:butt;"/><path d="M18.75,14.75l0,2" style="fill:none;fill-rule:nonzero;stroke:#00aac5;stroke-width:1.5px;stroke-linecap:butt;"/><path d="M12.75,14.75l0,2" style="fill:none;fill-rule:nonzero;stroke:#00aac5;stroke-width:1.5px;stroke-linecap:butt;"/><path d="M6.75,14.75l0,2" style="fill:none;fill-rule:nonzero;stroke:#00aac5;stroke-width:1.5px;stroke-linecap:butt;"/><path d="M24.75,9.75l0,2" style="fill:none;fill-rule:nonzero;stroke:#00aac5;stroke-width:1.5px;stroke-linecap:butt;"/><path d="M18.75,9.75l0,2" style="fill:none;fill-rule:nonzero;stroke:#00aac5;stroke-width:1.5px;stroke-linecap:butt;"/><path d="M12.75,9.75l0,2" style="fill:none;fill-rule:nonzero;stroke:#00aac5;stroke-width:1.5px;stroke-linecap:butt;"/><path d="M6.75,9.75l0,2" style="fill:none;fill-rule:nonzero;stroke:#00aac5;stroke-width:1.5px;stroke-linecap:butt;"/><path d="M24.75,4.75l0,2" style="fill:none;fill-rule:nonzero;stroke:#00aac5;stroke-width:1.5px;stroke-linecap:butt;"/><path d="M18.75,4.75l0,2" style="fill:none;fill-rule:nonzero;stroke:#00aac5;stroke-width:1.5px;stroke-linecap:butt;"/><path d="M12.75,4.75l0,2" style="fill:none;fill-rule:nonzero;stroke:#00aac5;stroke-width:1.5px;stroke-linecap:butt;"/><path d="M6.75,4.75l0,2" style="fill:none;fill-rule:nonzero;stroke:#00aac5;stroke-width:1.5px;stroke-linecap:butt;"/><path d="M24.75,28.75l0,2" style="fill:none;fill-rule:nonzero;stroke:#00aac5;stroke-width:1.5px;stroke-linecap:butt;"/><path d="M18.75,28.75l0,2" style="fill:none;fill-rule:nonzero;stroke:#00aac5;stroke-width:1.5px;stroke-linecap:butt;"/><path d="M12.75,28.75l0,2" style="fill:none;fill-rule:nonzero;stroke:#00aac5;stroke-width:1.5px;stroke-linecap:butt;"/><path d="M12.75,33.75l0,2" style="fill:none;fill-rule:nonzero;stroke:#00aac5;stroke-width:1.5px;stroke-linecap:butt;"/><path d="M12.75,38.75l0,2" style="fill:none;fill-rule:nonzero;stroke:#00aac5;stroke-width:1.5px;stroke-linecap:butt;"/></g></svg>