<?xml version="1.0" encoding="UTF-8" standalone="no"?><!DOCTYPE svg PUBLIC "-//W3C//DTD SVG 1.1//EN" "http://www.w3.org/Graphics/SVG/1.1/DTD/svg11.dtd"><svg width="100%" height="100%" viewBox="0 0 48 41" version="1.1" xmlns="http://www.w3.org/2000/svg" xmlns:xlink="http://www.w3.org/1999/xlink" xml:space="preserve" xmlns:serif="http://www.serif.com/" style="fill-rule:evenodd;clip-rule:evenodd;stroke-miterlimit:10;"><g id="Layer-1" serif:id="Layer 1"><path d="M17.75,8.75c0,2.761 -2.238,5 -5,5" style="fill:none;fill-rule:nonzero;stroke:#00aac5;stroke-width:1.5px;"/><path d="M13.75,36.094l-9,0c-2.209,0 -4,-1.791 -4,-4l0,-9.842c0,-2.102 1.315,-3.98 3.291,-4.699l5.709,-1.712l0,-3.114c-1.208,-0.912 -2,-2.346 -2,-3.977l0,-2.785c0,-2.611 1.909,-4.943 4.509,-5.191c2.982,-0.285 5.491,2.052 5.491,4.976l0,3c0,1.631 -0.792,3.065 -2,3.977l0,3.114l5.73,1.745c1.965,0.725 3.27,2.597 3.27,4.691" style="fill:none;fill-rule:nonzero;stroke:#00aac5;stroke-width:1.5px;stroke-linecap:round;stroke-linejoin:round;"/><path d="M13.75,27.094l4,4l-12,0" style="fill:none;fill-rule:nonzero;stroke:#00aac5;stroke-width:1.5px;stroke-linecap:round;stroke-linejoin:round;"/><path d="M4.75,36.094l0,4" style="fill:none;fill-rule:nonzero;stroke:#00aac5;stroke-width:1.5px;stroke-linecap:round;stroke-linejoin:round;"/><path d="M27.343,36.444l3.047,-10.059l-0.176,-0.262l-10.966,-0.029l-4.153,13.843l0.158,0.157l8.795,0" style="fill:none;fill-rule:nonzero;stroke:#00aac5;stroke-width:1.5px;"/><path d="M28.15,40.094l-4,0l0,-2.925l0.8,-1.075l4.8,0l0,1.6l-1.6,2.4Z" style="fill:none;fill-rule:nonzero;stroke:#00aac5;stroke-width:1.5px;"/><path d="M29.75,8.75c0,2.761 2.238,5 5,5" style="fill:none;fill-rule:nonzero;stroke:#00aac5;stroke-width:1.5px;"/><path d="M46.75,40.094l0,-17.842c0,-2.102 -1.315,-3.98 -3.291,-4.699l-5.709,-1.712l0,-3.114c1.208,-0.912 2,-2.346 2,-3.977l0,-2.785c0,-2.611 -1.909,-4.943 -4.509,-5.191c-2.982,-0.285 -5.491,2.052 -5.491,4.976l0,3c0,1.631 0.792,3.065 2,3.977l0,3.114l-5.269,1.691" style="fill:none;fill-rule:nonzero;stroke:#00aac5;stroke-width:1.5px;stroke-linecap:round;stroke-linejoin:round;"/><path d="M41.75,28.094l0,12" style="fill:none;fill-rule:nonzero;stroke:#00aac5;stroke-width:1.5px;stroke-linecap:round;stroke-linejoin:round;"/></g></svg>