<?xml version="1.0" encoding="UTF-8" standalone="no"?><!DOCTYPE svg PUBLIC "-//W3C//DTD SVG 1.1//EN" "http://www.w3.org/Graphics/SVG/1.1/DTD/svg11.dtd"><svg width="100%" height="100%" viewBox="0 0 561 662" version="1.1" xmlns="http://www.w3.org/2000/svg" xmlns:xlink="http://www.w3.org/1999/xlink" xml:space="preserve" xmlns:serif="http://www.serif.com/" style="fill-rule:evenodd;clip-rule:evenodd;stroke-linejoin:round;stroke-miterlimit:2;"><rect id="Artboard1" x="0" y="0" width="560.029" height="661.257" style="fill:none;"/><clipPath id="_clip1"><rect x="0" y="0" width="560.029" height="661.257"/></clipPath><g clip-path="url(#_clip1)"><path d="M484.856,325.747l76.173,0.225c-0.365,-0.964 -0.825,-1.949 -1.415,-2.946c-6.481,-11.217 -16.434,-23.794 -26.965,-37.111c-21.17,-26.73 -43.036,-54.392 -40.036,-76.248c6.428,-46.925 -6.536,-91.096 -37.476,-127.757c-40.047,-47.45 -105.913,-77.63 -177.115,-81.401l-0.278,97.674c-0.032,10.424 0.782,18.952 2.4,25.338c0.792,3.074 3.16,10.22 6.481,9.695c0.665,-0.075 1.414,-0.31 2.282,-0.685c6.075,-2.722 10.467,-6.311 14.731,-9.793c8.871,-7.231 18.085,-14.613 38.976,-11.377c6.556,1.05 12.567,3.278 17.891,6.642c17.667,11.142 26.323,34.069 21.523,57.028c-4.478,21.416 -19.327,36.061 -39.736,39.168c-20.934,3.225 -30.083,-4.307 -38.879,-11.592c-4.242,-3.503 -8.624,-7.135 -14.741,-9.888c-2.679,-1.232 -3.718,-0.611 -4.125,-0.365c-1.243,0.74 -5.432,4.586 -6.782,22.863c-0.257,3.535 -0.385,7.446 -0.407,11.774l-0.3,98.114l79.001,0.257c22.605,0.064 36.586,3.482 42.736,10.477c2.807,3.225 4.028,7.178 3.493,11.41c-0.258,1.854 -0.793,3.696 -1.64,5.528c-3.374,7.457 -7.67,12.664 -11.463,17.249c-6.707,8.132 -11.56,14.003 -9.128,29.933c3.268,21.567 22.488,31.262 40.079,31.326l0.15,0c17.538,0 36.715,-9.599 40.133,-31.079c2.517,-15.92 -2.304,-21.813 -8.967,-29.987l-3.054,-3.814c-2.496,-3.214 -5.71,-7.671 -8.335,-13.542c-3.085,-6.942 -1.393,-12.02 0.6,-15.052c5.4,-8.314 18.941,-12.417 44.193,-12.064" style="fill:#28b573;"/><path d="M105.355,661.766l159.32,0l0.3,-98.392c0.01,-4.8 -0.172,-8.989 -0.472,-12.803c-0.45,-6.214 -1.296,-11.249 -2.475,-14.956l-1.832,-4.36c-1.757,-3.054 -3.203,-3.611 -6.331,-2.229c-6.107,2.732 -10.521,6.332 -14.785,9.803c-7.231,5.903 -14.72,12.01 -28.605,12.192c-3.128,0.225 -6.492,-0.204 -10.37,-0.814c-9.739,-1.554 -18.127,-5.646 -24.941,-12.16c-14.249,-13.638 -19.499,-36.576 -13.017,-57.092c5.86,-18.523 19.809,-30.769 38.279,-33.586c20.945,-3.257 30.083,4.338 38.879,11.613c4.264,3.503 8.635,7.124 14.742,9.899c2.742,1.221 3.814,0.557 4.199,0.289c1.65,-1.06 7.018,-6.685 7.114,-34.583l0.3,-98.135l-79.011,-0.235c-24.716,-0.075 -38.74,-3.997 -44.086,-12.321c-1.961,-3.053 -3.632,-8.142 -0.504,-15.074c2.689,-5.924 5.914,-10.327 8.4,-13.488l4.114,-5.046c5.153,-6.299 8.538,-11.099 8.72,-20.248c0.065,-2.497 -0.139,-5.282 -0.621,-8.421c-3.278,-21.566 -22.498,-31.283 -40.09,-31.326l-0.15,0c-17.538,0 -36.715,9.588 -40.122,31.08c-0.503,3.139 -0.707,5.924 -0.664,8.431c0.086,6.61 2.068,10.703 3.996,13.831c1.661,2.689 3.632,5.11 5.678,7.66c3.75,4.639 7.971,9.91 11.325,17.409c3.106,6.954 1.403,12.021 -0.579,15.064c-5.357,8.227 -19.166,12.063 -43.475,12.074c-0.247,0 -0.482,-0.011 -0.729,-0.011l-47.032,-0.139c13.285,45.242 38.922,76.429 63.756,106.641c44.054,53.589 85.375,105.024 30.769,219.433" style="fill:#faad1d;fill-rule:nonzero;"/><path d="M272.878,532.159c1.425,4.575 2.442,10.467 2.957,17.538c0.343,4.082 0.525,8.56 0.503,13.713l-0.3,98.36l72.691,0c9.246,-41.739 22.798,-71.491 44.879,-98.778c12.363,-15.245 38.418,-15.288 63.605,-15.32c12.16,-0.021 23.645,-0.043 32.794,-1.736c12.738,-2.357 21.641,-7.456 26.473,-15.127c8.989,-14.281 3.225,-35.558 -0.225,-48.275c-1.564,-5.828 -2.518,-9.353 -2.218,-12.117c0.632,-5.913 4.575,-9.792 7.735,-12.92c5.046,-4.95 7.436,-7.296 -1.821,-17.452c-2.946,-0.429 -10.435,-0.525 -13.06,-0.557c-4.242,-0.065 -7.295,-0.097 -8.624,-3.921l-1.007,-2.882l3.482,-4.714l3.525,-0.429c7.424,-1.028 15.866,-2.892 17.58,-3.932c12.889,-9.685 10.703,-13.006 4.875,-21.866c-4.789,-7.296 -11.367,-17.281 -6.942,-32.097c1.853,-6.225 9.128,-10.403 18.352,-15.695c8.046,-4.618 17.645,-10.125 21.77,-16.606l-75.08,-0.236l-0.664,0c-27.341,0 -32.891,5.271 -33.962,6.9c-0.268,0.407 -0.954,1.478 0.278,4.231c2.111,4.725 4.661,8.303 6.9,11.196l2.871,3.578c7.242,8.871 14.72,18.02 11.389,38.976c-4.447,28.112 -28.98,40.668 -51.35,40.668l-0.182,0c-22.423,-0.064 -47,-12.76 -51.307,-40.979c-3.182,-20.966 4.328,-30.073 11.614,-38.89c3.492,-4.242 7.124,-8.635 9.877,-14.741c0.397,-0.836 0.632,-1.586 0.707,-2.261c0.129,-0.975 -0.075,-1.661 -0.76,-2.432c-1.725,-1.961 -8.517,-6.546 -34.219,-6.632l-78.99,-0.235l-0.3,98.146c-0.064,24.748 -3.996,38.761 -12.331,44.117c-3.011,1.94 -8.121,3.643 -15.053,0.483c-7.478,-3.397 -12.674,-7.693 -17.27,-11.485c-8.11,-6.707 -14.002,-11.56 -29.944,-9.139c-14.002,2.143 -24.608,11.528 -29.108,25.755c-5.132,16.22 -1.018,34.915 9.996,45.457c5.11,4.896 11.463,7.96 18.877,9.139c3.106,0.493 5.796,0.611 8.442,0.686c9.899,-0.14 14.774,-4.114 21.534,-9.621c4.628,-3.76 9.845,-8.035 17.366,-11.388c8.41,-3.761 16.167,-1.115 20.816,6.942c0,0 2.057,4.103 2.829,6.578" style="fill:#056db6;fill-rule:nonzero;"/><path d="M278.748,182.568c2.978,-1.779 7.906,-3.246 14.634,-0.236c7.478,3.396 12.674,7.703 17.27,11.485c8.11,6.706 13.981,11.527 29.944,9.138c15.492,-2.367 26.827,-13.681 30.298,-30.244c3.771,-18.052 -3.01,-36.597 -16.467,-45.103c-4.006,-2.529 -8.57,-4.211 -13.595,-5.003c-15.92,-2.518 -21.834,2.282 -29.998,8.945c-4.606,3.771 -9.824,8.046 -17.334,11.389c-1.939,0.846 -3.75,1.35 -5.528,1.564c-5.132,0.6 -14.463,-0.879 -18.866,-18.192c-1.875,-7.403 -2.764,-16.616 -2.722,-28.154l0.279,-98.136l-5.839,-0.021c-60.627,0.504 -118.673,20.302 -167.772,57.263l-0.043,0.022c-104.67,77.79 -94.418,209.919 -88.772,248.562c0.857,5.903 2.036,11.978 3.579,18.459l50.085,0.15l0.664,0c27.341,0 32.912,-5.271 33.962,-6.888c0.257,-0.407 0.964,-1.479 -0.257,-4.221c-2.764,-6.161 -6.353,-10.607 -9.814,-14.913c-2.357,-2.936 -4.596,-5.743 -6.503,-8.828c-3.835,-6.225 -5.592,-12.289 -5.678,-19.66c-0.043,-3.074 0.203,-6.503 0.814,-10.359c4.436,-28.123 28.98,-40.669 51.339,-40.669l0.193,0c22.423,0.065 46.989,12.749 51.306,40.979c0.59,3.857 0.793,7.285 0.74,10.371c-0.257,12.738 -5.261,19.863 -11.282,27.212l-3.996,4.896c-2.11,2.668 -4.789,6.332 -6.963,11.142c-1.232,2.743 -0.558,3.825 -0.29,4.221c1.05,1.65 6.664,7.017 34.573,7.114l78.99,0.225l0.289,-98.135c0.021,-4.628 0.15,-8.807 0.45,-12.578c1.253,-17.216 5.271,-27.619 12.31,-31.797" style="fill:#00aac6;fill-rule:nonzero;"/></g></svg>