<?xml version="1.0" encoding="UTF-8" standalone="no"?><!DOCTYPE svg PUBLIC "-//W3C//DTD SVG 1.1//EN" "http://www.w3.org/Graphics/SVG/1.1/DTD/svg11.dtd"><svg width="100%" height="100%" viewBox="0 0 399 84" version="1.1" xmlns="http://www.w3.org/2000/svg" xmlns:xlink="http://www.w3.org/1999/xlink" xml:space="preserve" xmlns:serif="http://www.serif.com/" style="fill-rule:evenodd;clip-rule:evenodd;stroke-linejoin:round;stroke-miterlimit:2;"><g id="Layer-1" serif:id="Layer 1"><path d="M228.671,36.075c-0.001,0 -0.005,0.001 -0.007,0.001l0.002,0c0,0 0.002,0 0.005,-0.001" style="fill:#056db6;fill-rule:nonzero;"/><path d="M2.918,74.423c-0.234,-0.001 -0.456,0.042 -0.665,0.127c-0.207,0.085 -0.385,0.203 -0.535,0.352c-0.149,0.147 -0.269,0.322 -0.359,0.517c-0.092,0.198 -0.137,0.413 -0.137,0.647c0,0.363 0.127,0.679 0.377,0.95c0.25,0.27 0.632,0.529 1.145,0.773c0.404,0.192 0.784,0.373 1.142,0.542c0.357,0.172 0.68,0.362 0.968,0.574c0.742,0.576 1.116,1.357 1.116,2.346c-0.001,0.788 -0.251,1.42 -0.751,1.899c-0.497,0.479 -1.178,0.717 -2.037,0.717l-0.686,0c-0.383,0 -0.725,-0.046 -1.027,-0.143c-0.302,-0.095 -0.56,-0.214 -0.773,-0.358c-0.213,-0.142 -0.377,-0.294 -0.494,-0.454c-0.116,-0.159 -0.175,-0.303 -0.175,-0.429c0,-0.054 0.032,-0.097 0.096,-0.128l0.669,-0.351c0.022,-0.01 0.048,-0.015 0.079,-0.015c0.033,0 0.057,0.008 0.072,0.024c0.016,0.015 0.035,0.034 0.056,0.055c0.107,0.118 0.212,0.228 0.318,0.335c0.107,0.106 0.216,0.201 0.327,0.286c0.112,0.086 0.236,0.152 0.375,0.2c0.138,0.047 0.296,0.071 0.477,0.071l0.686,0c0.233,0 0.456,-0.042 0.669,-0.128c0.212,-0.085 0.395,-0.204 0.549,-0.358c0.154,-0.154 0.275,-0.335 0.367,-0.541c0.089,-0.207 0.135,-0.434 0.135,-0.677c0,-0.266 -0.051,-0.496 -0.151,-0.693c-0.102,-0.197 -0.246,-0.374 -0.431,-0.534c-0.186,-0.159 -0.411,-0.309 -0.677,-0.453c-0.266,-0.144 -0.569,-0.296 -0.907,-0.454c-0.415,-0.203 -0.781,-0.392 -1.1,-0.575c-0.319,-0.178 -0.587,-0.382 -0.805,-0.603c-0.217,-0.224 -0.383,-0.482 -0.501,-0.774c-0.118,-0.291 -0.175,-0.64 -0.175,-1.044c0,-0.785 0.25,-1.417 0.75,-1.894c0.498,-0.478 1.172,-0.716 2.021,-0.716l0.256,-0.001c0.371,0.001 0.71,0.05 1.019,0.148c0.308,0.099 0.57,0.221 0.788,0.361c0.218,0.141 0.384,0.289 0.502,0.448c0.117,0.159 0.174,0.302 0.174,0.43c0,0.04 -0.036,0.078 -0.11,0.109l-0.669,0.337c-0.023,0.01 -0.049,0.014 -0.08,0.014c-0.043,0.001 -0.081,-0.02 -0.112,-0.064c-0.225,-0.233 -0.443,-0.437 -0.657,-0.613c-0.212,-0.175 -0.501,-0.263 -0.862,-0.263l-0.258,0.001Z" style="fill:#056db6;fill-rule:nonzero;"/><path d="M12.674,76.114c0,-0.233 -0.047,-0.455 -0.137,-0.662c-0.092,-0.207 -0.212,-0.385 -0.361,-0.534c-0.15,-0.15 -0.332,-0.27 -0.546,-0.359c-0.214,-0.09 -0.439,-0.137 -0.674,-0.137l-0.498,0c-0.247,0 -0.472,0.043 -0.676,0.128c-0.202,0.085 -0.381,0.206 -0.537,0.359c-0.156,0.154 -0.275,0.336 -0.362,0.543c-0.086,0.207 -0.127,0.429 -0.127,0.662l0,5.138c0,0.246 0.044,0.472 0.136,0.68c0.09,0.207 0.211,0.385 0.362,0.534c0.148,0.148 0.328,0.268 0.537,0.359c0.209,0.09 0.43,0.135 0.667,0.135l0.498,0c0.235,0 0.456,-0.045 0.665,-0.135c0.209,-0.091 0.391,-0.214 0.547,-0.368c0.155,-0.154 0.277,-0.335 0.369,-0.543c0.09,-0.207 0.137,-0.426 0.137,-0.662l0,-5.138Zm1.066,5.142c0,0.786 -0.252,1.417 -0.755,1.896c-0.505,0.477 -1.182,0.715 -2.031,0.715l-0.494,0c-0.85,0 -1.525,-0.238 -2.024,-0.715c-0.498,-0.479 -0.748,-1.11 -0.748,-1.896l0,-5.13c0,-0.784 0.25,-1.417 0.748,-1.894c0.499,-0.479 1.174,-0.717 2.024,-0.717l0.494,0c0.424,0 0.805,0.064 1.146,0.192c0.341,0.126 0.633,0.304 0.876,0.532c0.244,0.23 0.432,0.504 0.566,0.829c0.132,0.324 0.198,0.676 0.198,1.058l0,5.13Z" style="fill:#056db6;fill-rule:nonzero;"/><path d="M22.088,81.256c0,0.786 -0.252,1.417 -0.755,1.896c-0.505,0.477 -1.182,0.716 -2.031,0.716l-0.494,0c-0.851,0 -1.525,-0.239 -2.024,-0.716c-0.498,-0.479 -0.749,-1.11 -0.749,-1.896l0,-7.406c0,-0.107 0.052,-0.161 0.157,-0.161l0.754,0c0.104,0 0.158,0.054 0.158,0.161l0,7.406c0,0.244 0.045,0.47 0.136,0.677c0.09,0.206 0.211,0.384 0.361,0.533c0.149,0.15 0.329,0.269 0.538,0.359c0.209,0.09 0.43,0.135 0.667,0.135l0.498,0c0.235,0 0.456,-0.045 0.665,-0.135c0.209,-0.09 0.391,-0.212 0.546,-0.366c0.156,-0.154 0.279,-0.335 0.37,-0.543c0.09,-0.205 0.137,-0.427 0.137,-0.66l0,-7.406c0,-0.107 0.051,-0.161 0.157,-0.161l0.752,0c0.105,0 0.157,0.054 0.157,0.161l0,7.406Z" style="fill:#056db6;fill-rule:nonzero;"/><path d="M29.273,74.44c0,0.105 -0.053,0.159 -0.161,0.159l-1.927,0c-0.105,0 -0.159,0.054 -0.159,0.159l0,8.792c0,0.107 -0.053,0.159 -0.159,0.159l-0.748,0c-0.108,0 -0.159,-0.052 -0.159,-0.159l0,-8.792c0,-0.105 -0.054,-0.159 -0.161,-0.159l-1.927,0c-0.105,0 -0.16,-0.054 -0.16,-0.159l0,-0.589c0,-0.108 0.055,-0.161 0.16,-0.161l5.24,0c0.107,0 0.161,0.053 0.161,0.161l0,0.589Z" style="fill:#056db6;fill-rule:nonzero;"/><path d="M37.459,83.55c0,0.107 -0.052,0.159 -0.157,0.159l-0.754,0c-0.103,0 -0.155,-0.052 -0.155,-0.159l0,-4.316c0,-0.107 -0.054,-0.16 -0.161,-0.16l-3.837,0c-0.107,0 -0.161,0.053 -0.161,0.16l0,4.316c0,0.107 -0.053,0.159 -0.159,0.159l-0.748,0c-0.107,0 -0.159,-0.052 -0.159,-0.159l0,-9.699c0,-0.108 0.052,-0.161 0.159,-0.161l0.748,0c0.106,0 0.159,0.053 0.159,0.161l0,4.156c0,0.106 0.054,0.159 0.161,0.159l3.837,0c0.107,0 0.161,-0.053 0.161,-0.159l0,-4.156c0,-0.108 0.052,-0.161 0.155,-0.161l0.754,0c0.105,0 0.157,0.053 0.157,0.161l0,9.699Z" style="fill:#056db6;fill-rule:nonzero;"/><path d="M45.741,76.095c-0.01,-0.031 -0.029,-0.098 -0.055,-0.199c-0.026,-0.102 -0.066,-0.242 -0.119,-0.421l-0.064,0c-0.032,0.126 -0.064,0.24 -0.095,0.342c-0.033,0.1 -0.059,0.193 -0.08,0.278l-1.132,4.094c0,0.021 -0.002,0.035 -0.007,0.04c-0.005,0.005 -0.009,0.012 -0.009,0.023c0,0.097 0.059,0.143 0.177,0.143l2.293,0c0.116,0 0.175,-0.046 0.175,-0.143c0,-0.011 -0.003,-0.021 -0.009,-0.031c-0.005,-0.011 -0.007,-0.021 -0.007,-0.032l-1.068,-4.094Zm3.187,7.406c0,0.022 0.002,0.035 0.007,0.04c0.005,0.007 0.009,0.014 0.009,0.024c0,0.097 -0.059,0.144 -0.177,0.144l-0.812,0c-0.095,0 -0.149,-0.037 -0.159,-0.111l-0.62,-2.199c-0.011,-0.064 -0.064,-0.095 -0.159,-0.095l-2.996,0c-0.094,0 -0.148,0.031 -0.158,0.095l-0.623,2.199c-0.01,0.074 -0.062,0.111 -0.159,0.111l-0.812,0c-0.116,0 -0.174,-0.047 -0.174,-0.144c0,-0.01 0.001,-0.017 0.008,-0.024c0.005,-0.005 0.007,-0.018 0.007,-0.04l2.947,-9.699c0.033,-0.075 0.084,-0.113 0.159,-0.113l0.605,0c0.074,0 0.128,0.038 0.16,0.113l2.947,9.699Z" style="fill:#056db6;fill-rule:nonzero;"/><path d="M56.159,74.44c0,0.105 -0.053,0.159 -0.159,0.159l-4.158,0c-0.106,0 -0.159,0.054 -0.159,0.159l0,3.249c0,0.106 0.053,0.159 0.159,0.159l3.41,0c0.105,0 0.159,0.054 0.159,0.159l0,0.59c0,0.107 -0.054,0.159 -0.159,0.159l-3.41,0c-0.106,0 -0.159,0.053 -0.159,0.16l0,4.316c0,0.107 -0.054,0.159 -0.159,0.159l-0.749,0c-0.107,0 -0.158,-0.052 -0.158,-0.159l0,-9.699c0,-0.108 0.051,-0.161 0.158,-0.161l5.225,0c0.106,0 0.159,0.053 0.159,0.161l0,0.589Z" style="fill:#056db6;fill-rule:nonzero;"/><path d="M63.023,76.287c0,-0.233 -0.045,-0.455 -0.135,-0.662c-0.091,-0.207 -0.212,-0.384 -0.366,-0.534c-0.154,-0.149 -0.337,-0.268 -0.55,-0.358c-0.212,-0.09 -0.435,-0.134 -0.669,-0.134l-2.025,0c-0.105,0 -0.158,0.053 -0.158,0.158l0,3.25c0,0.105 0.053,0.159 0.158,0.159l2.024,0c0.488,0 0.898,-0.164 1.226,-0.494c0.33,-0.329 0.494,-0.739 0.494,-1.226l0,-0.159Zm1.068,7.214c0.011,0.023 0.016,0.048 0.016,0.081c0,0.085 -0.054,0.127 -0.159,0.127l-0.861,0c-0.085,-0.032 -0.133,-0.069 -0.143,-0.111l-1.53,-4.428c-0.021,-0.033 -0.064,-0.064 -0.126,-0.097l-2.009,0c-0.105,0 -0.158,0.054 -0.158,0.161l0,4.315c0,0.108 -0.054,0.16 -0.16,0.16l-0.748,0c-0.107,0 -0.159,-0.052 -0.159,-0.16l0,-9.699c0,-0.107 0.052,-0.161 0.159,-0.161l3.09,0c0.86,0 1.54,0.251 2.038,0.75c0.5,0.498 0.75,1.167 0.75,2.007l0,0.174c0,0.277 -0.083,0.571 -0.247,0.886c-0.166,0.312 -0.401,0.601 -0.709,0.867c-0.181,0.149 -0.335,0.244 -0.463,0.287c-0.126,0.042 -0.19,0.106 -0.19,0.19c0,0.012 0.002,0.019 0.007,0.024c0.005,0.006 0.009,0.014 0.009,0.025l1.593,4.602Z" style="fill:#056db6;fill-rule:nonzero;"/><path d="M67.466,83.55c0,0.107 -0.054,0.159 -0.159,0.159l-0.748,0c-0.108,0 -0.159,-0.052 -0.159,-0.159l0,-9.699c0,-0.108 0.051,-0.161 0.159,-0.161l0.748,0c0.105,0 0.159,0.053 0.159,0.161l0,9.699Z" style="fill:#056db6;fill-rule:nonzero;"/><path d="M75.653,82.34c0.064,0.021 0.097,0.064 0.097,0.126c0,0.128 -0.059,0.275 -0.177,0.439c-0.115,0.164 -0.283,0.318 -0.501,0.462c-0.217,0.143 -0.477,0.262 -0.779,0.357c-0.304,0.097 -0.641,0.144 -1.013,0.144l-0.493,0c-0.85,0 -1.522,-0.239 -2.015,-0.716c-0.494,-0.479 -0.741,-1.109 -0.741,-1.896l0,-5.129c0,-0.785 0.247,-1.418 0.741,-1.895c0.493,-0.478 1.165,-0.717 2.015,-0.717l0.493,0c0.361,0 0.697,0.047 1.004,0.142c0.308,0.093 0.571,0.207 0.788,0.344c0.218,0.134 0.388,0.285 0.51,0.447c0.123,0.164 0.183,0.31 0.183,0.438c0,0.051 -0.038,0.095 -0.112,0.126l-0.669,0.335c-0.02,0.01 -0.046,0.016 -0.079,0.016c-0.031,0 -0.069,-0.021 -0.111,-0.064c-0.118,-0.116 -0.231,-0.229 -0.342,-0.334c-0.112,-0.107 -0.227,-0.2 -0.342,-0.28c-0.118,-0.079 -0.242,-0.143 -0.375,-0.19c-0.133,-0.048 -0.284,-0.072 -0.455,-0.072l-0.493,0c-0.245,0 -0.468,0.043 -0.668,0.127c-0.203,0.085 -0.381,0.206 -0.534,0.36c-0.154,0.154 -0.273,0.335 -0.36,0.543c-0.085,0.207 -0.126,0.428 -0.126,0.661l0,5.139c0,0.245 0.045,0.472 0.135,0.679c0.089,0.208 0.209,0.386 0.357,0.534c0.149,0.149 0.327,0.268 0.535,0.36c0.207,0.089 0.426,0.134 0.661,0.134l0.493,0c0.182,0 0.367,-0.036 0.559,-0.11c0.189,-0.074 0.35,-0.171 0.476,-0.287c0.182,-0.171 0.312,-0.308 0.391,-0.415c0.079,-0.105 0.147,-0.159 0.199,-0.159c0.033,0 0.059,0.005 0.079,0.016l0.669,0.335Z" style="fill:#056db6;fill-rule:nonzero;"/><path d="M80.384,76.095c-0.01,-0.031 -0.029,-0.098 -0.055,-0.199c-0.026,-0.102 -0.066,-0.242 -0.119,-0.421l-0.064,0c-0.032,0.126 -0.064,0.24 -0.095,0.342c-0.033,0.1 -0.059,0.193 -0.08,0.278l-1.132,4.094c0,0.021 -0.002,0.035 -0.007,0.04c-0.005,0.005 -0.009,0.012 -0.009,0.023c0,0.097 0.059,0.143 0.177,0.143l2.293,0c0.116,0 0.175,-0.046 0.175,-0.143c0,-0.011 -0.003,-0.021 -0.009,-0.031c-0.005,-0.011 -0.007,-0.021 -0.007,-0.032l-1.068,-4.094Zm3.187,7.406c0,0.022 0.002,0.035 0.007,0.04c0.005,0.007 0.009,0.014 0.009,0.024c0,0.097 -0.059,0.144 -0.177,0.144l-0.812,0c-0.095,0 -0.149,-0.037 -0.159,-0.111l-0.62,-2.199c-0.011,-0.064 -0.064,-0.095 -0.16,-0.095l-2.995,0c-0.094,0 -0.148,0.031 -0.158,0.095l-0.623,2.199c-0.01,0.074 -0.062,0.111 -0.159,0.111l-0.812,0c-0.116,0 -0.174,-0.047 -0.174,-0.144c0,-0.01 0.001,-0.017 0.008,-0.024c0.005,-0.005 0.007,-0.018 0.007,-0.04l2.947,-9.699c0.033,-0.075 0.084,-0.113 0.159,-0.113l0.605,0c0.074,0 0.128,0.038 0.16,0.113l2.947,9.699Z" style="fill:#056db6;fill-rule:nonzero;"/><path d="M91.551,83.55c0,0.107 -0.052,0.159 -0.157,0.159l-0.69,0l-0.14,-0.079l-4.284,-7.852l-0.033,0l0.079,7.772c0,0.107 -0.053,0.159 -0.159,0.159l-0.748,0c-0.107,0 -0.159,-0.052 -0.159,-0.159l0,-9.699c0,-0.108 0.052,-0.161 0.159,-0.161l0.684,0l0.144,0.079l4.3,7.902l0.033,0l-0.095,-7.82c0,-0.108 0.051,-0.161 0.155,-0.161l0.754,0c0.105,0 0.157,0.053 0.157,0.161l0,9.699Z" style="fill:#056db6;fill-rule:nonzero;"/><path d="M99.522,74.423c-0.233,-0.001 -0.455,0.042 -0.664,0.127c-0.207,0.085 -0.385,0.203 -0.536,0.352c-0.148,0.147 -0.269,0.322 -0.359,0.517c-0.092,0.198 -0.137,0.413 -0.137,0.647c0,0.363 0.127,0.679 0.377,0.95c0.251,0.27 0.631,0.529 1.144,0.773c0.405,0.192 0.785,0.373 1.143,0.542c0.358,0.172 0.681,0.362 0.968,0.574c0.743,0.576 1.116,1.357 1.116,2.346c0,0.788 -0.25,1.42 -0.75,1.899c-0.498,0.479 -1.178,0.717 -2.038,0.717l-0.686,0c-0.382,0 -0.724,-0.046 -1.026,-0.143c-0.303,-0.095 -0.56,-0.214 -0.773,-0.358c-0.213,-0.142 -0.377,-0.294 -0.494,-0.454c-0.116,-0.159 -0.175,-0.303 -0.175,-0.429c0,-0.054 0.031,-0.097 0.095,-0.128l0.669,-0.351c0.022,-0.01 0.048,-0.015 0.08,-0.015c0.032,0 0.057,0.008 0.072,0.024c0.016,0.015 0.035,0.034 0.056,0.055c0.106,0.118 0.212,0.228 0.317,0.335c0.108,0.106 0.217,0.201 0.327,0.286c0.112,0.086 0.237,0.152 0.375,0.2c0.138,0.047 0.297,0.071 0.477,0.071l0.686,0c0.234,0 0.457,-0.042 0.669,-0.128c0.213,-0.085 0.396,-0.204 0.55,-0.358c0.154,-0.154 0.275,-0.335 0.366,-0.541c0.09,-0.207 0.135,-0.434 0.135,-0.677c0,-0.266 -0.05,-0.496 -0.151,-0.693c-0.101,-0.197 -0.245,-0.374 -0.43,-0.534c-0.186,-0.159 -0.411,-0.309 -0.677,-0.453c-0.267,-0.144 -0.569,-0.296 -0.908,-0.454c-0.414,-0.203 -0.781,-0.392 -1.099,-0.575c-0.32,-0.178 -0.588,-0.382 -0.805,-0.603c-0.218,-0.224 -0.384,-0.482 -0.501,-0.774c-0.118,-0.291 -0.175,-0.64 -0.175,-1.044c0,-0.785 0.249,-1.417 0.748,-1.894c0.5,-0.478 1.174,-0.716 2.023,-0.716l0.255,-0.001c0.372,0.001 0.711,0.05 1.02,0.148c0.308,0.099 0.57,0.221 0.788,0.361c0.218,0.141 0.384,0.289 0.501,0.448c0.118,0.159 0.175,0.302 0.175,0.43c0,0.04 -0.036,0.078 -0.111,0.109l-0.668,0.337c-0.023,0.01 -0.049,0.014 -0.08,0.014c-0.043,0.001 -0.081,-0.02 -0.112,-0.064c-0.225,-0.233 -0.443,-0.437 -0.657,-0.613c-0.213,-0.175 -0.501,-0.263 -0.863,-0.263l-0.257,0.001Z" style="fill:#056db6;fill-rule:nonzero;"/><path d="M109.278,76.114c0,-0.233 -0.046,-0.455 -0.136,-0.662c-0.092,-0.207 -0.213,-0.385 -0.362,-0.534c-0.15,-0.15 -0.332,-0.27 -0.546,-0.359c-0.214,-0.09 -0.439,-0.137 -0.674,-0.137l-0.498,0c-0.247,0 -0.472,0.043 -0.676,0.128c-0.202,0.085 -0.381,0.206 -0.537,0.359c-0.155,0.154 -0.275,0.336 -0.361,0.543c-0.086,0.207 -0.128,0.429 -0.128,0.662l0,5.138c0,0.246 0.045,0.472 0.136,0.68c0.09,0.207 0.211,0.385 0.362,0.534c0.149,0.148 0.328,0.268 0.537,0.359c0.209,0.09 0.43,0.135 0.667,0.135l0.498,0c0.235,0 0.456,-0.045 0.666,-0.135c0.209,-0.091 0.39,-0.214 0.546,-0.368c0.155,-0.154 0.278,-0.335 0.37,-0.543c0.09,-0.207 0.136,-0.426 0.136,-0.662l0,-5.138Zm1.066,5.142c0,0.786 -0.252,1.417 -0.755,1.896c-0.504,0.477 -1.182,0.715 -2.031,0.715l-0.494,0c-0.85,0 -1.524,-0.238 -2.024,-0.715c-0.497,-0.479 -0.748,-1.11 -0.748,-1.896l0,-5.13c0,-0.784 0.251,-1.417 0.748,-1.894c0.5,-0.479 1.174,-0.717 2.024,-0.717l0.494,0c0.424,0 0.806,0.064 1.146,0.192c0.341,0.126 0.633,0.304 0.877,0.532c0.243,0.23 0.432,0.504 0.565,0.829c0.133,0.324 0.198,0.676 0.198,1.058l0,5.13Z" style="fill:#056db6;fill-rule:nonzero;"/><path d="M118.261,82.34c0.064,0.021 0.097,0.064 0.097,0.126c0,0.128 -0.059,0.275 -0.177,0.439c-0.115,0.164 -0.283,0.318 -0.501,0.462c-0.218,0.143 -0.477,0.262 -0.779,0.357c-0.305,0.097 -0.641,0.144 -1.013,0.144l-0.493,0c-0.85,0 -1.522,-0.239 -2.015,-0.716c-0.494,-0.479 -0.742,-1.109 -0.742,-1.896l0,-5.129c0,-0.785 0.248,-1.418 0.742,-1.895c0.493,-0.478 1.165,-0.717 2.015,-0.717l0.493,0c0.361,0 0.696,0.047 1.004,0.142c0.307,0.093 0.57,0.207 0.788,0.344c0.218,0.134 0.387,0.285 0.51,0.447c0.123,0.164 0.183,0.31 0.183,0.438c0,0.051 -0.038,0.095 -0.112,0.126l-0.669,0.335c-0.021,0.01 -0.047,0.016 -0.08,0.016c-0.031,0 -0.068,-0.021 -0.11,-0.064c-0.118,-0.116 -0.232,-0.229 -0.342,-0.334c-0.112,-0.107 -0.227,-0.2 -0.342,-0.28c-0.118,-0.079 -0.243,-0.143 -0.375,-0.19c-0.134,-0.048 -0.284,-0.072 -0.455,-0.072l-0.493,0c-0.245,0 -0.468,0.043 -0.669,0.127c-0.202,0.085 -0.38,0.206 -0.534,0.36c-0.154,0.154 -0.273,0.335 -0.359,0.543c-0.085,0.207 -0.126,0.428 -0.126,0.661l0,5.139c0,0.245 0.045,0.472 0.135,0.679c0.089,0.208 0.209,0.386 0.357,0.534c0.149,0.149 0.327,0.268 0.534,0.36c0.208,0.089 0.427,0.134 0.662,0.134l0.493,0c0.182,0 0.366,-0.036 0.558,-0.11c0.19,-0.074 0.351,-0.171 0.477,-0.287c0.182,-0.171 0.311,-0.308 0.391,-0.415c0.079,-0.105 0.147,-0.159 0.198,-0.159c0.033,0 0.059,0.005 0.08,0.016l0.669,0.335Z" style="fill:#056db6;fill-rule:nonzero;"/><path d="M121.574,83.55c0,0.107 -0.053,0.159 -0.159,0.159l-0.748,0c-0.107,0 -0.159,-0.052 -0.159,-0.159l0,-9.699c0,-0.108 0.052,-0.161 0.159,-0.161l0.748,0c0.106,0 0.159,0.053 0.159,0.161l0,9.699Z" style="fill:#056db6;fill-rule:nonzero;"/><path d="M129.938,83.55c0,0.107 -0.054,0.159 -0.159,0.159l-5.225,0c-0.107,0 -0.159,-0.052 -0.159,-0.159l0,-9.699c0,-0.108 0.052,-0.161 0.159,-0.161l5.225,0c0.105,0 0.159,0.053 0.159,0.161l0,0.589c0,0.105 -0.054,0.159 -0.159,0.159l-4.158,0c-0.106,0 -0.16,0.054 -0.16,0.159l0,3.249c0,0.106 0.054,0.159 0.16,0.159l3.409,0c0.106,0 0.159,0.054 0.159,0.159l0,0.59c0,0.107 -0.053,0.159 -0.159,0.159l-3.409,0c-0.106,0 -0.16,0.053 -0.16,0.16l0,3.409c0,0.105 0.054,0.159 0.16,0.159l4.158,0c0.105,0 0.159,0.053 0.159,0.159l0,0.589Z" style="fill:#056db6;fill-rule:nonzero;"/><path d="M136.882,74.44c0,0.105 -0.054,0.159 -0.161,0.159l-1.927,0c-0.105,0 -0.159,0.054 -0.159,0.159l0,8.792c0,0.107 -0.053,0.159 -0.159,0.159l-0.748,0c-0.107,0 -0.159,-0.052 -0.159,-0.159l0,-8.792c0,-0.105 -0.054,-0.159 -0.161,-0.159l-1.927,0c-0.105,0 -0.159,-0.054 -0.159,-0.159l0,-0.589c0,-0.108 0.054,-0.161 0.159,-0.161l5.24,0c0.107,0 0.161,0.053 0.161,0.161l0,0.589Z" style="fill:#056db6;fill-rule:nonzero;"/><path d="M141.581,79.073l0,4.476c0,0.107 -0.053,0.159 -0.159,0.159l-0.781,0c-0.107,0 -0.159,-0.052 -0.159,-0.159l0,-4.476l-2.724,-5.144c-0.021,-0.033 -0.033,-0.069 -0.033,-0.112c0,-0.085 0.059,-0.128 0.176,-0.128l0.908,0l0.144,0.097l1.96,4.013c0.03,0.075 0.079,0.113 0.143,0.113c0.062,0 0.11,-0.038 0.143,-0.113l1.927,-4.013l0.144,-0.097l0.907,0c0.116,0 0.175,0.043 0.175,0.128c0,0.01 -0.011,0.048 -0.031,0.112l-2.74,5.144Z" style="fill:#056db6;fill-rule:nonzero;"/><path d="M153.861,76.114c0,-0.233 -0.047,-0.455 -0.137,-0.662c-0.092,-0.207 -0.212,-0.385 -0.361,-0.534c-0.15,-0.15 -0.332,-0.27 -0.546,-0.359c-0.214,-0.09 -0.439,-0.137 -0.674,-0.137l-0.498,0c-0.247,0 -0.472,0.043 -0.676,0.128c-0.202,0.085 -0.381,0.206 -0.537,0.359c-0.156,0.154 -0.275,0.336 -0.362,0.543c-0.086,0.207 -0.127,0.429 -0.127,0.662l0,5.138c0,0.246 0.044,0.472 0.136,0.68c0.09,0.207 0.211,0.385 0.362,0.534c0.148,0.148 0.328,0.268 0.537,0.359c0.209,0.09 0.43,0.135 0.667,0.135l0.498,0c0.235,0 0.456,-0.045 0.665,-0.135c0.209,-0.091 0.391,-0.214 0.547,-0.368c0.155,-0.154 0.277,-0.335 0.369,-0.543c0.09,-0.207 0.137,-0.426 0.137,-0.662l0,-5.138Zm1.066,5.142c0,0.786 -0.252,1.417 -0.755,1.896c-0.505,0.477 -1.182,0.715 -2.031,0.715l-0.494,0c-0.85,0 -1.525,-0.238 -2.024,-0.715c-0.498,-0.479 -0.748,-1.11 -0.748,-1.896l0,-5.13c0,-0.784 0.25,-1.417 0.748,-1.894c0.499,-0.479 1.174,-0.717 2.024,-0.717l0.494,0c0.424,0 0.805,0.064 1.146,0.192c0.341,0.126 0.633,0.304 0.876,0.532c0.244,0.23 0.432,0.504 0.566,0.829c0.132,0.324 0.198,0.676 0.198,1.058l0,5.13Z" style="fill:#056db6;fill-rule:nonzero;"/><path d="M163.02,74.44c0,0.105 -0.053,0.159 -0.159,0.159l-4.158,0c-0.106,0 -0.159,0.054 -0.159,0.159l0,3.249c0,0.106 0.053,0.159 0.159,0.159l3.41,0c0.105,0 0.159,0.054 0.159,0.159l0,0.59c0,0.107 -0.054,0.159 -0.159,0.159l-3.41,0c-0.106,0 -0.159,0.053 -0.159,0.16l0,4.316c0,0.107 -0.054,0.159 -0.159,0.159l-0.749,0c-0.107,0 -0.158,-0.052 -0.158,-0.159l0,-9.699c0,-0.108 0.051,-0.161 0.158,-0.161l5.225,0c0.106,0 0.159,0.053 0.159,0.161l0,0.589Z" style="fill:#056db6;fill-rule:nonzero;"/><path d="M175.714,83.55c0,0.107 -0.054,0.159 -0.159,0.159l-1.466,0c-0.107,0 -0.159,-0.052 -0.159,-0.159l0.144,-6.212l-1.794,4.905c-0.064,0.064 -0.112,0.097 -0.144,0.097l-0.809,0c-0.064,0 -0.112,-0.033 -0.143,-0.097l-1.794,-4.905l0.143,6.212c0,0.107 -0.053,0.159 -0.16,0.159l-1.495,0c-0.107,0 -0.161,-0.052 -0.161,-0.159l0,-9.717c0,-0.105 0.054,-0.159 0.161,-0.159l1.369,0c0.043,0.023 0.09,0.054 0.143,0.095l2.326,6.309l2.325,-6.309c0.043,-0.041 0.09,-0.072 0.143,-0.095l1.371,0c0.105,0 0.159,0.054 0.159,0.159l0,9.717Z" style="fill:#056db6;fill-rule:nonzero;"/><path d="M180.81,77.848c-0.01,-0.054 -0.029,-0.152 -0.055,-0.296c-0.026,-0.143 -0.066,-0.337 -0.12,-0.58l-0.048,0c-0.116,0.51 -0.18,0.802 -0.19,0.876l-0.543,2.102c0,0.01 -0.002,0.022 -0.007,0.033c-0.005,0.01 -0.008,0.02 -0.008,0.031c0,0.094 0.058,0.143 0.176,0.143l1.161,0c0.118,0 0.176,-0.049 0.176,-0.143c0,-0.011 -0.003,-0.021 -0.008,-0.031c-0.005,-0.011 -0.007,-0.023 -0.007,-0.033l-0.527,-2.102Zm3.49,5.653c0,0.023 0.001,0.035 0.007,0.04c0.004,0.007 0.008,0.014 0.008,0.024c0,0.097 -0.059,0.144 -0.174,0.144l-1.61,0c-0.096,0 -0.148,-0.037 -0.159,-0.111l-0.479,-1.673c-0.01,-0.064 -0.063,-0.095 -0.158,-0.095l-2.279,0c-0.094,0 -0.148,0.031 -0.158,0.095l-0.479,1.673c-0.01,0.074 -0.062,0.111 -0.159,0.111l-1.592,0c-0.117,0 -0.176,-0.047 -0.176,-0.144c0,-0.01 0.003,-0.017 0.008,-0.024c0.006,-0.005 0.007,-0.017 0.007,-0.04l2.965,-9.715c0.031,-0.074 0.084,-0.112 0.159,-0.112l1.145,0c0.075,0 0.128,0.038 0.161,0.112l2.963,9.715Z" style="fill:#056db6;fill-rule:nonzero;"/><path d="M191.672,83.486c0.022,0.043 0.033,0.074 0.033,0.097c0,0.085 -0.059,0.126 -0.175,0.126l-1.816,0c-0.064,0 -0.113,-0.031 -0.144,-0.095l-1.353,-2.883c-0.033,-0.074 -0.08,-0.112 -0.144,-0.112c-0.064,0 -0.112,0.038 -0.143,0.112l-1.402,2.883l-0.143,0.095l-1.784,0c-0.117,0 -0.176,-0.041 -0.176,-0.126c0,-0.012 0.01,-0.048 0.033,-0.112l2.388,-4.715l0,-0.144l-2.388,-4.699c-0.023,-0.062 -0.033,-0.1 -0.033,-0.111c0,-0.085 0.059,-0.128 0.176,-0.128l1.768,0c0.032,0 0.08,0.033 0.142,0.095l1.419,2.932c0.031,0.074 0.079,0.112 0.143,0.112c0.064,0 0.111,-0.038 0.144,-0.112l1.369,-2.932c0.01,-0.031 0.059,-0.062 0.143,-0.095l1.801,0c0.116,0 0.175,0.043 0.175,0.128c0,0.021 -0.011,0.054 -0.033,0.095l-2.373,4.731l0,0.128l2.373,4.73Z" style="fill:#056db6;fill-rule:nonzero;"/><path d="M194.811,83.55c0,0.107 -0.052,0.159 -0.157,0.159l-1.501,0c-0.105,0 -0.158,-0.052 -0.158,-0.159l0,-9.717c0,-0.105 0.053,-0.159 0.158,-0.159l1.501,0c0.105,0 0.157,0.054 0.157,0.159l0,9.717Z" style="fill:#056db6;fill-rule:nonzero;"/><path d="M203.11,83.55c0,0.107 -0.054,0.159 -0.159,0.159l-5.609,0c-0.105,0 -0.158,-0.052 -0.158,-0.159l0,-9.717c0,-0.105 0.053,-0.159 0.158,-0.159l1.501,0c0.105,0 0.157,0.054 0.157,0.159l0,8.044c0,0.107 0.054,0.161 0.159,0.161l3.792,0c0.105,0 0.159,0.052 0.159,0.159l0,1.353Z" style="fill:#056db6;fill-rule:nonzero;"/><path d="M210.564,83.55c0,0.107 -0.054,0.159 -0.159,0.159l-5.609,0c-0.105,0 -0.159,-0.052 -0.159,-0.159l0,-9.717c0,-0.105 0.054,-0.159 0.159,-0.159l1.5,0c0.106,0 0.158,0.054 0.158,0.159l0,8.044c0,0.107 0.053,0.161 0.159,0.161l3.792,0c0.105,0 0.159,0.052 0.159,0.159l0,1.353Z" style="fill:#056db6;fill-rule:nonzero;"/><path d="M216.76,76.334c0,-0.328 -0.111,-0.601 -0.329,-0.819c-0.219,-0.218 -0.489,-0.327 -0.809,-0.327l-0.784,0c-0.32,0 -0.593,0.111 -0.816,0.334c-0.224,0.223 -0.337,0.494 -0.337,0.812l0,4.715c0,0.318 0.113,0.589 0.337,0.812c0.223,0.223 0.496,0.336 0.816,0.336l0.784,0c0.32,0 0.59,-0.109 0.809,-0.327c0.218,-0.218 0.329,-0.491 0.329,-0.821l0,-4.715Zm1.814,4.715c0,0.425 -0.07,0.811 -0.214,1.155c-0.143,0.345 -0.342,0.642 -0.598,0.891c-0.254,0.251 -0.565,0.441 -0.931,0.574c-0.367,0.133 -0.773,0.199 -1.219,0.199l-0.779,0c-0.446,0 -0.852,-0.066 -1.219,-0.199c-0.366,-0.133 -0.681,-0.323 -0.94,-0.574c-0.261,-0.249 -0.46,-0.546 -0.598,-0.891c-0.138,-0.344 -0.208,-0.73 -0.208,-1.155l0,-4.715c0,-0.423 0.073,-0.809 0.217,-1.155c0.143,-0.345 0.342,-0.639 0.596,-0.883c0.256,-0.245 0.567,-0.435 0.933,-0.574c0.367,-0.138 0.773,-0.207 1.219,-0.207l0.779,0c0.446,0 0.852,0.069 1.219,0.207c0.366,0.139 0.677,0.329 0.931,0.574c0.256,0.244 0.455,0.538 0.598,0.883c0.144,0.346 0.214,0.732 0.214,1.155l0,4.715Z" style="fill:#056db6;fill-rule:nonzero;"/><path d="M223.451,80.81c0,0.105 -0.054,0.159 -0.161,0.159l-2.865,0c-0.108,0 -0.162,-0.054 -0.162,-0.159l0,-1.497c0,-0.107 0.054,-0.16 0.162,-0.16l2.865,0c0.107,0 0.161,0.053 0.161,0.16l0,1.497Z" style="fill:#056db6;fill-rule:nonzero;"/><path d="M231.287,75.188c0,0.105 -0.053,0.159 -0.159,0.159l-3.792,0c-0.105,0 -0.159,0.053 -0.159,0.159l0,2.119c0,0.105 0.054,0.159 0.159,0.159l3.106,0c0.107,0 0.159,0.053 0.159,0.159l0,1.353c0,0.107 -0.052,0.161 -0.159,0.161l-3.106,0c-0.105,0 -0.159,0.052 -0.159,0.159l0,3.934c0,0.107 -0.052,0.159 -0.157,0.159l-1.5,0c-0.106,0 -0.159,-0.052 -0.159,-0.159l0,-9.717c0,-0.105 0.053,-0.159 0.159,-0.159l5.608,0c0.106,0 0.159,0.054 0.159,0.159l0,1.355Z" style="fill:#056db6;fill-rule:nonzero;"/><path d="M235.539,77.848c-0.01,-0.054 -0.029,-0.152 -0.055,-0.296c-0.026,-0.143 -0.066,-0.337 -0.12,-0.58l-0.048,0c-0.116,0.51 -0.18,0.802 -0.19,0.876l-0.543,2.102c0,0.01 -0.002,0.022 -0.007,0.033c-0.005,0.01 -0.008,0.02 -0.008,0.031c0,0.094 0.058,0.143 0.176,0.143l1.161,0c0.118,0 0.176,-0.049 0.176,-0.143c0,-0.011 -0.003,-0.021 -0.008,-0.031c-0.005,-0.011 -0.007,-0.023 -0.007,-0.033l-0.527,-2.102Zm3.49,5.653c0,0.023 0.001,0.035 0.007,0.04c0.004,0.007 0.008,0.014 0.008,0.024c0,0.097 -0.059,0.144 -0.174,0.144l-1.61,0c-0.096,0 -0.148,-0.037 -0.159,-0.111l-0.479,-1.673c-0.01,-0.064 -0.063,-0.095 -0.158,-0.095l-2.279,0c-0.094,0 -0.148,0.031 -0.158,0.095l-0.479,1.673c-0.01,0.074 -0.062,0.111 -0.159,0.111l-1.592,0c-0.117,0 -0.176,-0.047 -0.176,-0.144c0,-0.01 0.003,-0.017 0.008,-0.024c0.006,-0.005 0.007,-0.017 0.007,-0.04l2.965,-9.715c0.031,-0.074 0.084,-0.112 0.159,-0.112l1.145,0c0.075,0 0.128,0.038 0.161,0.112l2.963,9.715Z" style="fill:#056db6;fill-rule:nonzero;"/><path d="M246.45,81.83c0.064,0.031 0.095,0.074 0.095,0.126c0,0.087 -0.057,0.235 -0.175,0.448c-0.117,0.213 -0.313,0.456 -0.589,0.731c-0.477,0.489 -1.163,0.733 -2.055,0.733l-0.779,0c-0.446,0 -0.852,-0.066 -1.219,-0.199c-0.366,-0.133 -0.681,-0.323 -0.94,-0.574c-0.261,-0.249 -0.46,-0.546 -0.598,-0.891c-0.138,-0.344 -0.208,-0.73 -0.208,-1.155l0,-4.715c0,-0.423 0.073,-0.809 0.217,-1.155c0.143,-0.345 0.342,-0.639 0.596,-0.883c0.256,-0.245 0.567,-0.435 0.933,-0.574c0.367,-0.138 0.773,-0.207 1.219,-0.207l0.779,0c0.361,0 0.69,0.043 0.989,0.128c0.297,0.085 0.567,0.218 0.812,0.397c0.159,0.118 0.302,0.246 0.428,0.383c0.128,0.138 0.234,0.271 0.32,0.399c0.085,0.126 0.151,0.243 0.199,0.349c0.048,0.107 0.071,0.181 0.071,0.223c0,0.053 -0.031,0.097 -0.095,0.128l-1.386,0.686c-0.021,0.01 -0.047,0.015 -0.08,0.015c-0.054,0 -0.09,-0.024 -0.11,-0.072c-0.023,-0.047 -0.059,-0.114 -0.112,-0.199c-0.139,-0.244 -0.288,-0.432 -0.447,-0.565c-0.158,-0.133 -0.356,-0.199 -0.589,-0.199l-0.779,0c-0.32,0 -0.59,0.111 -0.813,0.334c-0.223,0.223 -0.335,0.494 -0.335,0.812l0,4.715c0,0.318 0.112,0.589 0.335,0.812c0.223,0.223 0.493,0.335 0.813,0.335l0.779,0c0.233,0 0.427,-0.064 0.582,-0.191c0.154,-0.128 0.3,-0.318 0.438,-0.574c0.095,-0.201 0.174,-0.303 0.238,-0.303c0.033,0 0.059,0.006 0.08,0.016l1.386,0.686Z" style="fill:#056db6;fill-rule:nonzero;"/><path d="M249.953,83.55c0,0.107 -0.052,0.159 -0.157,0.159l-1.501,0c-0.105,0 -0.159,-0.052 -0.159,-0.159l0,-9.717c0,-0.105 0.054,-0.159 0.159,-0.159l1.501,0c0.105,0 0.157,0.054 0.157,0.159l0,9.717Z" style="fill:#056db6;fill-rule:nonzero;"/><path d="M255.05,77.848c-0.01,-0.054 -0.029,-0.152 -0.055,-0.296c-0.026,-0.143 -0.066,-0.337 -0.119,-0.58l-0.049,0c-0.116,0.51 -0.18,0.802 -0.19,0.876l-0.543,2.102c0,0.01 -0.002,0.022 -0.006,0.033c-0.006,0.01 -0.009,0.02 -0.009,0.031c0,0.094 0.058,0.143 0.176,0.143l1.162,0c0.117,0 0.176,-0.049 0.176,-0.143c0,-0.011 -0.004,-0.021 -0.009,-0.031c-0.005,-0.011 -0.007,-0.023 -0.007,-0.033l-0.527,-2.102Zm3.49,5.653c0,0.023 0.001,0.035 0.007,0.04c0.004,0.007 0.008,0.014 0.008,0.024c0,0.097 -0.059,0.144 -0.174,0.144l-1.609,0c-0.097,0 -0.149,-0.037 -0.16,-0.111l-0.479,-1.673c-0.01,-0.064 -0.063,-0.095 -0.158,-0.095l-2.278,0c-0.095,0 -0.149,0.031 -0.159,0.095l-0.479,1.673c-0.01,0.074 -0.062,0.111 -0.159,0.111l-1.592,0c-0.117,0 -0.176,-0.047 -0.176,-0.144c0,-0.01 0.003,-0.017 0.008,-0.024c0.006,-0.005 0.008,-0.017 0.008,-0.04l2.964,-9.715c0.031,-0.074 0.084,-0.112 0.159,-0.112l1.146,0c0.074,0 0.127,0.038 0.16,0.112l2.963,9.715Z" style="fill:#056db6;fill-rule:nonzero;"/><path d="M265.643,83.55c0,0.107 -0.054,0.159 -0.159,0.159l-5.609,0c-0.105,0 -0.159,-0.052 -0.159,-0.159l0,-9.717c0,-0.105 0.054,-0.159 0.159,-0.159l1.5,0c0.106,0 0.158,0.054 0.158,0.159l0,8.044c0,0.107 0.053,0.161 0.159,0.161l3.792,0c0.105,0 0.159,0.052 0.159,0.159l0,1.353Z" style="fill:#056db6;fill-rule:nonzero;"/><path d="M272.937,77.848c-0.01,-0.054 -0.029,-0.152 -0.055,-0.296c-0.026,-0.143 -0.066,-0.337 -0.119,-0.58l-0.049,0c-0.116,0.51 -0.18,0.802 -0.19,0.876l-0.543,2.102c0,0.01 -0.002,0.022 -0.007,0.033c-0.005,0.01 -0.008,0.02 -0.008,0.031c0,0.094 0.058,0.143 0.176,0.143l1.161,0c0.118,0 0.176,-0.049 0.176,-0.143c0,-0.011 -0.003,-0.021 -0.008,-0.031c-0.005,-0.011 -0.007,-0.023 -0.007,-0.033l-0.527,-2.102Zm3.49,5.653c0,0.023 0.001,0.035 0.007,0.04c0.004,0.007 0.008,0.014 0.008,0.024c0,0.097 -0.059,0.144 -0.174,0.144l-1.609,0c-0.097,0 -0.149,-0.037 -0.16,-0.111l-0.479,-1.673c-0.01,-0.064 -0.063,-0.095 -0.158,-0.095l-2.279,0c-0.094,0 -0.148,0.031 -0.158,0.095l-0.479,1.673c-0.01,0.074 -0.062,0.111 -0.159,0.111l-1.592,0c-0.117,0 -0.176,-0.047 -0.176,-0.144c0,-0.01 0.003,-0.017 0.008,-0.024c0.006,-0.005 0.007,-0.017 0.007,-0.04l2.965,-9.715c0.031,-0.074 0.084,-0.112 0.159,-0.112l1.145,0c0.075,0 0.128,0.038 0.161,0.112l2.963,9.715Z" style="fill:#056db6;fill-rule:nonzero;"/><path d="M284.214,83.55c0,0.107 -0.053,0.159 -0.159,0.159l-1.317,0l-0.143,-0.079l-3.255,-6.404l0.08,6.324c0,0.107 -0.054,0.159 -0.161,0.159l-1.495,0c-0.107,0 -0.161,-0.052 -0.161,-0.159l0,-9.717c0,-0.105 0.054,-0.159 0.161,-0.159l1.338,0l0.143,0.08l3.249,6.467l-0.064,-6.388c0,-0.105 0.054,-0.159 0.159,-0.159l1.466,0c0.106,0 0.159,0.054 0.159,0.159l0,9.717Z" style="fill:#056db6;fill-rule:nonzero;"/><path d="M291.478,76.493c0,-0.308 -0.116,-0.576 -0.344,-0.804c-0.23,-0.228 -0.499,-0.342 -0.808,-0.342l-1.762,0c-0.107,0 -0.161,0.053 -0.161,0.159l0,6.371c0,0.107 0.054,0.16 0.161,0.16l1.762,0c0.319,0 0.59,-0.112 0.815,-0.335c0.225,-0.223 0.337,-0.494 0.337,-0.812l0,-4.397Zm1.815,4.253c0,0.915 -0.264,1.635 -0.795,2.166c-0.532,0.532 -1.253,0.797 -2.167,0.797l-3.583,0c-0.107,0 -0.161,-0.052 -0.161,-0.159l0,-9.717c0,-0.105 0.054,-0.159 0.161,-0.159l3.583,0c0.914,0 1.635,0.266 2.167,0.797c0.531,0.53 0.795,1.253 0.795,2.165l0,4.11Z" style="fill:#056db6;fill-rule:nonzero;"/><path d="M303.138,76.334c0,-0.328 -0.111,-0.601 -0.329,-0.819c-0.219,-0.218 -0.488,-0.327 -0.808,-0.327l-0.785,0c-0.32,0 -0.593,0.111 -0.816,0.334c-0.224,0.223 -0.337,0.494 -0.337,0.812l0,4.715c0,0.318 0.113,0.589 0.337,0.812c0.223,0.223 0.496,0.336 0.816,0.336l0.785,0c0.32,0 0.589,-0.109 0.808,-0.327c0.218,-0.218 0.329,-0.491 0.329,-0.821l0,-4.715Zm1.815,4.715c0,0.425 -0.071,0.811 -0.214,1.155c-0.144,0.345 -0.343,0.642 -0.599,0.891c-0.253,0.251 -0.565,0.441 -0.931,0.574c-0.366,0.133 -0.773,0.199 -1.218,0.199l-0.78,0c-0.446,0 -0.852,-0.066 -1.219,-0.199c-0.366,-0.133 -0.681,-0.323 -0.94,-0.574c-0.261,-0.249 -0.459,-0.546 -0.598,-0.891c-0.138,-0.344 -0.207,-0.73 -0.207,-1.155l0,-4.715c0,-0.423 0.072,-0.809 0.216,-1.155c0.143,-0.345 0.342,-0.639 0.596,-0.883c0.256,-0.245 0.567,-0.435 0.933,-0.574c0.367,-0.138 0.773,-0.207 1.219,-0.207l0.78,0c0.445,0 0.852,0.069 1.218,0.207c0.366,0.139 0.678,0.329 0.931,0.574c0.256,0.244 0.455,0.538 0.599,0.883c0.143,0.346 0.214,0.732 0.214,1.155l0,4.715Z" style="fill:#056db6;fill-rule:nonzero;"/><path d="M311.978,76.493c0,-0.308 -0.116,-0.576 -0.344,-0.804c-0.23,-0.228 -0.499,-0.342 -0.809,-0.342l-1.761,0c-0.107,0 -0.161,0.053 -0.161,0.159l0,2.119c0,0.105 0.054,0.159 0.161,0.159l1.761,0c0.31,0 0.579,-0.112 0.809,-0.335c0.228,-0.223 0.344,-0.493 0.344,-0.813l0,-0.143Zm1.976,7.008c0.01,0.023 0.015,0.049 0.015,0.082c0,0.084 -0.054,0.126 -0.159,0.126l-1.642,0c-0.052,0 -0.1,-0.037 -0.143,-0.111l-1.409,-4.046l-0.128,-0.095l-1.424,0c-0.107,0 -0.161,0.052 -0.161,0.159l0,3.934c0,0.107 -0.051,0.159 -0.157,0.159l-1.5,0c-0.105,0 -0.159,-0.052 -0.159,-0.159l0,-9.717c0,-0.105 0.054,-0.159 0.161,-0.159l3.583,0c0.914,0 1.635,0.266 2.167,0.797c0.53,0.53 0.795,1.253 0.795,2.165l0,0.161c0,0.372 -0.076,0.704 -0.23,0.996c-0.154,0.292 -0.311,0.527 -0.47,0.708c-0.149,0.138 -0.296,0.254 -0.439,0.349c-0.143,0.097 -0.215,0.182 -0.215,0.256l0,0.016l1.515,4.379Z" style="fill:#056db6;fill-rule:nonzero;"/><path d="M318.427,77.848c-0.01,-0.054 -0.029,-0.152 -0.055,-0.296c-0.027,-0.143 -0.066,-0.337 -0.12,-0.58l-0.048,0c-0.116,0.51 -0.18,0.802 -0.19,0.876l-0.543,2.102c0,0.01 -0.002,0.022 -0.007,0.033c-0.005,0.01 -0.009,0.02 -0.009,0.031c0,0.094 0.059,0.143 0.177,0.143l1.161,0c0.118,0 0.176,-0.049 0.176,-0.143c0,-0.011 -0.003,-0.021 -0.008,-0.031c-0.005,-0.011 -0.007,-0.023 -0.007,-0.033l-0.527,-2.102Zm3.489,5.653c0,0.023 0.002,0.035 0.008,0.04c0.004,0.007 0.008,0.014 0.008,0.024c0,0.097 -0.059,0.144 -0.174,0.144l-1.61,0c-0.096,0 -0.148,-0.037 -0.159,-0.111l-0.479,-1.673c-0.01,-0.064 -0.063,-0.095 -0.159,-0.095l-2.278,0c-0.094,0 -0.148,0.031 -0.158,0.095l-0.479,1.673c-0.01,0.074 -0.062,0.111 -0.159,0.111l-1.592,0c-0.117,0 -0.176,-0.047 -0.176,-0.144c0,-0.01 0.003,-0.017 0.008,-0.024c0.006,-0.005 0.007,-0.017 0.007,-0.04l2.965,-9.715c0.03,-0.074 0.084,-0.112 0.158,-0.112l1.146,0c0.074,0 0.128,0.038 0.161,0.112l2.962,9.715Z" style="fill:#056db6;fill-rule:nonzero;"/><path d="M329.02,83.55c0,0.107 -0.053,0.159 -0.159,0.159l-5.609,0c-0.105,0 -0.158,-0.052 -0.158,-0.159l0,-9.717c0,-0.105 0.053,-0.159 0.158,-0.159l1.501,0c0.105,0 0.157,0.054 0.157,0.159l0,8.044c0,0.107 0.054,0.161 0.159,0.161l3.792,0c0.106,0 0.159,0.052 0.159,0.159l0,1.353Z" style="fill:#056db6;fill-rule:nonzero;"/><path d="M336.028,75.188c-0.308,0 -0.576,0.109 -0.804,0.327c-0.228,0.217 -0.342,0.49 -0.342,0.819c0,0.192 0.045,0.351 0.135,0.479c0.09,0.126 0.216,0.243 0.375,0.349c0.159,0.107 0.352,0.211 0.58,0.311c0.229,0.102 0.481,0.216 0.758,0.342c0.424,0.192 0.793,0.396 1.108,0.613c0.312,0.218 0.571,0.455 0.779,0.709c0.207,0.256 0.361,0.54 0.461,0.852c0.102,0.315 0.153,0.668 0.153,1.06c0,0.425 -0.07,0.81 -0.208,1.154c-0.138,0.346 -0.337,0.643 -0.598,0.892c-0.259,0.251 -0.572,0.441 -0.939,0.574c-0.366,0.133 -0.772,0.199 -1.218,0.199l-0.637,0c-0.903,0 -1.593,-0.249 -2.071,-0.749c-0.266,-0.275 -0.455,-0.516 -0.565,-0.724c-0.113,-0.207 -0.168,-0.353 -0.168,-0.439c0,-0.041 0.033,-0.079 0.095,-0.111l1.386,-0.684c0.021,-0.01 0.049,-0.017 0.08,-0.017c0.053,0 0.097,0.041 0.127,0.121c0.032,0.079 0.09,0.199 0.175,0.358c0.085,0.169 0.218,0.307 0.4,0.414c0.179,0.106 0.36,0.159 0.541,0.159l0.637,0c0.308,0 0.575,-0.112 0.804,-0.335c0.228,-0.223 0.342,-0.494 0.342,-0.812c0,-0.392 -0.154,-0.693 -0.462,-0.901c-0.307,-0.205 -0.722,-0.432 -1.242,-0.676c-0.436,-0.212 -0.818,-0.421 -1.146,-0.629c-0.33,-0.207 -0.607,-0.43 -0.829,-0.668c-0.224,-0.241 -0.39,-0.509 -0.502,-0.806c-0.111,-0.297 -0.167,-0.641 -0.167,-1.035c0,-0.424 0.072,-0.809 0.215,-1.155c0.144,-0.345 0.343,-0.639 0.597,-0.883c0.255,-0.245 0.567,-0.435 0.931,-0.574c0.367,-0.138 0.773,-0.207 1.219,-0.207l0.24,0c0.721,0 1.327,0.174 1.815,0.525c0.16,0.118 0.3,0.242 0.424,0.375c0.12,0.133 0.228,0.265 0.317,0.398c0.09,0.133 0.159,0.252 0.208,0.358c0.046,0.107 0.071,0.181 0.071,0.223c0,0.053 -0.032,0.096 -0.096,0.127l-1.386,0.687c-0.02,0.01 -0.048,0.015 -0.079,0.015c-0.043,0 -0.075,-0.022 -0.095,-0.064c-0.023,-0.043 -0.059,-0.1 -0.112,-0.176c-0.149,-0.254 -0.303,-0.451 -0.462,-0.589c-0.159,-0.137 -0.361,-0.206 -0.605,-0.206l-0.24,0Z" style="fill:#056db6;fill-rule:nonzero;"/><path d="M347.304,81.049c0,0.425 -0.071,0.811 -0.214,1.155c-0.143,0.345 -0.342,0.642 -0.598,0.891c-0.254,0.251 -0.565,0.441 -0.932,0.574c-0.366,0.133 -0.772,0.199 -1.218,0.199l-0.78,0c-0.445,0 -0.852,-0.066 -1.218,-0.199c-0.367,-0.133 -0.681,-0.323 -0.94,-0.574c-0.262,-0.249 -0.46,-0.546 -0.599,-0.891c-0.138,-0.344 -0.207,-0.73 -0.207,-1.155l0,-7.216c0,-0.105 0.054,-0.159 0.161,-0.159l1.497,0c0.105,0 0.159,0.054 0.159,0.159l0,7.216c0,0.318 0.112,0.589 0.337,0.812c0.223,0.223 0.496,0.335 0.816,0.335l0.784,0c0.32,0 0.59,-0.108 0.809,-0.326c0.218,-0.218 0.329,-0.491 0.329,-0.821l0,-7.216c0,-0.105 0.051,-0.159 0.157,-0.159l1.5,0c0.105,0 0.157,0.054 0.157,0.159l0,7.216Z" style="fill:#056db6;fill-rule:nonzero;"/><path d="M354.33,76.493c0,-0.308 -0.116,-0.576 -0.344,-0.804c-0.23,-0.228 -0.499,-0.342 -0.809,-0.342l-1.761,0c-0.107,0 -0.161,0.053 -0.161,0.159l0,2.119c0,0.105 0.054,0.159 0.161,0.159l1.761,0c0.31,0 0.579,-0.112 0.809,-0.335c0.228,-0.223 0.344,-0.493 0.344,-0.813l0,-0.143Zm1.976,7.008c0.01,0.023 0.015,0.049 0.015,0.082c0,0.084 -0.054,0.126 -0.159,0.126l-1.642,0c-0.052,0 -0.1,-0.037 -0.143,-0.111l-1.409,-4.046l-0.128,-0.095l-1.424,0c-0.107,0 -0.161,0.052 -0.161,0.159l0,3.934c0,0.107 -0.051,0.159 -0.157,0.159l-1.5,0c-0.105,0 -0.159,-0.052 -0.159,-0.159l0,-9.717c0,-0.105 0.054,-0.159 0.161,-0.159l3.583,0c0.914,0 1.634,0.266 2.167,0.797c0.53,0.53 0.795,1.253 0.795,2.165l0,0.161c0,0.372 -0.076,0.704 -0.23,0.996c-0.154,0.292 -0.311,0.527 -0.47,0.708c-0.149,0.138 -0.296,0.254 -0.439,0.349c-0.144,0.097 -0.215,0.182 -0.215,0.256l0,0.016l1.515,4.379Z" style="fill:#056db6;fill-rule:nonzero;"/><path d="M361.848,73.515c0.71,0 1.317,0.175 1.814,0.525c0.161,0.118 0.301,0.242 0.424,0.375c0.121,0.133 0.225,0.265 0.309,0.398c0.087,0.133 0.153,0.252 0.201,0.358c0.046,0.107 0.071,0.181 0.071,0.223c0,0.053 -0.031,0.097 -0.095,0.128l-1.387,0.686c-0.02,0.01 -0.048,0.015 -0.079,0.015c-0.053,0 -0.09,-0.024 -0.112,-0.072c-0.021,-0.047 -0.057,-0.114 -0.111,-0.199c-0.138,-0.244 -0.287,-0.432 -0.446,-0.565c-0.159,-0.133 -0.356,-0.199 -0.589,-0.199l-1.051,0c-0.32,0 -0.59,0.111 -0.812,0.334c-0.223,0.222 -0.336,0.494 -0.336,0.812l0,4.715c0,0.318 0.113,0.589 0.337,0.812c0.223,0.223 0.496,0.335 0.816,0.335l0.785,0c0.32,0 0.589,-0.108 0.809,-0.326c0.218,-0.218 0.328,-0.491 0.328,-0.821l0,-0.749c0,-0.105 -0.054,-0.159 -0.159,-0.159l-1.498,0c-0.106,0 -0.159,-0.053 -0.159,-0.158l0,-1.355c0,-0.106 0.053,-0.16 0.159,-0.16l3.315,0c0.105,0 0.157,0.054 0.157,0.16l0,2.421c0,0.425 -0.071,0.81 -0.214,1.154c-0.144,0.346 -0.343,0.643 -0.599,0.892c-0.253,0.251 -0.565,0.441 -0.931,0.574c-0.366,0.133 -0.773,0.199 -1.218,0.199l-0.78,0c-0.446,0 -0.852,-0.066 -1.219,-0.199c-0.366,-0.133 -0.681,-0.323 -0.94,-0.574c-0.261,-0.249 -0.459,-0.546 -0.598,-0.892c-0.138,-0.344 -0.207,-0.729 -0.207,-1.154l0,-4.715c0,-0.423 0.073,-0.809 0.216,-1.155c0.143,-0.345 0.342,-0.639 0.596,-0.883c0.256,-0.245 0.567,-0.435 0.933,-0.574c0.367,-0.138 0.773,-0.207 1.219,-0.207l1.051,0Z" style="fill:#056db6;fill-rule:nonzero;"/><path d="M372.6,83.55c0,0.107 -0.054,0.159 -0.159,0.159l-5.609,0c-0.105,0 -0.159,-0.052 -0.159,-0.159l0,-9.717c0,-0.105 0.054,-0.159 0.159,-0.159l5.609,0c0.105,0 0.159,0.054 0.159,0.159l0,1.355c0,0.106 -0.054,0.159 -0.159,0.159l-3.792,0c-0.106,0 -0.159,0.054 -0.159,0.159l0,2.119c0,0.106 0.053,0.159 0.159,0.159l3.106,0c0.107,0 0.159,0.054 0.159,0.159l0,1.354c0,0.107 -0.052,0.16 -0.159,0.16l-3.106,0c-0.106,0 -0.159,0.052 -0.159,0.159l0,2.261c0,0.107 0.053,0.161 0.159,0.161l3.792,0c0.105,0 0.159,0.052 0.159,0.159l0,1.353Z" style="fill:#056db6;fill-rule:nonzero;"/><path d="M379.178,76.334c0,-0.328 -0.111,-0.601 -0.329,-0.819c-0.219,-0.218 -0.489,-0.327 -0.808,-0.327l-0.785,0c-0.32,0 -0.593,0.111 -0.816,0.334c-0.224,0.223 -0.337,0.494 -0.337,0.812l0,4.715c0,0.318 0.113,0.589 0.337,0.812c0.223,0.223 0.496,0.336 0.816,0.336l0.785,0c0.319,0 0.589,-0.109 0.808,-0.327c0.218,-0.218 0.329,-0.491 0.329,-0.821l0,-4.715Zm1.814,4.715c0,0.425 -0.07,0.811 -0.214,1.155c-0.143,0.345 -0.342,0.642 -0.598,0.891c-0.254,0.251 -0.565,0.441 -0.931,0.574c-0.367,0.133 -0.773,0.199 -1.219,0.199l-0.779,0c-0.446,0 -0.852,-0.066 -1.219,-0.199c-0.366,-0.133 -0.681,-0.323 -0.94,-0.574c-0.261,-0.249 -0.46,-0.546 -0.598,-0.891c-0.138,-0.344 -0.208,-0.73 -0.208,-1.155l0,-4.715c0,-0.423 0.073,-0.809 0.217,-1.155c0.143,-0.345 0.342,-0.639 0.596,-0.883c0.256,-0.245 0.567,-0.435 0.933,-0.574c0.367,-0.138 0.773,-0.207 1.219,-0.207l0.779,0c0.446,0 0.852,0.069 1.219,0.207c0.366,0.139 0.677,0.329 0.931,0.574c0.256,0.244 0.455,0.538 0.598,0.883c0.144,0.346 0.214,0.732 0.214,1.155l0,4.715Z" style="fill:#056db6;fill-rule:nonzero;"/><path d="M389.736,83.55c0,0.107 -0.053,0.159 -0.159,0.159l-1.317,0l-0.143,-0.079l-3.255,-6.404l0.08,6.324c0,0.107 -0.054,0.159 -0.161,0.159l-1.495,0c-0.107,0 -0.161,-0.052 -0.161,-0.159l0,-9.717c0,-0.105 0.054,-0.159 0.161,-0.159l1.338,0l0.143,0.08l3.249,6.467l-0.063,-6.388c0,-0.105 0.053,-0.159 0.158,-0.159l1.466,0c0.106,0 0.159,0.054 0.159,0.159l0,9.717Z" style="fill:#056db6;fill-rule:nonzero;"/><path d="M394.546,75.188c-0.308,0 -0.575,0.109 -0.804,0.327c-0.228,0.217 -0.342,0.49 -0.342,0.819c0,0.192 0.045,0.351 0.135,0.479c0.09,0.126 0.216,0.243 0.375,0.349c0.159,0.107 0.353,0.211 0.581,0.311c0.228,0.102 0.48,0.216 0.757,0.342c0.425,0.192 0.793,0.396 1.108,0.613c0.313,0.218 0.572,0.455 0.779,0.709c0.207,0.256 0.362,0.54 0.462,0.852c0.102,0.315 0.152,0.668 0.152,1.06c0,0.425 -0.069,0.81 -0.207,1.154c-0.139,0.346 -0.338,0.643 -0.599,0.892c-0.259,0.251 -0.572,0.441 -0.938,0.574c-0.367,0.133 -0.772,0.199 -1.219,0.199l-0.637,0c-0.903,0 -1.592,-0.249 -2.071,-0.749c-0.266,-0.275 -0.454,-0.516 -0.565,-0.724c-0.113,-0.207 -0.168,-0.353 -0.168,-0.439c0,-0.041 0.033,-0.079 0.096,-0.111l1.385,-0.684c0.021,-0.01 0.049,-0.017 0.08,-0.017c0.054,0 0.097,0.041 0.128,0.121c0.031,0.079 0.09,0.199 0.175,0.358c0.084,0.169 0.217,0.307 0.399,0.414c0.179,0.106 0.361,0.159 0.541,0.159l0.637,0c0.308,0 0.576,-0.112 0.804,-0.335c0.228,-0.223 0.342,-0.494 0.342,-0.812c0,-0.392 -0.154,-0.693 -0.461,-0.901c-0.308,-0.205 -0.723,-0.432 -1.243,-0.676c-0.435,-0.212 -0.817,-0.421 -1.146,-0.629c-0.33,-0.207 -0.606,-0.43 -0.829,-0.668c-0.223,-0.241 -0.389,-0.509 -0.501,-0.806c-0.111,-0.297 -0.168,-0.641 -0.168,-1.035c0,-0.424 0.072,-0.809 0.216,-1.155c0.143,-0.345 0.342,-0.639 0.596,-0.883c0.256,-0.245 0.567,-0.435 0.932,-0.574c0.366,-0.138 0.772,-0.207 1.218,-0.207l0.24,0c0.721,0 1.328,0.174 1.815,0.525c0.161,0.118 0.301,0.242 0.424,0.375c0.121,0.133 0.228,0.265 0.317,0.398c0.091,0.133 0.16,0.252 0.208,0.358c0.047,0.107 0.071,0.181 0.071,0.223c0,0.053 -0.031,0.096 -0.095,0.127l-1.386,0.687c-0.021,0.01 -0.049,0.015 -0.08,0.015c-0.043,0 -0.074,-0.022 -0.095,-0.064c-0.023,-0.043 -0.059,-0.1 -0.112,-0.176c-0.149,-0.254 -0.303,-0.451 -0.462,-0.589c-0.158,-0.137 -0.361,-0.206 -0.605,-0.206l-0.24,0Z" style="fill:#056db6;fill-rule:nonzero;"/><path d="M28.25,24.875l-9.245,0c-4.297,0 -6.298,-1.817 -6.298,-5.718c0,-5.237 4.571,-7.783 13.975,-7.783c6.466,0 12.679,1.092 18.469,3.247l1.195,0.444l0,-11.823l-0.611,-0.199c-5.976,-1.945 -12.386,-2.932 -19.053,-2.932c-17.705,0 -26.682,6.408 -26.682,19.046c0,11.542 6.395,17.394 19.005,17.394l9.245,0c6.68,0 7.453,3.264 7.453,5.719c0,5.514 -4.154,8.195 -12.695,8.195c-7.317,0 -13.962,-1.092 -19.75,-3.246l-1.195,-0.444l0,11.822l0.611,0.198c5.978,1.947 12.819,2.934 20.334,2.934c16.854,0 25.401,-6.547 25.401,-19.459c0,-11.543 -6.782,-17.395 -20.159,-17.395" style="fill:#056db6;fill-rule:nonzero;"/><path d="M144.596,24.875l-9.245,0c-4.297,0 -6.298,-1.817 -6.298,-5.718c0,-5.237 4.571,-7.783 13.975,-7.783c6.466,0 12.679,1.092 18.469,3.247l1.195,0.444l0,-11.823l-0.61,-0.199c-5.977,-1.945 -12.387,-2.932 -19.054,-2.932c-17.705,0 -26.682,6.408 -26.682,19.046c0,11.542 6.395,17.394 19.005,17.394l9.245,0c6.68,0 7.453,3.264 7.453,5.719c0,5.514 -4.154,8.195 -12.695,8.195c-7.316,0 -13.962,-1.092 -19.75,-3.246l-1.194,-0.444l0,11.822l0.61,0.198c5.978,1.947 12.819,2.934 20.334,2.934c16.855,0 25.401,-6.547 25.401,-19.459c0,-11.543 -6.782,-17.395 -20.159,-17.395" style="fill:#056db6;fill-rule:nonzero;"/><path d="M205.561,44.457l-19.435,-43.48l-12.809,0l0,60.792l11.883,0l0,-37.373l14.86,37.373l10.532,0l14.524,-37.284l0,37.284l11.882,0l0,-60.792l-12.401,0l-19.036,43.48Z" style="fill:#056db6;fill-rule:nonzero;"/><path d="M247.611,61.769l12.501,0l0,-24.971l24.737,0l0,-11.552l-24.613,0l0,-13.088l26.952,0l0,-11.181l-39.577,0l0,60.792Z" style="fill:#056db6;fill-rule:nonzero;"/><path d="M377.892,24.919l-9.245,0c-4.297,0 -6.298,-1.817 -6.298,-5.718c0,-5.237 4.572,-7.783 13.976,-7.783c6.465,0 12.679,1.092 18.469,3.247l1.194,0.444l0,-11.823l-0.61,-0.199c-5.977,-1.945 -12.387,-2.932 -19.053,-2.932c-17.705,0 -26.683,6.408 -26.683,19.046c0,11.542 6.395,17.394 19.005,17.394l9.245,0c6.68,0 7.453,3.264 7.453,5.719c0,5.514 -4.154,8.195 -12.695,8.195c-7.316,0 -13.962,-1.092 -19.75,-3.246l-1.194,-0.444l0,11.822l0.61,0.198c5.978,1.947 12.819,2.934 20.334,2.934c16.855,0 25.402,-6.547 25.402,-19.459c0,-11.543 -6.783,-17.395 -20.16,-17.395" style="fill:#056db6;fill-rule:nonzero;"/><path d="M96.859,61.769l16.171,0l-23.103,-60.787l-14.671,0l3.303,9.293c0.938,2.597 1.641,2.947 1.835,2.993c0.054,0.013 0.19,0.048 0.423,-0.178c0.493,-0.472 0.792,-0.968 1.081,-1.447c0.592,-0.986 1.206,-2.006 3.305,-2.402c2.81,-0.531 4.845,1.373 5.602,3.503c0.756,2.128 0.388,4.887 -2.139,6.253c-1.875,1.014 -2.994,0.61 -4.08,0.22c-0.527,-0.19 -1.07,-0.387 -1.751,-0.443c-0.346,-0.026 -0.404,0.086 -0.436,0.128c-0.12,0.154 -0.441,0.852 0.429,3.385l14.031,39.482Z" style="fill:#056db6;fill-rule:nonzero;"/><path d="M84.953,18.2c1.017,0.367 1.749,0.629 3.2,-0.155c1.965,-1.061 2.235,-3.245 1.633,-4.94c-0.599,-1.695 -2.186,-3.218 -4.382,-2.802c-1.622,0.306 -2.025,0.974 -2.581,1.897c-0.309,0.515 -0.661,1.099 -1.258,1.671c-0.548,0.522 -1.076,0.532 -1.424,0.45c-0.964,-0.229 -1.803,-1.43 -2.637,-3.78l-3.03,-8.535l-22.749,59.763l16.168,0l13.915,-39.109c-0.775,-2.243 -0.862,-3.648 -0.274,-4.414c0.218,-0.283 0.626,-0.606 1.389,-0.548c0.823,0.067 1.466,0.298 2.03,0.502" style="fill:#056db6;fill-rule:nonzero;"/><path d="M337.659,30.405l7.11,0.021c-0.034,-0.09 -0.077,-0.182 -0.132,-0.275c-0.605,-1.047 -1.534,-2.221 -2.517,-3.464c-1.976,-2.495 -4.017,-5.077 -3.737,-7.117c0.6,-4.38 -0.61,-8.503 -3.498,-11.925c-3.738,-4.429 -9.886,-7.246 -16.532,-7.598l-0.026,9.117c-0.003,0.973 0.073,1.769 0.224,2.365c0.074,0.287 0.295,0.954 0.605,0.905c0.062,-0.007 0.132,-0.029 0.213,-0.064c0.567,-0.254 0.977,-0.589 1.375,-0.914c0.828,-0.675 1.688,-1.364 3.638,-1.062c0.612,0.098 1.173,0.306 1.67,0.62c1.649,1.04 2.457,3.18 2.009,5.323c-0.418,1.999 -1.804,3.366 -3.709,3.656c-1.954,0.301 -2.808,-0.402 -3.629,-1.082c-0.396,-0.327 -0.805,-0.666 -1.376,-0.923c-0.25,-0.115 -0.347,-0.057 -0.385,-0.034c-0.116,0.069 -0.507,0.428 -0.633,2.134c-0.024,0.33 -0.036,0.695 -0.038,1.099l-0.028,9.158l7.374,0.024c2.11,0.006 3.415,0.325 3.989,0.978c0.262,0.301 0.376,0.67 0.326,1.065c-0.024,0.173 -0.074,0.345 -0.153,0.516c-0.315,0.696 -0.716,1.182 -1.07,1.61c-0.626,0.759 -1.079,1.307 -0.852,2.794c0.305,2.013 2.099,2.918 3.741,2.924l0.014,0c1.637,0 3.427,-0.896 3.746,-2.901c0.235,-1.486 -0.215,-2.036 -0.837,-2.799l-0.285,-0.356c-0.233,-0.3 -0.533,-0.716 -0.778,-1.264c-0.288,-0.648 -0.13,-1.122 0.056,-1.405c0.504,-0.776 1.768,-1.159 4.125,-1.126" style="fill:#28b573;"/><path d="M302.236,61.769l14.871,0l0.028,-9.184c0.001,-0.448 -0.016,-0.839 -0.044,-1.195c-0.042,-0.58 -0.121,-1.05 -0.231,-1.396l-0.171,-0.407c-0.164,-0.285 -0.299,-0.337 -0.591,-0.208c-0.57,0.255 -0.982,0.591 -1.38,0.915c-0.675,0.551 -1.374,1.121 -2.67,1.138c-0.292,0.021 -0.606,-0.019 -0.968,-0.076c-0.909,-0.145 -1.692,-0.527 -2.328,-1.135c-1.33,-1.273 -1.82,-3.414 -1.215,-5.329c0.547,-1.729 1.849,-2.872 3.573,-3.135c1.955,-0.304 2.808,0.405 3.629,1.084c0.398,0.327 0.806,0.665 1.376,0.924c0.256,0.114 0.356,0.052 0.392,0.027c0.154,-0.099 0.655,-0.624 0.664,-3.228l0.028,-9.16l-7.375,-0.022c-2.307,-0.007 -3.616,-0.373 -4.115,-1.15c-0.183,-0.285 -0.339,-0.76 -0.047,-1.407c0.251,-0.553 0.552,-0.964 0.784,-1.259l0.384,-0.471c0.481,-0.588 0.797,-1.036 0.814,-1.89c0.006,-0.233 -0.013,-0.493 -0.058,-0.786c-0.306,-2.013 -2.1,-2.92 -3.742,-2.924l-0.014,0c-1.637,0 -3.427,0.895 -3.745,2.901c-0.047,0.293 -0.066,0.553 -0.062,0.787c0.008,0.617 0.193,0.999 0.373,1.291c0.155,0.251 0.339,0.477 0.53,0.715c0.35,0.433 0.744,0.925 1.057,1.625c0.29,0.649 0.131,1.122 -0.054,1.406c-0.5,0.768 -1.789,1.126 -4.058,1.127c-0.023,0 -0.045,-0.001 -0.068,-0.001l-4.39,-0.013c1.24,4.223 3.633,7.134 5.951,9.954c4.112,5.002 7.969,9.803 2.872,20.482" style="fill:#faad1d;fill-rule:nonzero;"/><path d="M317.873,49.672c0.133,0.427 0.228,0.977 0.276,1.637c0.032,0.381 0.049,0.799 0.047,1.28l-0.028,9.181l6.785,0c0.863,-3.896 2.128,-6.673 4.189,-9.22c1.154,-1.423 3.586,-1.427 5.937,-1.43c1.135,-0.002 2.207,-0.004 3.061,-0.162c1.189,-0.22 2.02,-0.696 2.471,-1.412c0.839,-1.333 0.301,-3.319 -0.021,-4.506c-0.146,-0.544 -0.235,-0.873 -0.207,-1.131c0.059,-0.552 0.427,-0.914 0.722,-1.206c0.471,-0.462 0.694,-0.681 -0.17,-1.629c-0.275,-0.04 -0.974,-0.049 -1.219,-0.052c-0.396,-0.006 -0.681,-0.009 -0.805,-0.366l-0.094,-0.269l0.325,-0.44l0.329,-0.04c0.693,-0.096 1.481,-0.27 1.641,-0.367c1.203,-0.904 0.999,-1.214 0.455,-2.041c-0.447,-0.681 -1.061,-1.613 -0.648,-2.996c0.173,-0.581 0.852,-0.971 1.713,-1.465c0.751,-0.431 1.647,-0.945 2.032,-1.55l-7.008,-0.022l-0.062,0c-2.552,0 -3.07,0.492 -3.17,0.644c-0.025,0.038 -0.089,0.138 0.026,0.395c0.197,0.441 0.435,0.775 0.644,1.045l0.268,0.334c0.676,0.828 1.374,1.682 1.063,3.638c-0.415,2.624 -2.705,3.796 -4.793,3.796l-0.017,0c-2.093,-0.006 -4.387,-1.191 -4.789,-3.825c-0.297,-1.957 0.404,-2.807 1.084,-3.63c0.326,-0.396 0.665,-0.806 0.922,-1.376c0.037,-0.078 0.059,-0.148 0.066,-0.211c0.012,-0.091 -0.007,-0.155 -0.071,-0.227c-0.161,-0.183 -0.795,-0.611 -3.194,-0.619l-7.373,-0.022l-0.028,9.161c-0.006,2.31 -0.373,3.618 -1.151,4.118c-0.281,0.181 -0.758,0.34 -1.405,0.045c-0.698,-0.317 -1.183,-0.718 -1.612,-1.072c-0.757,-0.626 -1.307,-1.079 -2.795,-0.853c-1.307,0.2 -2.297,1.076 -2.717,2.404c-0.479,1.514 -0.095,3.259 0.933,4.243c0.477,0.457 1.07,0.743 1.762,0.853c0.29,0.046 0.541,0.057 0.788,0.064c0.924,-0.013 1.379,-0.384 2.01,-0.898c0.432,-0.351 0.919,-0.75 1.621,-1.063c0.785,-0.351 1.509,-0.104 1.943,0.648c0,0 0.192,0.383 0.264,0.614" style="fill:#056db6;fill-rule:nonzero;"/><path d="M318.42,17.041c0.278,-0.166 0.738,-0.303 1.366,-0.022c0.698,0.317 1.183,0.719 1.612,1.072c0.757,0.626 1.305,1.076 2.795,0.853c1.446,-0.221 2.504,-1.277 2.828,-2.823c0.352,-1.685 -0.281,-3.416 -1.537,-4.21c-0.374,-0.236 -0.8,-0.393 -1.269,-0.467c-1.486,-0.235 -2.038,0.213 -2.8,0.835c-0.43,0.352 -0.917,0.751 -1.618,1.063c-0.181,0.079 -0.35,0.126 -0.516,0.146c-0.479,0.056 -1.35,-0.082 -1.761,-1.698c-0.175,-0.691 -0.258,-1.551 -0.254,-2.628l0.026,-9.16l-0.545,-0.002c-5.659,0.047 -11.077,1.895 -15.66,5.345l-0.003,0.002c-9.771,7.261 -8.813,19.594 -8.286,23.201c0.079,0.551 0.19,1.118 0.334,1.723l4.674,0.014l0.063,0c2.552,0 3.072,-0.492 3.17,-0.643c0.024,-0.038 0.09,-0.138 -0.024,-0.394c-0.258,-0.575 -0.594,-0.99 -0.916,-1.392c-0.22,-0.274 -0.429,-0.536 -0.607,-0.824c-0.358,-0.581 -0.522,-1.147 -0.53,-1.835c-0.005,-0.287 0.019,-0.607 0.076,-0.967c0.413,-2.625 2.704,-3.796 4.791,-3.796l0.019,0c2.092,0.006 4.385,1.19 4.788,3.825c0.055,0.36 0.075,0.68 0.07,0.968c-0.024,1.189 -0.492,1.854 -1.053,2.54l-0.374,0.457c-0.197,0.249 -0.447,0.591 -0.649,1.04c-0.115,0.256 -0.053,0.357 -0.027,0.394c0.097,0.154 0.621,0.655 3.226,0.664l7.373,0.021l0.028,-9.16c0.001,-0.432 0.013,-0.822 0.041,-1.174c0.118,-1.607 0.493,-2.578 1.149,-2.968" style="fill:#00aac6;fill-rule:nonzero;"/></g></svg>