<?xml version="1.0" encoding="UTF-8" standalone="no"?><!DOCTYPE svg PUBLIC "-//W3C//DTD SVG 1.1//EN" "http://www.w3.org/Graphics/SVG/1.1/DTD/svg11.dtd"><svg width="100%" height="100%" viewBox="0 0 40 46" version="1.1" xmlns="http://www.w3.org/2000/svg" xmlns:xlink="http://www.w3.org/1999/xlink" xml:space="preserve" xmlns:serif="http://www.serif.com/" style="fill-rule:evenodd;clip-rule:evenodd;stroke-linejoin:round;stroke-miterlimit:2;"><g id="Layer-1" serif:id="Layer 1"><path d="M15.031,14.431l0.009,0l-0.009,0Zm-6.666,-12.598c-0.161,0 -0.323,0.012 -0.487,0.035c-1.627,0.233 -3,1.765 -3.266,3.643c-0.226,1.593 0.27,3.153 1.327,4.173c0.111,0.107 0.353,0.351 0.687,0.685c2.955,2.974 4.835,4.76 5.603,5.325c0.301,-0.225 0.924,-0.742 2.164,-1.922l3.44,-3.393c0.34,-0.34 0.587,-0.589 0.699,-0.696c1.054,-1.019 1.551,-2.579 1.325,-4.173c-0.112,-0.786 -0.415,-1.527 -0.875,-2.144c-0.625,-0.834 -1.474,-1.367 -2.391,-1.498c-0.663,-0.096 -1.307,0.003 -1.911,0.29c-0.667,0.317 -1.243,0.847 -1.665,1.534c-0.166,0.27 -0.462,0.435 -0.781,0.435c-0.318,0 -0.613,-0.165 -0.781,-0.435c-0.732,-1.189 -1.86,-1.859 -3.088,-1.859m3.869,15.816c-0.612,0 -1.236,-0.279 -6.91,-5.986c-0.32,-0.321 -0.554,-0.557 -0.66,-0.66c-1.478,-1.426 -2.176,-3.576 -1.869,-5.75c0.384,-2.711 2.368,-4.849 4.823,-5.202c1.718,-0.242 3.399,0.379 4.616,1.659c0.483,-0.507 1.042,-0.917 1.658,-1.21c0.923,-0.437 1.945,-0.591 2.958,-0.449c1.403,0.201 2.682,0.987 3.601,2.215c0.645,0.863 1.068,1.895 1.223,2.986c0.307,2.175 -0.392,4.325 -1.868,5.751c-0.109,0.105 -0.347,0.344 -0.671,0.67l-0.556,0.558l-2.905,2.854c-0.003,0.004 -0.007,0.007 -0.01,0.011c-2.504,2.38 -2.966,2.553 -3.43,2.553" style="fill:#00aac5;fill-rule:nonzero;"/><path d="M12.234,30.989c-6.746,0 -12.234,-5.489 -12.234,-12.234l0,-9.235c0,-2.008 1.633,-3.64 3.64,-3.64c0.508,0 0.918,0.41 0.918,0.917c0,0.506 -0.41,0.917 -0.918,0.917c-0.996,0 -1.805,0.81 -1.805,1.806l0,9.235c0,5.733 4.665,10.399 10.399,10.399c5.734,0 10.4,-4.666 10.4,-10.399l0,-9.235c0,-0.996 -0.81,-1.806 -1.806,-1.806c-0.507,0 -0.93,-0.411 -0.93,-0.917c0,-0.507 0.399,-0.917 0.906,-0.917l0.024,0c2.008,0 3.64,1.632 3.64,3.64l0,9.235c0,6.745 -5.488,12.234 -12.234,12.234" style="fill:#00aac5;fill-rule:nonzero;"/><path d="M23.231,45.866c-6.569,0 -11.914,-5.345 -11.914,-11.914l0,-3.881c0,-0.507 0.411,-0.917 0.917,-0.917c0.508,0 0.918,0.41 0.918,0.917l0,3.881c0,5.558 4.521,10.079 10.079,10.079c5.558,0 10.079,-4.521 10.079,-10.079l0,-1.601c0,-0.506 0.41,-0.918 0.917,-0.918c0.507,0 0.918,0.412 0.918,0.918l0,1.601c0,6.569 -5.345,11.914 -11.914,11.914" style="fill:#00aac5;fill-rule:nonzero;"/><path d="M34.227,25.368c-1.671,0 -3.032,1.361 -3.032,3.033c0,1.672 1.361,3.032 3.032,3.032c1.673,0 3.033,-1.36 3.033,-3.032c0,-1.672 -1.36,-3.033 -3.033,-3.033m0,7.9c-2.684,0 -4.867,-2.182 -4.867,-4.867c0,-2.683 2.183,-4.868 4.867,-4.868c2.684,0 4.868,2.185 4.868,4.868c0,2.685 -2.184,4.867 -4.868,4.867" style="fill:#00aac5;fill-rule:nonzero;"/></g></svg>