<?xml version="1.0" encoding="UTF-8" standalone="no"?><!DOCTYPE svg PUBLIC "-//W3C//DTD SVG 1.1//EN" "http://www.w3.org/Graphics/SVG/1.1/DTD/svg11.dtd"><svg width="100%" height="100%" viewBox="0 0 32 32" version="1.1" xmlns="http://www.w3.org/2000/svg" xmlns:xlink="http://www.w3.org/1999/xlink" xml:space="preserve" xmlns:serif="http://www.serif.com/" style="fill-rule:evenodd;clip-rule:evenodd;stroke-linejoin:round;stroke-miterlimit:2;"><g id="Layer-1" serif:id="Layer 1"><path d="M23.326,22.21c0.053,0.174 0.083,0.345 0.091,0.511c0.236,-0.151 0.483,-0.304 0.74,-0.459l3.041,-1.842l-0.184,-0.236c-0.34,-0.439 -0.931,-0.583 -1.435,-0.351l-2.917,1.338c0.308,0.281 0.54,0.638 0.664,1.039m-1.03,2.673c-0.113,0 -0.224,-0.029 -0.324,-0.088c-0.205,-0.12 -0.326,-0.343 -0.315,-0.58l0.025,-0.551c0.009,-0.18 0.093,-0.349 0.233,-0.463c0.218,-0.179 0.27,-0.352 0.19,-0.615l-0.001,0c-0.129,-0.419 -0.527,-0.735 -1.015,-0.806c-0.281,-0.04 -0.501,-0.26 -0.542,-0.54c-0.04,-0.281 0.108,-0.554 0.366,-0.673l4.133,-1.896c1.045,-0.479 2.27,-0.18 2.976,0.727l0.626,0.803c0.112,0.144 0.157,0.329 0.124,0.508c-0.033,0.18 -0.141,0.336 -0.297,0.431l-3.656,2.215c-0.787,0.476 -1.47,0.923 -2.087,1.369l-0.099,0.063c-0.104,0.065 -0.221,0.096 -0.337,0.096" style="fill:#00aac5;fill-rule:nonzero;"/><path d="M16.654,24.565c0.492,0.487 1.166,0.993 1.911,1.09c0.623,0.083 1.215,-0.14 1.807,-0.677c0.155,-0.142 0.312,-0.278 0.471,-0.413l-4.189,0Zm0.309,7.368c-0.455,0 -0.911,-0.074 -1.348,-0.225l-9.507,-3.292c-0.655,-0.229 -1.369,-0.21 -2.012,0.052l-3.216,1.307c-0.329,0.132 -0.7,-0.025 -0.832,-0.352c-0.133,-0.327 0.024,-0.699 0.35,-0.832l3.218,-1.307c0.93,-0.377 1.964,-0.403 2.91,-0.076l9.507,3.293c0.848,0.293 1.798,0.168 2.54,-0.335l4.872,-3.303c1.801,-1.221 3.549,-2.557 5.195,-3.97l1.688,-1.447c0.251,-0.216 0.287,-0.589 0.081,-0.848c-0.192,-0.243 -0.536,-0.304 -0.8,-0.144l-4.79,2.901c-1.131,0.685 -2.441,1.525 -3.589,2.568c-0.876,0.796 -1.829,1.131 -2.836,0.998c-1.668,-0.221 -2.946,-1.71 -3.428,-2.356l-3.057,0c-0.353,0 -0.639,-0.285 -0.639,-0.639c0,-0.352 0.286,-0.638 0.639,-0.638l9.895,0c0.396,-0.254 0.368,-0.485 0.301,-0.702c-0.13,-0.418 -0.528,-0.735 -1.016,-0.805l-11.499,-1.651c-0.64,-0.093 -1.303,-0.027 -1.915,0.19l-6.423,2.271c-0.333,0.117 -0.698,-0.056 -0.816,-0.389c-0.117,-0.332 0.057,-0.698 0.39,-0.815l6.424,-2.271c0.805,-0.284 1.675,-0.372 2.521,-0.251l11.499,1.651c0.976,0.141 1.782,0.806 2.056,1.695c0.053,0.173 0.083,0.343 0.092,0.507c0.252,-0.159 0.5,-0.31 0.739,-0.456l4.79,-2.901c0.814,-0.492 1.873,-0.303 2.464,0.443c0.633,0.8 0.522,1.947 -0.251,2.611l-1.689,1.448c-1.682,1.444 -3.469,2.809 -5.309,4.057l-4.872,3.303c-0.692,0.469 -1.507,0.71 -2.327,0.71" style="fill:#00aac5;fill-rule:nonzero;"/><path d="M13.342,9.447c-2.543,0 -4.611,-2.068 -4.611,-4.611l0,-2.591c0,-1.238 1.007,-2.245 2.244,-2.245c0.352,0 0.638,0.285 0.638,0.638c0,0.353 -0.286,0.639 -0.638,0.639c-0.533,0 -0.967,0.435 -0.967,0.968l0,2.591c0,1.839 1.495,3.334 3.334,3.334c1.838,0 3.334,-1.495 3.334,-3.334l0,-2.591c0,-0.533 -0.434,-0.968 -0.967,-0.968c-0.353,0 -0.638,-0.286 -0.638,-0.639c0,-0.353 0.285,-0.638 0.638,-0.638c1.237,0 2.244,1.007 2.244,2.245l0,2.591c0,2.543 -2.068,4.611 -4.611,4.611" style="fill:#00aac5;fill-rule:nonzero;"/><path d="M17.203,16.957c-2.48,0 -4.499,-2.019 -4.499,-4.499l0,-3.649c0,-0.353 0.286,-0.639 0.639,-0.639c0.352,0 0.638,0.286 0.638,0.639l0,3.649c0,1.776 1.446,3.222 3.222,3.222c1.776,0 3.222,-1.446 3.222,-3.222l0,-2.849c0,-0.352 0.286,-0.638 0.638,-0.638c0.353,0 0.639,0.286 0.639,0.638l0,2.849c0,2.48 -2.019,4.499 -4.499,4.499" style="fill:#00aac5;fill-rule:nonzero;"/><path d="M21.063,7.475c-0.413,0 -0.748,0.336 -0.748,0.749c0,0.412 0.335,0.747 0.748,0.747c0.412,0 0.748,-0.335 0.748,-0.747c0,-0.413 -0.336,-0.749 -0.748,-0.749m0,2.773c-1.117,0 -2.025,-0.908 -2.025,-2.024c0,-1.117 0.908,-2.026 2.025,-2.026c1.117,0 2.025,0.909 2.025,2.026c0,1.116 -0.908,2.024 -2.025,2.024" style="fill:#00aac5;fill-rule:nonzero;"/></g></svg>