<?xml version="1.0" encoding="UTF-8" standalone="no"?><!DOCTYPE svg PUBLIC "-//W3C//DTD SVG 1.1//EN" "http://www.w3.org/Graphics/SVG/1.1/DTD/svg11.dtd"><svg width="100%" height="100%" viewBox="0 0 28 32" version="1.1" xmlns="http://www.w3.org/2000/svg" xmlns:xlink="http://www.w3.org/1999/xlink" xml:space="preserve" xmlns:serif="http://www.serif.com/" style="fill-rule:evenodd;clip-rule:evenodd;stroke-linejoin:round;stroke-miterlimit:2;"><g id="Layer-1" serif:id="Layer 1"><path d="M13.722,1.277c-3.552,0 -6.441,3.344 -6.441,7.454c0,4.109 2.889,7.453 6.441,7.453c3.553,0 6.442,-3.344 6.442,-7.453c0,-4.11 -2.889,-7.454 -6.442,-7.454m0,16.185c-4.256,0 -7.719,-3.917 -7.719,-8.731c0,-4.814 3.463,-8.731 7.719,-8.731c4.257,0 7.72,3.917 7.72,8.731c0,4.814 -3.463,8.731 -7.72,8.731" style="fill:#00aac5;fill-rule:nonzero;"/><path d="M10.946,19.539c-0.283,0 -0.541,-0.188 -0.617,-0.475c-0.231,-0.872 -0.339,-1.842 -0.339,-3.054c0,-0.354 0.287,-0.639 0.639,-0.639c0.353,0 0.639,0.285 0.639,0.639c0,1.098 0.094,1.965 0.296,2.727c0.09,0.34 -0.113,0.691 -0.454,0.781c-0.055,0.014 -0.11,0.021 -0.164,0.021" style="fill:#00aac5;fill-rule:nonzero;"/><path d="M16.501,19.539c-0.054,0 -0.108,-0.007 -0.164,-0.021c-0.341,-0.09 -0.544,-0.441 -0.453,-0.781c0.202,-0.761 0.296,-1.628 0.296,-2.727c0,-0.354 0.286,-0.639 0.638,-0.639c0.353,0 0.639,0.285 0.639,0.639c0,1.213 -0.107,2.183 -0.339,3.054c-0.076,0.287 -0.334,0.475 -0.617,0.475" style="fill:#00aac5;fill-rule:nonzero;"/><path d="M13.765,24.693l-0.084,0c-0.227,0 -0.437,-0.121 -0.551,-0.316l-0.245,-0.419c-0.264,-0.441 -0.511,-0.841 -0.74,-1.21c-0.847,-1.371 -1.46,-2.361 -1.816,-3.681c-0.092,-0.341 0.11,-0.691 0.451,-0.783c0.341,-0.092 0.691,0.11 0.782,0.45c0.308,1.141 0.849,2.017 1.669,3.341c0.156,0.252 0.32,0.516 0.492,0.8c0.173,-0.285 0.336,-0.549 0.492,-0.8c0.82,-1.325 1.361,-2.2 1.669,-3.341c0.091,-0.342 0.442,-0.542 0.783,-0.45c0.34,0.092 0.542,0.442 0.45,0.783c-0.357,1.32 -0.968,2.31 -1.816,3.68c-0.229,0.37 -0.476,0.77 -0.743,1.216l-0.242,0.414c-0.114,0.195 -0.324,0.316 -0.551,0.316" style="fill:#00aac5;fill-rule:nonzero;"/><path d="M10.543,19.742l-7.977,4.05c-0.795,0.403 -1.289,1.208 -1.289,2.099l0,4.767l24.886,0l0,-4.768c0,-0.891 -0.494,-1.695 -1.287,-2.098l-7.972,-4.05c-0.368,1.009 -0.906,1.878 -1.603,3.005c-0.229,0.37 -0.476,0.77 -0.742,1.216l-0.243,0.414c-0.114,0.195 -0.324,0.316 -0.551,0.316l-0.084,0c-0.226,0 -0.436,-0.121 -0.551,-0.316l-0.245,-0.419c-0.263,-0.441 -0.511,-0.841 -0.74,-1.21c-0.697,-1.127 -1.235,-1.997 -1.602,-3.006m15.62,12.193l-24.886,0c-0.704,0 -1.277,-0.573 -1.277,-1.277l0,-4.767c0,-1.376 0.761,-2.616 1.987,-3.238l8.514,-4.322c0.09,-0.046 0.189,-0.069 0.289,-0.069l0.156,0c0.289,0 0.541,0.193 0.617,0.472c0.307,1.141 0.849,2.017 1.668,3.341c0.156,0.252 0.32,0.517 0.492,0.8c0.173,-0.284 0.337,-0.549 0.492,-0.8c0.82,-1.325 1.361,-2.2 1.669,-3.341c0.076,-0.279 0.328,-0.472 0.617,-0.472l0.155,0c0.1,0 0.2,0.023 0.29,0.069l8.508,4.322c1.225,0.622 1.986,1.862 1.986,3.237l0,4.768c0,0.704 -0.572,1.277 -1.277,1.277" style="fill:#00aac5;fill-rule:nonzero;"/><path d="M17.212,7.539c-1.962,0 -3.466,-0.629 -3.724,-0.744c-0.013,-0.005 -0.025,-0.011 -0.037,-0.016c-3.063,-1.426 -6.167,-0.013 -6.198,0c-0.32,0.149 -0.7,0.011 -0.849,-0.309c-0.149,-0.32 -0.01,-0.7 0.309,-0.849c0.148,-0.068 3.66,-1.668 7.248,-0.014c0.01,0.004 0.021,0.009 0.031,0.014c0.031,0.014 3.153,1.42 6.199,0c0.32,-0.148 0.7,-0.011 0.849,0.31c0.149,0.319 0.01,0.7 -0.309,0.848c-1.224,0.57 -2.441,0.76 -3.519,0.76" style="fill:#00aac5;fill-rule:nonzero;"/><path d="M19.756,24.203c-0.354,0 -0.639,-0.285 -0.639,-0.639l0,-2.466c0,-0.353 0.285,-0.639 0.639,-0.639c0.353,0 0.639,0.286 0.639,0.639l0,2.466c0,0.354 -0.286,0.639 -0.639,0.639" style="fill:#00aac5;fill-rule:nonzero;"/><path d="M7.357,24.203c-0.353,0 -0.639,-0.285 -0.639,-0.639l0,-2.466c0,-0.353 0.286,-0.639 0.639,-0.639c0.353,0 0.639,0.286 0.639,0.639l0,2.466c0,0.354 -0.286,0.639 -0.639,0.639" style="fill:#00aac5;fill-rule:nonzero;"/><path d="M19.756,24.293c-0.504,0 -0.914,0.41 -0.914,0.914c0,0.503 0.41,0.913 0.914,0.913c0.503,0 0.913,-0.41 0.913,-0.913c0,-0.504 -0.41,-0.914 -0.913,-0.914m0,3.104c-1.208,0 -2.191,-0.982 -2.191,-2.19c0,-1.208 0.983,-2.191 2.191,-2.191c1.208,0 2.19,0.983 2.19,2.191c0,1.208 -0.982,2.19 -2.19,2.19" style="fill:#00aac5;fill-rule:nonzero;"/><path d="M9.978,29.119c-0.353,0 -0.639,-0.286 -0.639,-0.639l0,-2.229c0,-1.094 -0.889,-1.984 -1.982,-1.984c-1.093,0 -1.983,0.89 -1.983,1.984l0,2.229c0,0.353 -0.286,0.639 -0.638,0.639c-0.353,0 -0.639,-0.286 -0.639,-0.639l0,-2.229c0,-1.798 1.463,-3.261 3.26,-3.261c1.797,0 3.26,1.463 3.26,3.261l0,2.229c0,0.353 -0.286,0.639 -0.639,0.639" style="fill:#00aac5;fill-rule:nonzero;"/></g></svg>