<?xml version="1.0" encoding="UTF-8" standalone="no"?><!DOCTYPE svg PUBLIC "-//W3C//DTD SVG 1.1//EN" "http://www.w3.org/Graphics/SVG/1.1/DTD/svg11.dtd"><svg width="100%" height="100%" viewBox="0 0 37 48" version="1.1" xmlns="http://www.w3.org/2000/svg" xmlns:xlink="http://www.w3.org/1999/xlink" xml:space="preserve" xmlns:serif="http://www.serif.com/" style="fill-rule:evenodd;clip-rule:evenodd;stroke-linecap:round;stroke-miterlimit:10;"><g id="Layer-1" serif:id="Layer 1"><path d="M32.75,41.25l0,-12.5c0,-1.657 -1.343,-3 -3,-3l-8.024,0" style="fill:none;fill-rule:nonzero;stroke:#00aac5;stroke-width:1.5px;"/><path d="M19.947,7.75l1.803,-1l0,-3.127c0,-0.698 -0.255,-1.373 -0.716,-1.897c-0.545,-0.621 -1.331,-0.976 -2.157,-0.976l-0.626,0c-0.935,0 -1.859,0.351 -2.494,1.036c-0.933,1.005 -0.909,2.147 -0.46,3.106c0.385,0.828 0.658,1.703 0.669,2.617l0.002,0.241c-0.921,2.141 -1.368,6.457 -1.307,8.787l0.089,8.213" style="fill:none;fill-rule:nonzero;stroke:#00aac5;stroke-width:1.5px;"/><path d="M18.128,16.75l4,4l8.219,-0.02c1.03,0.163 1.927,-0.712 1.789,-1.747c-0.083,-0.626 -0.536,-1.14 -1.148,-1.302l-6.86,-1.014l-4,-6.25" style="fill:none;fill-rule:nonzero;stroke:#00aac5;stroke-width:1.5px;"/><path d="M10.75,24.75l0,-15l-4.75,0" style="fill:none;fill-rule:nonzero;stroke:#00aac5;stroke-width:1.5px;"/><path d="M33.75,43.625c0,-1.725 -1.4,-3.125 -3.125,-3.125c-1.725,0 -3.125,1.4 -3.125,3.125c0,1.725 1.4,3.125 3.125,3.125c1.725,0 3.125,-1.4 3.125,-3.125Z" style="fill:none;stroke:#00aac5;stroke-width:1.5px;"/><path d="M30.625,46.75l5.25,0" style="fill:none;fill-rule:nonzero;stroke:#00aac5;stroke-width:1.5px;"/><path d="M22.75,35.75c0,-6.071 -4.929,-11 -11,-11c-6.071,0 -11,4.929 -11,11c0,6.071 4.929,11 11,11c6.071,0 11,-4.929 11,-11Z" style="fill:none;stroke:#00aac5;stroke-width:1.5px;"/><path d="M23.128,20.75l-12.128,0" style="fill:none;fill-rule:nonzero;stroke:#00aac5;stroke-width:1.5px;"/><path d="M18.875,35.625c0,-3.863 -3.137,-7 -7,-7c-3.863,0 -7,3.137 -7,7c0,3.863 3.137,7 7,7c3.863,0 7,-3.137 7,-7Z" style="fill:none;stroke:#00aac5;stroke-width:1.5px;"/><path d="M12.75,35.75c0,0.553 -0.447,1 -1,1c-0.553,0 -1,-0.447 -1,-1c0,-0.553 0.447,-1 1,-1c0.553,0 1,0.447 1,1" style="fill:#00aac5;fill-rule:nonzero;stroke:#00aac5;stroke-width:1px;stroke-linecap:butt;stroke-linejoin:round;stroke-miterlimit:2;"/><path d="M28.625,40.5l-0.875,-9.75l-6,0" style="fill:none;fill-rule:nonzero;stroke:#00aac5;stroke-width:1.5px;"/><path d="M26.25,20.941l0,4.809" style="fill:none;fill-rule:nonzero;stroke:#00aac5;stroke-width:1.5px;"/></g></svg>