<?xml version="1.0" encoding="UTF-8" standalone="no"?><!DOCTYPE svg PUBLIC "-//W3C//DTD SVG 1.1//EN" "http://www.w3.org/Graphics/SVG/1.1/DTD/svg11.dtd"><svg width="100%" height="100%" viewBox="0 0 102 108" version="1.1" xmlns="http://www.w3.org/2000/svg" xmlns:xlink="http://www.w3.org/1999/xlink" xml:space="preserve" xmlns:serif="http://www.serif.com/" style="fill-rule:evenodd;clip-rule:evenodd;stroke-linejoin:round;stroke-miterlimit:2;"><g id="Layer-1" serif:id="Layer 1"><path d="M47.977,107.519c-18.063,0 -32.757,-14.695 -32.757,-32.758c0,-6.071 1.675,-12 4.844,-17.149c0.578,-0.941 1.811,-1.236 2.751,-0.655c0.941,0.579 1.234,1.811 0.655,2.751c-2.78,4.518 -4.25,9.723 -4.25,15.053c0,15.858 12.901,28.758 28.757,28.758c15.854,0 28.754,-12.9 28.754,-28.758c0,-4.766 -1.189,-9.485 -3.437,-13.646c-0.524,-0.971 -0.163,-2.185 0.809,-2.71c0.972,-0.524 2.185,-0.164 2.711,0.809c2.562,4.743 3.917,10.119 3.917,15.547c0,18.063 -14.693,32.758 -32.754,32.758" style="fill:#00aac5;fill-rule:nonzero;"/><path d="M47.977,107.325c-8.993,0 -16.037,-14.304 -16.037,-32.563c0,-2.675 0.154,-5.331 0.459,-7.893c0.131,-1.097 1.133,-1.882 2.223,-1.749c1.096,0.13 1.879,1.125 1.75,2.222c-0.287,2.406 -0.432,4.902 -0.432,7.42c0,16.833 6.344,28.563 12.037,28.563c5.692,0 12.034,-11.73 12.034,-28.563c0,-2.176 -0.108,-4.341 -0.321,-6.437c-0.112,-1.099 0.687,-2.081 1.786,-2.192c1.107,-0.11 2.081,0.688 2.192,1.787c0.228,2.229 0.343,4.531 0.343,6.842c0,18.259 -7.043,32.563 -16.034,32.563" style="fill:#00aac5;fill-rule:nonzero;"/><path d="M75.792,87.539l-56.206,0c-1.105,0 -2,-0.896 -2,-2c0,-1.104 0.895,-2 2,-2l56.206,0c1.104,0 2,0.896 2,2c0,1.104 -0.896,2 -2,2" style="fill:#00aac5;fill-rule:nonzero;"/><path d="M6.414,25.572l41.97,21.33l41.968,-21.33l-41.968,-21.329l-41.97,21.329Zm41.97,25.573c-0.311,0 -0.621,-0.072 -0.907,-0.217l-46.383,-23.573c-0.671,-0.341 -1.094,-1.03 -1.094,-1.783c0,-0.753 0.423,-1.442 1.094,-1.783l46.383,-23.572c0.571,-0.29 1.243,-0.29 1.813,0l46.382,23.572c0.671,0.341 1.094,1.03 1.094,1.783c0,0.753 -0.423,1.442 -1.094,1.783l-46.382,23.573c-0.285,0.145 -0.596,0.217 -0.906,0.217" style="fill:#00aac5;fill-rule:nonzero;"/><path d="M48.384,70.892c-16.143,0 -28.316,-5.887 -28.316,-13.694l0,-20.62c0,-1.104 0.895,-2 2,-2c1.104,0 2,0.896 2,2l0,20.62c0,4.586 9.986,9.694 24.316,9.694c14.329,0 24.314,-5.108 24.314,-9.694l0,-20.62c0,-1.104 0.896,-2 2,-2c1.105,0 2,0.896 2,2l0,20.62c0,7.807 -12.172,13.694 -28.314,13.694" style="fill:#00aac5;fill-rule:nonzero;"/><path d="M94.518,80.819c-1.104,0 -2,-0.896 -2,-2l0,-52.477c0,-1.105 0.896,-2 2,-2c1.104,0 2,0.895 2,2l0,52.477c0,1.104 -0.896,2 -2,2" style="fill:#00aac5;fill-rule:nonzero;"/><path d="M89.649,78.578c-0.181,0 -0.364,-0.025 -0.546,-0.077c-1.062,-0.301 -1.681,-1.406 -1.379,-2.469l4.357,-15.379c0.3,-1.063 1.412,-1.681 2.468,-1.379c1.063,0.301 1.681,1.407 1.379,2.469l-4.356,15.378c-0.249,0.882 -1.051,1.457 -1.923,1.457" style="fill:#00aac5;fill-rule:nonzero;"/><path d="M99.899,78.064c-0.83,0 -1.606,-0.521 -1.892,-1.351l-5.637,-16.402c-0.359,-1.045 0.197,-2.183 1.241,-2.542c1.045,-0.359 2.183,0.196 2.542,1.242l5.638,16.402c0.358,1.045 -0.198,2.182 -1.242,2.542c-0.215,0.074 -0.434,0.109 -0.65,0.109" style="fill:#00aac5;fill-rule:nonzero;"/><path d="M46.46,22.369c0.537,0.387 1.922,0.947 3.975,0.947c2.051,0 3.436,-0.56 3.973,-0.947c-0.536,-0.387 -1.921,-0.947 -3.973,-0.947c-2.053,0 -3.438,0.56 -3.975,0.947m3.975,4.947c-4.724,0 -8.152,-2.08 -8.152,-4.947c0,-2.866 3.428,-4.947 8.152,-4.947c4.722,0 8.15,2.081 8.15,4.947c0,2.867 -3.428,4.947 -8.15,4.947" style="fill:#00aac5;fill-rule:nonzero;"/><path d="M93.751,27.829c-0.062,0 -0.124,-0.003 -0.187,-0.009l-37.165,-3.46c-1.099,-0.102 -1.908,-1.076 -1.805,-2.177c0.102,-1.099 1.053,-1.907 2.177,-1.805l37.164,3.46c1.099,0.102 1.908,1.076 1.805,2.177c-0.096,1.036 -0.968,1.814 -1.989,1.814" style="fill:#00aac5;fill-rule:nonzero;"/></g></svg>