<?xml version="1.0" encoding="utf-8"?>
<!-- Generator: Adobe Illustrator 21.0.2, SVG Export Plug-In . SVG Version: 6.00 Build 0)  -->
<svg version="1.1" id="Layer_1" xmlns="http://www.w3.org/2000/svg" xmlns:xlink="http://www.w3.org/1999/xlink" x="0px" y="0px"
	 viewBox="0 0 23.8 31.9" style="enable-background:new 0 0 23.8 31.9;" xml:space="preserve">
<style type="text/css">
	.st0{fill:#00AAC5;}
</style>
<g>
	<g>
		<path class="st0" d="M23.2,31.9H0.6c-0.4,0-0.6-0.3-0.6-0.6V0.6C0,0.3,0.3,0,0.6,0h22.5c0.4,0,0.6,0.3,0.6,0.6v30.7
			C23.8,31.6,23.5,31.9,23.2,31.9z M1.3,30.7h21.3V1.3H1.3V30.7z"/>
	</g>
	<g>
		<g>
			<path class="st0" d="M13.5,15.3h-3.2c-0.4,0-0.6-0.3-0.6-0.6v-1.9H7.8c-0.4,0-0.6-0.3-0.6-0.6V8.9c0-0.4,0.3-0.6,0.6-0.6h1.9V6.4
				c0-0.4,0.3-0.6,0.6-0.6h3.2c0.4,0,0.6,0.3,0.6,0.6v1.9H16c0.4,0,0.6,0.3,0.6,0.6v3.2c0,0.4-0.3,0.6-0.6,0.6h-1.9v1.9
				C14.1,15,13.9,15.3,13.5,15.3z M11,14h1.9v-1.9c0-0.4,0.3-0.6,0.6-0.6h1.9V9.6h-1.9c-0.4,0-0.6-0.3-0.6-0.6V7.1H11v1.9
				c0,0.4-0.3,0.6-0.6,0.6H8.4v1.9h1.9c0.4,0,0.6,0.3,0.6,0.6V14z"/>
		</g>
		<g>
			<g>
				<path class="st0" d="M16,19.5H7.8c-0.4,0-0.6-0.3-0.6-0.6c0-0.4,0.3-0.6,0.6-0.6H16c0.4,0,0.6,0.3,0.6,0.6
					C16.7,19.2,16.4,19.5,16,19.5z"/>
			</g>
			<g>
				<path class="st0" d="M16,22.8H7.8c-0.4,0-0.6-0.3-0.6-0.6s0.3-0.6,0.6-0.6H16c0.4,0,0.6,0.3,0.6,0.6S16.4,22.8,16,22.8z"/>
			</g>
			<g>
				<path class="st0" d="M16,26.2H7.8c-0.4,0-0.6-0.3-0.6-0.6c0-0.4,0.3-0.6,0.6-0.6H16c0.4,0,0.6,0.3,0.6,0.6
					C16.7,25.9,16.4,26.2,16,26.2z"/>
			</g>
		</g>
	</g>
</g>
</svg>
