<?xml version="1.0" encoding="utf-8"?>
<!-- Generator: Adobe Illustrator 21.0.2, SVG Export Plug-In . SVG Version: 6.00 Build 0)  -->
<svg version="1.1" id="Layer_1" xmlns="http://www.w3.org/2000/svg" xmlns:xlink="http://www.w3.org/1999/xlink" x="0px" y="0px"
	 viewBox="0 0 132.2 155.9" style="enable-background:new 0 0 132.2 155.9;" xml:space="preserve">
<style type="text/css">
	.st0{fill:none;stroke:#D4555A;stroke-width:1.5;stroke-miterlimit:10;}
	.st1{fill:#D4555A;}
	.st2{fill:#F0F1F1;}
</style>
<g>
	<g>
		<g>
			<path class="st0" d="M43.6,79.5c-5.7,0-8.9-0.9-10.2-2.8c-0.5-0.7-0.8-1.9-0.1-3.5c0.6-1.4,1.4-2.4,1.9-3.1l0.9-1.2
				c1.2-1.5,2-2.6,2-4.7c0-0.6,0-1.2-0.1-1.9c-0.8-5-5.2-7.2-9.3-7.2c0,0,0,0,0,0c-4,0-8.5,2.2-9.3,7.2c-0.1,0.7-0.2,1.4-0.2,1.9
				c0,1.5,0.5,2.5,0.9,3.2c0.4,0.6,0.8,1.2,1.3,1.8c0.9,1.1,1.8,2.3,2.6,4c0.7,1.6,0.3,2.8-0.1,3.5c-1.2,1.9-4.4,2.8-10,2.8
				c-0.1,0-0.1,0-0.2,0L3,79.4c3.1,10.4,9,17.7,14.7,24.6c10.2,12.4,19.7,24.3,7.1,50.7h36.8h2.6h16.8c2.1-9.6,5.3-16.5,10.4-22.8
				c2.9-3.5,8.9-3.5,14.7-3.5c2.8,0,5.5,0,7.6-0.4c2.9-0.5,5-1.7,6.1-3.5c2.1-3.3,0.7-8.2-0.1-11.1c-0.4-1.3-0.6-2.2-0.5-2.8
				c0.1-1.4,1.1-2.3,1.8-3c1.2-1.1,1.7-1.7-0.4-4c-0.7-0.1-2.4-0.1-3-0.1c-1,0-1.7,0-2-0.9l-0.2-0.7l0.8-1.1l0.8-0.1
				c1.7-0.2,3.7-0.7,4.1-0.9c3-2.2,2.5-3,1.1-5.1c-1.1-1.7-2.6-4-1.6-7.4c0.4-1.4,2.1-2.4,4.2-3.6c1.9-1.1,4.1-2.3,5-3.8
				s0.3-2.6,0.3-2.6c-0.1-0.2-0.2-0.4-0.3-0.7c-1.5-2.6-3.8-5.5-6.2-8.6c-4.9-6.2-9.9-12.6-9.2-17.6c1.5-10.8-1.5-21-8.7-29.5
				C96.4,9.9,81.2,2.9,64.7,2l-0.1,22.6c0,2.4,0.2,4.4,0.6,5.9c0.2,0.7,0.7,2.4,1.5,2.2c0.2,0,0.3-0.1,0.5-0.2
				c1.4-0.6,2.4-1.5,3.4-2.3c2-1.7,4.2-3.4,9-2.6c1.5,0.2,2.9,0.8,4.1,1.5c4.1,2.6,6.1,7.9,5,13.2c-1,4.9-4.5,8.3-9.2,9
				c-4.8,0.7-6.9-1-9-2.7c-1-0.8-2-1.6-3.4-2.3c-0.6-0.3-0.9-0.1-1-0.1c-0.3,0.2-1.3,1.1-1.6,5.3c-0.1,0.8-0.1,1.7-0.1,2.7L64.5,77
				L82.8,77"/>
			<path class="st1" d="M64.9,44.1c0.7-0.4,1.8-0.8,3.4-0.1c1.7,0.8,2.9,1.8,4,2.7c1.9,1.5,3.2,2.7,6.9,2.1c3.6-0.5,6.2-3.2,7-7
				c0.9-4.2-0.7-8.5-3.8-10.4c-0.9-0.6-2-1-3.1-1.2c-3.7-0.6-5,0.5-6.9,2.1c-1.1,0.9-2.3,1.9-4,2.6c-0.4,0.2-0.9,0.3-1.3,0.4
				c-1.2,0.1-3.3-0.2-4.4-4.2c-0.4-1.7-0.6-3.8-0.6-6.5l0.1-22.7l-1.3,0C46.8,2,33.3,6.6,22,15.1l0,0C-2.2,33.1,0.2,63.6,1.5,72.5
				c0.2,1.4,0.5,2.8,0.8,4.3l11.6,0c0.1,0,0.1,0,0.2,0c6.3,0,7.6-1.2,7.8-1.6c0.1-0.1,0.2-0.3-0.1-1c-0.6-1.4-1.5-2.5-2.3-3.4
				c-0.5-0.7-1.1-1.3-1.5-2c-0.9-1.4-1.3-2.8-1.3-4.5c0-0.7,0-1.5,0.2-2.4c1-6.5,6.7-9.4,11.9-9.4c0,0,0,0,0,0
				c5.2,0,10.9,2.9,11.9,9.5c0.1,0.9,0.2,1.7,0.2,2.4c-0.1,2.9-1.2,4.6-2.6,6.3l-0.9,1.1c-0.5,0.6-1.1,1.5-1.6,2.6
				c-0.3,0.6-0.1,0.9-0.1,1c0.2,0.4,1.5,1.6,8,1.6L61.9,77L62,54.3c0-1.1,0-2,0.1-2.9C62.3,47.4,63.3,45,64.9,44.1z"/>
		</g>
		<g>
			<path class="st1" d="M63.5,124.8c0.3,1.1,0.6,2.4,0.7,4c0.1,0.9,0.1,2,0.1,3.2l-0.1,22.7h16.8c2.1-9.6,5.3-16.5,10.4-22.8
				c2.9-3.5,8.9-3.5,14.7-3.5c2.8,0,5.5,0,7.6-0.4c2.9-0.5,5-1.7,6.1-3.5c2.1-3.3,0.7-8.2-0.1-11.1c-0.4-1.3-0.6-2.2-0.5-2.8
				c0.1-1.4,1.1-2.3,1.8-3c1.2-1.1,1.7-1.7-0.4-4c-0.7-0.1-2.4-0.1-3-0.1c-1,0-1.7,0-2-0.9l-0.2-0.7l0.8-1.1l0.8-0.1
				c1.7-0.2,3.7-0.7,4.1-0.9c3-2.2,2.5-3,1.1-5.1c-1.1-1.7-2.6-4-1.6-7.4c0.4-1.4,2.1-2.4,4.2-3.6c1.9-1.1,4.1-2.3,5-3.8l-17.3-0.1
				c-0.1,0-0.1,0-0.2,0c-6.3,0-7.6,1.2-7.8,1.6c-0.1,0.1-0.2,0.3,0.1,1c0.5,1.1,1.1,1.9,1.6,2.6l0.7,0.8c1.7,2,3.4,4.2,2.6,9
				c-1,6.5-6.7,9.4-11.9,9.4c0,0,0,0,0,0c-5.2,0-10.9-2.9-11.9-9.5c-0.7-4.8,1-6.9,2.7-9c0.8-1,1.6-2,2.3-3.4
				c0.1-0.2,0.1-0.4,0.2-0.5c0-0.2,0-0.4-0.2-0.6c-0.4-0.5-2-1.5-7.9-1.5l-18.2-0.1l-0.1,22.7c0,5.7-0.9,9-2.8,10.2
				c-0.7,0.4-1.9,0.8-3.5,0.1c-1.7-0.8-2.9-1.8-4-2.7c-1.9-1.6-3.2-2.7-6.9-2.1c-3.2,0.5-5.7,2.7-6.7,5.9c-1.2,3.7-0.2,8.1,2.3,10.5
				c1.2,1.1,2.6,1.8,4.4,2.1c0.7,0.1,1.3,0.1,2,0.2c2.3,0,3.4-0.9,5-2.2c1.1-0.9,2.3-1.9,4-2.6c1.9-0.9,3.7-0.3,4.8,1.6
				C62.9,123.3,63.4,124.2,63.5,124.8z"/>
			<path class="st0" d="M82.8,77c5.2,0,8.5,0.8,9.9,2.4c0.7,0.7,0.9,1.7,0.8,2.6c-0.1,0.4-0.2,0.9-0.4,1.3c-0.8,1.7-1.8,2.9-2.6,4
				c-1.5,1.9-2.7,3.2-2.1,6.9c0.8,5,5.2,7.2,9.3,7.2c0,0,0,0,0,0c4,0,8.5-2.2,9.3-7.2c0.6-3.7-0.5-5-2.1-6.9l-0.7-0.9
				c-0.6-0.7-1.3-1.8-1.9-3.1c-0.7-1.6-0.3-2.8,0.1-3.5c1.2-1.9,4.4-2.9,10.2-2.8l17.6,0.1c-0.1-0.2-0.2-0.4-0.3-0.7
				c-1.5-2.6-3.8-5.5-6.2-8.6c-4.9-6.2-9.9-12.6-9.2-17.6c1.5-10.8-1.5-21-8.7-29.5C96.4,9.9,81.2,2.9,64.7,2l-2.6-0.1l-1.3,0
				C46.8,2,33.3,6.6,22,15.1l0,0C-2.2,33.1,0.2,63.6,1.5,72.5c0.2,1.4,0.5,2.8,0.8,4.3L3,79.4c3.1,10.4,9,17.7,14.7,24.6
				c10.2,12.4,19.7,24.3,7.1,50.7h36.8l0.1-22.7c0-1.1,0-2.1-0.1-3c-0.1-1.4-0.3-2.6-0.6-3.5l-0.4-1c-0.4-0.7-0.7-0.8-1.5-0.5
				c-1.4,0.6-2.4,1.5-3.4,2.3c-1.7,1.4-3.4,2.8-6.6,2.8c-0.7,0.1-1.5,0-2.4-0.2c-2.2-0.4-4.2-1.3-5.8-2.8c-3.3-3.1-4.5-8.4-3-13.2
				c1.4-4.3,4.6-7.1,8.8-7.8c4.8-0.8,6.9,1,9,2.7c1,0.8,2,1.6,3.4,2.3c0.6,0.3,0.9,0.1,1,0.1c0.4-0.2,1.6-1.5,1.6-8l0.1-22.7
				l-18.3-0.1"/>
		</g>
	</g>
	<polygon class="st2" points="132.2,79.8 126.3,79.8 126.3,77.9 132.2,77.9 	"/>
	<polygon class="st2" points="6.5,78.7 1.5,78.7 0.9,76.8 6.5,76.8 	"/>
	<polygon class="st2" points="62.1,9.6 62.1,0 64,0 64,9.6 	"/>
	<polygon class="st2" points="62.4,155.9 62.4,152.4 64.3,152.4 64.3,155.9 	"/>
</g>
</svg>
