<?xml version="1.0" encoding="utf-8"?>
<!-- Generator: Adobe Illustrator 21.0.2, SVG Export Plug-In . SVG Version: 6.00 Build 0)  -->
<svg version="1.1" id="Layer_1" xmlns="http://www.w3.org/2000/svg" xmlns:xlink="http://www.w3.org/1999/xlink" x="0px" y="0px"
	 viewBox="0 0 591 540.3" style="enable-background:new 0 0 591 540.3;" xml:space="preserve">
<style type="text/css">
	.st0{fill:#00AAC5;}
</style>
<g>
	<path class="st0" d="M585.3,468.4l-66.7-98.3c-6.6-9.7-17.5-14.7-28.4-14.3l-28-41.2c51.3-45,62.3-122.5,23-180.4
		c-13.9-20.5-32.7-36.5-54.5-46.9V14.5c0-8-6.5-14.5-14.5-14.5H115.5c-3.8,0-7.5,1.5-10.2,4.2L54.6,54.5c0,0-0.1,0.1-0.1,0.1
		L4.2,105.3c-2.7,2.7-4.2,6.4-4.2,10.2v410.2c0,8,6.5,14.5,14.5,14.5h401.6c8,0,14.5-6.5,14.5-14.5V335.4c1.1-0.5,2.1-1.1,3.2-1.6
		l28,41.2c-4.5,10-3.8,22,2.8,31.7l66.7,98.3c10.1,14.9,30.4,18.8,45.3,8.7l0,0C591.6,503.6,595.4,483.3,585.3,468.4z M457.9,152.7
		c32.3,47.7,19.9,112.7-27.8,145.1C382.4,330.1,317.3,317.6,285,270c-32.3-47.7-19.9-112.7,27.8-145.1c17.5-11.9,37.7-18,58.4-18
		c6.6,0,13.3,0.6,19.9,1.9C418.5,114,442.2,129.6,457.9,152.7z M75,75l30-29.7V105H45.3L75,75z M401.6,511.3H29V125h86
		c5.5,0,10-4.5,10-10V29h276.6v48.3c-1.4-0.3-2.9-0.6-4.4-0.9c-36.1-6.9-72.7,0.6-103,21.2c-62.7,42.6-79.1,128.2-36.5,190.9
		c26.6,39.1,69.9,60.2,113.9,60.2c10,0,20.1-1.1,30-3.3V511.3z"/>
	<rect x="73.8" y="179.8" class="st0" width="115.1" height="20"/>
	<rect x="73.8" y="244.8" class="st0" width="115.1" height="20"/>
	<rect x="73.8" y="309.9" class="st0" width="115.1" height="20"/>
	<rect x="73.8" y="374.9" class="st0" width="284.7" height="20"/>
	<rect x="73.8" y="439.9" class="st0" width="284.7" height="20"/>
</g>
</svg>
