<?xml version="1.0" encoding="utf-8"?>
<!-- Generator: Adobe Illustrator 21.0.2, SVG Export Plug-In . SVG Version: 6.00 Build 0)  -->
<svg version="1.1" id="Isolation_Mode" xmlns="http://www.w3.org/2000/svg" xmlns:xlink="http://www.w3.org/1999/xlink" x="0px"
	 y="0px" viewBox="0 0 41.8 39.8" style="enable-background:new 0 0 41.8 39.8;" xml:space="preserve">
<style type="text/css">
	.st0{fill:#FFFFFF;}
</style>
<g>
	<path class="st0" d="M39.9,27.8h-38c-0.5,0-0.9-0.4-0.9-0.9v-26C1,0.4,1.4,0,1.9,0h38c0.5,0,0.9,0.4,0.9,0.9v26
		C40.8,27.4,40.4,27.8,39.9,27.8z M2.8,26H39V1.8H2.8V26z"/>
	<path class="st0" d="M40.9,35.8h-25c-0.5,0-0.9-0.4-0.9-0.9s0.4-0.9,0.9-0.9h25c0.5,0,0.9,0.4,0.9,0.9S41.4,35.8,40.9,35.8z"/>
	<path class="st0" d="M7.9,35.8h-7c-0.5,0-0.9-0.4-0.9-0.9S0.4,34,0.9,34h7c0.5,0,0.9,0.4,0.9,0.9S8.4,35.8,7.9,35.8z"/>
	<path class="st0" d="M11.9,39.8c-2.7,0-4.9-2.2-4.9-4.9S9.2,30,11.9,30s4.9,2.2,4.9,4.9S14.6,39.8,11.9,39.8z M11.9,31.8
		c-1.7,0-3.1,1.4-3.1,3.1s1.4,3.1,3.1,3.1s3.1-1.4,3.1-3.1S13.6,31.8,11.9,31.8z"/>
	<path class="st0" d="M15.9,22.4c-0.1,0-0.3,0-0.4-0.1c-0.3-0.2-0.5-0.5-0.5-0.8V6.3c0-0.3,0.2-0.6,0.5-0.8c0.3-0.2,0.6-0.1,0.9,0
		l11.8,7.6c0.3,0.2,0.4,0.5,0.4,0.8s-0.2,0.6-0.4,0.8l-11.8,7.6C16.2,22.3,16.1,22.4,15.9,22.4z M16.8,8v11.8l9.2-5.9L16.8,8z"/>
</g>
</svg>
