<?xml version="1.0" encoding="utf-8"?>
<!-- Generator: Adobe Illustrator 21.0.2, SVG Export Plug-In . SVG Version: 6.00 Build 0)  -->
<svg version="1.1" id="Layer_2" xmlns="http://www.w3.org/2000/svg" xmlns:xlink="http://www.w3.org/1999/xlink" x="0px" y="0px"
	 viewBox="0 0 160.3 159.1" style="enable-background:new 0 0 160.3 159.1;" xml:space="preserve">
<style type="text/css">
	.st0{fill:#D4555A;stroke:#D4555A;stroke-linecap:round;stroke-linejoin:round;stroke-miterlimit:10;}
</style>
<g>
	<g>
		<g>
			<path class="st0" d="M131.8,88c-1.7,0-3-1.3-3-3c0-2.8-2.3-5-5-5h-22.3c-0.8,0-1.7-0.4-2.2-1c-0.1-0.1-8-8.8-11.3-12.5
				c-1.1-1.2-1-3.1,0.2-4.2c1.2-1.1,3.1-1,4.2,0.2c2.6,3,8.2,9.1,10.4,11.5h21c6.1,0,11,4.9,11,11C134.8,86.7,133.4,88,131.8,88z"/>
		</g>
		<g>
			<path class="st0" d="M123.7,158.6H11.5c-6.1,0-11-4.9-11-11V65.5c0-6.1,4.9-11,11-11H29c1.7,0,3,1.3,3,3s-1.3,3-3,3H11.5
				c-2.8,0-5,2.3-5,5v82.1c0,2.8,2.3,5,5,5h112.2c1.7,0,3,1.3,3,3S125.4,158.6,123.7,158.6z"/>
		</g>
		<g>
			<path class="st0" d="M123.8,158.6L123.8,158.6H11.5c-6.1,0-11-4.4-11-9.8c0-0.4,0.1-0.9,0.3-1.3C3.1,142.6,23.4,99.1,26,95
				c0.3-0.5,0.6-0.9,0.8-1.3c2.1-3.5,4.1-6.9,9.8-6.9l112.2-0.6c6.1,0,11,4.4,11,9.8c0,0.4-0.1,0.8-0.3,1.2
				c-2,4.6-19.6,44.7-22.5,49c-0.5,0.8-1,1.7-1.6,2.7C133.2,153,130,158.6,123.8,158.6z M6.6,149.4c0.4,1.8,2.5,3.2,5,3.2h112.3
				c2.4,0,4.2-2.8,6.4-6.7c0.6-1,1.2-2,1.8-3c1.9-2.9,13.9-29.7,21.7-47.5c-0.3-1.8-2.5-3.3-5-3.3L36.6,92.8c-2.1,0-2.6,0.5-4.6,4
				c-0.3,0.4-0.6,0.9-0.9,1.4C29.3,101,15.6,130.1,6.6,149.4z"/>
		</g>
	</g>
	<g>
		<path class="st0" d="M63.1,81.3c-2,0-4-0.9-5.4-2.4L46.5,66.6c-1.8-1.9-4.7-5.1-6.5-7L28.7,47.5c-2.4-2.6-1.8-4.9-1.5-5.7
			c0.4-0.8,1.6-2.8,5.1-2.8h12.4c1,0,1.8-0.8,1.8-1.8V8.3c0-4.3,3.5-7.8,7.8-7.8h17.5c4.3,0,7.8,3.5,7.8,7.8v28.9
			c0,0.5,0.2,0.9,0.5,1.2s0.8,0.5,1.2,0.5h12.4c3.6,0,4.8,2,5.2,2.8c0.4,0.8,1,3.1-1.5,5.7L86.1,59.6c-1.8,1.9-4.7,5.1-6.5,7
			L68.5,78.8C67.1,80.4,65.1,81.3,63.1,81.3z M34.5,45l9.9,10.6c1.8,1.9,4.7,5.1,6.5,7L62,74.8c0.4,0.4,0.7,0.5,1,0.5s0.6-0.1,1-0.5
			l11.1-12.2c1.8-1.9,4.7-5.1,6.5-7l10-10.6H81.4c-2.1,0-4-0.8-5.5-2.3s-2.3-3.4-2.3-5.5V8.3c0-1-0.8-1.8-1.8-1.8H54.3
			c-1,0-1.8,0.8-1.8,1.8v28.9c0,4.3-3.5,7.8-7.8,7.8H34.5z"/>
	</g>
</g>
</svg>
