<?xml version="1.0" encoding="utf-8"?>
<!-- Generator: Adobe Illustrator 21.0.2, SVG Export Plug-In . SVG Version: 6.00 Build 0)  -->
<svg version="1.1" id="Layer_1" xmlns="http://www.w3.org/2000/svg" xmlns:xlink="http://www.w3.org/1999/xlink" x="0px" y="0px"
	 viewBox="0 0 33.2 29.7" style="enable-background:new 0 0 33.2 29.7;" xml:space="preserve">
<style type="text/css">
	.st0{fill:#00AAC5;}
</style>
<g>
	<g>
		<path class="st0" d="M22.2,13.8H11c-0.4,0-0.6-0.3-0.6-0.6v-1.4c0-0.7,0.4-1.4,1.1-1.6l3.3-1.4c0.1,0,0.1,0,0.1-0.1V7.9
			c0,0,0,0,0-0.1c-0.7-0.4-1.2-1.1-1.5-1.8c-0.6-0.2-1-0.8-1-1.6c0-0.7,0.3-1.2,0.7-1.5C13.2,1.3,14.6,0,16.2,0H17
			c1.7,0,3,1.3,3.1,2.9c0.4,0.3,0.7,0.8,0.7,1.5c0,0.8-0.4,1.4-1,1.6c-0.3,0.7-0.8,1.4-1.5,1.8c0,0,0,0,0,0.1v0.6c0,0,0,0.1,0,0.1
			l3.4,1.5c0.6,0.2,1.1,0.9,1.1,1.6v1.4C22.8,13.5,22.5,13.8,22.2,13.8z M11.7,12.5h9.9v-0.8c0-0.2-0.1-0.4-0.3-0.4l-3.4-1.5
			C17.4,9.6,17,9.1,17,8.5V7.9c0-0.4,0.2-0.9,0.6-1.1c0.5-0.4,0.9-0.9,1.1-1.5c0.1-0.3,0.4-0.5,0.7-0.5c0-0.1,0.1-0.2,0.1-0.4
			c0-0.3-0.1-0.4-0.1-0.4c-0.4,0-0.6-0.3-0.6-0.6V3.1c0-1-0.8-1.8-1.8-1.8h-0.8c-1,0-1.8,0.8-1.8,1.8v0.3c0,0.4-0.3,0.6-0.6,0.6
			c0,0-0.1,0.2-0.1,0.4c0,0.2,0.1,0.4,0.1,0.4c0.3,0,0.6,0.2,0.7,0.5c0.2,0.6,0.6,1.2,1.1,1.5c0.4,0.3,0.6,0.7,0.6,1.1v0.6
			c0,0.6-0.3,1.1-0.9,1.3L12,11.3c-0.2,0.1-0.3,0.3-0.3,0.4V12.5z"/>
	</g>
	<g>
		<path class="st0" d="M11.8,29.7H0.6c-0.4,0-0.6-0.3-0.6-0.6v-1.4c0-0.7,0.4-1.4,1.1-1.6l3.3-1.4c0.1,0,0.1,0,0.1-0.1v-0.6
			c0,0,0,0,0-0.1C3.8,23.4,3.3,22.8,3,22c-0.6-0.2-1-0.8-1-1.6c0-0.7,0.3-1.2,0.7-1.5C2.8,17.3,4.2,16,5.8,16h0.8
			c1.7,0,3,1.3,3.1,2.9c0.4,0.3,0.7,0.8,0.7,1.5c0,0.8-0.4,1.4-1,1.6c-0.3,0.7-0.8,1.4-1.5,1.8c0,0,0,0,0,0.1v0.6c0,0,0,0.1,0,0.1
			l3.4,1.5c0.6,0.2,1.1,0.9,1.1,1.6v1.4C12.4,29.4,12.1,29.7,11.8,29.7z M1.3,28.4h9.9v-0.8c0-0.2-0.1-0.4-0.3-0.4l-3.4-1.5
			c-0.5-0.2-0.8-0.7-0.8-1.2v-0.6c0-0.4,0.2-0.9,0.6-1.1c0.5-0.4,0.9-0.9,1.1-1.5c0.1-0.3,0.4-0.5,0.7-0.5c0-0.1,0.1-0.2,0.1-0.4
			C9.1,20.1,9,20,9,20c-0.4,0-0.6-0.3-0.6-0.6v-0.3c0-1-0.8-1.8-1.8-1.8H5.8c-1,0-1.8,0.8-1.8,1.8v0.3C4,19.7,3.7,20,3.3,20
			c0,0-0.1,0.2-0.1,0.4c0,0.2,0.1,0.4,0.1,0.4c0.3,0,0.6,0.2,0.7,0.5c0.2,0.6,0.6,1.2,1.1,1.5c0.4,0.3,0.6,0.7,0.6,1.1v0.6
			c0,0.6-0.3,1.1-0.9,1.3l-3.3,1.4c-0.2,0.1-0.3,0.3-0.3,0.4V28.4z"/>
	</g>
	<g>
		<path class="st0" d="M32.6,29.7H21.4c-0.4,0-0.6-0.3-0.6-0.6v-1.4c0-0.7,0.4-1.4,1.1-1.6l3.3-1.4c0.1,0,0.1,0,0.1-0.1v-0.6
			c0,0,0,0,0-0.1c-0.7-0.4-1.2-1.1-1.5-1.8c-0.6-0.2-1-0.8-1-1.6c0-0.7,0.3-1.2,0.7-1.5c0.1-1.6,1.5-2.9,3.1-2.9h0.8
			c1.7,0,3,1.3,3.1,2.9c0.4,0.3,0.7,0.8,0.7,1.5c0,0.8-0.4,1.4-1,1.6c-0.3,0.7-0.8,1.4-1.5,1.8c0,0,0,0,0,0.1v0.6c0,0,0,0.1,0,0.1
			l3.4,1.5c0.6,0.2,1.1,0.9,1.1,1.6v1.4C33.2,29.4,32.9,29.7,32.6,29.7z M22.1,28.4h9.9v-0.8c0-0.2-0.1-0.4-0.3-0.4l-3.4-1.5
			c-0.5-0.2-0.8-0.7-0.8-1.2v-0.6c0-0.4,0.2-0.9,0.6-1.1c0.5-0.4,0.9-0.9,1.1-1.5c0.1-0.3,0.4-0.5,0.7-0.5c0-0.1,0.1-0.2,0.1-0.4
			c0-0.3-0.1-0.4-0.1-0.4c-0.4,0-0.6-0.3-0.6-0.6v-0.3c0-1-0.8-1.8-1.8-1.8h-0.8c-1,0-1.8,0.8-1.8,1.8v0.3c0,0.4-0.3,0.6-0.6,0.6
			c0,0-0.1,0.2-0.1,0.4c0,0.2,0.1,0.4,0.1,0.4c0.3,0,0.6,0.2,0.7,0.5c0.2,0.6,0.6,1.2,1.1,1.5c0.4,0.3,0.6,0.7,0.6,1.1v0.6
			c0,0.6-0.3,1.1-0.9,1.3l-3.3,1.4c-0.2,0.1-0.3,0.3-0.3,0.4V28.4z"/>
	</g>
	<g>
		<path class="st0" d="M12.4,22.8c-0.2,0-0.4-0.1-0.5-0.3c-0.2-0.3-0.1-0.7,0.2-0.9l3.9-2.4v-3.7c0-0.4,0.3-0.6,0.6-0.6
			c0.4,0,0.6,0.3,0.6,0.6v4.1c0,0.2-0.1,0.4-0.3,0.5l-4.2,2.5C12.6,22.8,12.5,22.8,12.4,22.8z"/>
	</g>
	<g>
		<path class="st0" d="M20.8,22.8c-0.1,0-0.2,0-0.3-0.1l-4.2-2.5c-0.3-0.2-0.4-0.6-0.2-0.9c0.2-0.3,0.6-0.4,0.9-0.2l4.2,2.5
			c0.3,0.2,0.4,0.6,0.2,0.9C21.2,22.7,21,22.8,20.8,22.8z"/>
	</g>
</g>
</svg>
