<?xml version="1.0" encoding="utf-8"?>
<!-- Generator: Adobe Illustrator 21.0.2, SVG Export Plug-In . SVG Version: 6.00 Build 0)  -->
<svg version="1.1" id="Isolation_Mode" xmlns="http://www.w3.org/2000/svg" xmlns:xlink="http://www.w3.org/1999/xlink" x="0px"
	 y="0px" viewBox="0 0 459.2 365.8" style="enable-background:new 0 0 459.2 365.8;" xml:space="preserve">
<style type="text/css">
	.st0{fill:#F5AB20;}
</style>
<g>
	<path class="st0" d="M255.6,213.5l-8.3-7l-6.5,8.8c-2.4,3.2-4.6,6.1-6.5,8.4l26.5-93.9l0.1-0.4l0.1-0.4c0.9-4.6-1.1-9.2-5.1-11.8
		c-1.8-1.2-3.9-1.8-6.3-1.8h0c-1.9,0-4.5,0.4-8.4,1.3c-3.8,0.9-7.9,1.7-12.2,2.4c-3.4,0.6-6.8,1.1-10.2,1.6c-3.4,0.5-9,1.2-16.6,2.2
		l-9,1.1v9v4.7v10.2h10.2c3.6,0,6.1,0.1,7.9,0.2c0,0.2-0.1,0.3-0.1,0.5L190.9,222c-1.2,4.4-1.9,7.6-2.3,9.9
		c-0.5,2.7-0.7,5.6-0.7,9.1c0,7,2.1,13.2,6.3,18.5c4.7,5.9,11,9,18.2,9c9.6,0,19.1-4.4,28.4-13c5.2-4.9,11.4-12.4,19-23.1l1.4-2
		l5.5-7.7l-7.2-6.1L255.6,213.5z"/>
	<path class="st0" d="M246.9,53.2c-6.8,0-12.9,2.7-17.6,7.9c-4.4,4.9-6.8,11.1-6.8,18c0,6.8,2.3,12.9,6.8,17.8
		c4.7,5.2,10.8,7.9,17.5,7.9c6.7,0,12.8-2.7,17.5-7.7c4.6-4.9,7-11.1,7-18c0-6.9-2.4-13.1-6.9-18C259.7,55.9,253.7,53.2,246.9,53.2z
		"/>
</g>
<path class="st0" d="M229.6,2C104.1,2,2,74.4,2,163.3c0,42.9,23.3,83.1,65.7,113.4l-28.5,87.1l143.2-42.7
	c15.5,2.3,31.4,3.5,47.1,3.5c125.5,0,227.6-72.4,227.6-161.3S355.1,2,229.6,2z M229.6,313.1c-15.6,0-31.3-1.2-46.7-3.6l-1.3-0.2
	L57,346.5l24.3-74.3l-3.6-2.4c-41.4-28.4-64.2-66.2-64.2-106.4c0-82.6,96.9-149.8,216-149.8c119.1,0,216,67.2,216,149.8
	C445.6,245.9,348.7,313.1,229.6,313.1z"/>
</svg>
