<?xml version="1.0" encoding="utf-8"?>
<!-- Generator: Adobe Illustrator 21.0.2, SVG Export Plug-In . SVG Version: 6.00 Build 0)  -->
<svg version="1.1" id="_x2014_ÎÓÈ_x5F_1" xmlns="http://www.w3.org/2000/svg" xmlns:xlink="http://www.w3.org/1999/xlink"
	 x="0px" y="0px" viewBox="0 0 475 406" style="enable-background:new 0 0 475 406;" xml:space="preserve">
<style type="text/css">
	.st0{fill:#D4555A;}
</style>
<g>
	<path class="st0" d="M118.7,145.9h-106c-7,0-12.7,5.7-12.7,12.7v234.7c0,7,5.7,12.7,12.7,12.7h106c7,0,12.7-5.7,12.7-12.7V158.6
		C131.4,151.6,125.7,145.9,118.7,145.9z M91.1,384c-9.4,0-17-7.6-17-17s7.6-17,17-17s17,7.6,17,17S100.4,384,91.1,384z"/>
	<path class="st0" d="M475,188.6c0-10.1-3.1-19.6-8.7-26.6c-6.6-8.3-16.3-12.8-27.5-12.8H311.5c4.7-27.9,13.2-98.2-13.7-131.2
		C288.1,6,275.1,0,259,0c-10.3,0-17.9,2.6-23.2,8.1c-8.8,9-8.4,22.6-8,38.3c0.2,8.4,0.5,18-0.7,27.6c-1.8,14.1-11.1,29.1-20.2,43.6
		c-1.4,2.2-2.8,4.4-4.1,6.6c-2.3,3.7-4,7.5-5.6,10.8c-3.8,8.2-6.1,12.5-11.9,14.8c-4.6,1.8-10.4,2.8-17.3,3.1
		c-7.6,0.3-13.5,6.5-13.5,14.1v214.8c0,8.1,6.6,14.6,14.6,14.6l206.7,0.5h0.1c18,0,34.1-11.7,39.3-28.6c2.7-8.8,2.2-17.7-1.3-25.6
		c8.5-3.8,15.4-11,19.5-20.8c4.7-11.4,4.6-24,0.3-34.4c9.3-4.2,16.7-12.5,20.6-23.8c4.2-12.2,3.3-25.2-1.9-35.6
		C467.2,221.1,475.1,204.4,475,188.6z M436.4,213.7l-25.9,0.2l20.5,15.9c8.6,6.6,9.2,19.2,6.1,28.2c-1.2,3.5-6,14.7-18,14.7H419
		l-21.9-0.1l15.5,15.4c6.4,6.3,8,17.5,4,27.1c-1.6,3.9-6.5,12.8-17.6,12.8h-0.1l-21.9-0.1l15.5,15.4c7.2,7.1,6.8,14.8,5.3,19.9
		c-2.8,9.3-11.9,15.8-22.1,15.8c0,0,0,0-0.1,0l-203.4-0.4V170.6c7.3-0.6,13.8-1.9,19.3-4.1c12.9-4.9,17.6-15,21.7-24
		c1.5-3.2,2.9-6.1,4.6-9c1.3-2.1,2.7-4.3,4-6.5c10.1-16.2,20.6-32.9,22.8-50.9c1.4-11,1.1-21.2,0.9-30.3
		c-0.3-11.2-0.6-21.7,2.9-25.4c1.7-1.8,5.2-2.6,10.4-2.6c10.6,0,18.7,3.7,24.9,11.3c21.8,26.8,14.8,94.8,8,127l-2.3,10.8h149.2
		c13.4,0,18.2,11.6,18.3,21.5C457.1,200.6,450.7,213.6,436.4,213.7z"/>
</g>
</svg>
