<?xml version="1.0" encoding="utf-8"?>
<!-- Generator: Adobe Illustrator 21.0.2, SVG Export Plug-In . SVG Version: 6.00 Build 0)  -->
<svg version="1.1" id="Icon" xmlns="http://www.w3.org/2000/svg" xmlns:xlink="http://www.w3.org/1999/xlink" x="0px" y="0px"
	 viewBox="0 0 238 208.2" style="enable-background:new 0 0 238 208.2;" xml:space="preserve">
<style type="text/css">
	.st0{fill:#FFFFFF;}
</style>
<g>
	<path class="st0" d="M234.3,0H33.5c-2.1,0-3.7,1.7-3.7,3.7v185.9c0,6.2-5,11.2-11.2,11.2s-11.2-5-11.2-11.2V29.7
		c0-2.1-1.7-3.7-3.7-3.7S0,27.7,0,29.7v159.9c0,10.3,8.3,18.6,18.6,18.6h200.8c10.3,0,18.6-8.3,18.6-18.6V3.7
		C238,1.7,236.3,0,234.3,0z M230.6,189.7c0,6.2-5,11.2-11.2,11.2H33.5c2.3-3.1,3.7-7,3.7-11.2V7.4h193.4V189.7z"/>
	<path class="st0" d="M18.6,193.4c2.1,0,3.7-1.7,3.7-3.7V18.6c0-2.1-1.7-3.7-3.7-3.7s-3.7,1.7-3.7,3.7v171.1
		C14.9,191.7,16.5,193.4,18.6,193.4z"/>
	<path class="st0" d="M55.8,141.3h59.5c2.1,0,3.7-1.7,3.7-3.7V70.7c0-2.1-1.7-3.7-3.7-3.7H55.8c-2.1,0-3.7,1.7-3.7,3.7v66.9
		C52.1,139.6,53.7,141.3,55.8,141.3z M59.5,74.4h52.1v59.5H59.5V74.4z"/>
	<path class="st0" d="M55.8,29.7H212c2.1,0,3.7-1.7,3.7-3.7s-1.7-3.7-3.7-3.7H55.8c-2.1,0-3.7,1.7-3.7,3.7S53.7,29.7,55.8,29.7z"/>
	<path class="st0" d="M55.8,52.1H212c2.1,0,3.7-1.7,3.7-3.7c0-2.1-1.7-3.7-3.7-3.7H55.8c-2.1,0-3.7,1.7-3.7,3.7
		C52.1,50.4,53.7,52.1,55.8,52.1z"/>
	<path class="st0" d="M55.8,163.6H212c2.1,0,3.7-1.7,3.7-3.7c0-2.1-1.7-3.7-3.7-3.7H55.8c-2.1,0-3.7,1.7-3.7,3.7
		C52.1,162,53.7,163.6,55.8,163.6z"/>
	<path class="st0" d="M212,66.9h-74.4c-2.1,0-3.7,1.7-3.7,3.7c0,2.1,1.7,3.7,3.7,3.7H212c2.1,0,3.7-1.7,3.7-3.7
		C215.7,68.6,214,66.9,212,66.9z"/>
	<path class="st0" d="M212,89.2h-74.4c-2.1,0-3.7,1.7-3.7,3.7c0,2.1,1.7,3.7,3.7,3.7H212c2.1,0,3.7-1.7,3.7-3.7
		C215.7,90.9,214,89.2,212,89.2z"/>
	<path class="st0" d="M212,111.6h-74.4c-2.1,0-3.7,1.7-3.7,3.7c0,2.1,1.7,3.7,3.7,3.7H212c2.1,0,3.7-1.7,3.7-3.7
		C215.7,113.2,214,111.6,212,111.6z"/>
	<path class="st0" d="M212,133.9h-74.4c-2.1,0-3.7,1.7-3.7,3.7c0,2.1,1.7,3.7,3.7,3.7H212c2.1,0,3.7-1.7,3.7-3.7
		C215.7,135.5,214,133.9,212,133.9z"/>
	<path class="st0" d="M212,178.5h-74.4c-2.1,0-3.7,1.7-3.7,3.7c0,2.1,1.7,3.7,3.7,3.7H212c2.1,0,3.7-1.7,3.7-3.7
		C215.7,180.2,214,178.5,212,178.5z"/>
</g>
</svg>
