<?xml version="1.0" encoding="utf-8"?>
<!-- Generator: Adobe Illustrator 21.0.2, SVG Export Plug-In . SVG Version: 6.00 Build 0)  -->
<svg version="1.1" id="icons" xmlns="http://www.w3.org/2000/svg" xmlns:xlink="http://www.w3.org/1999/xlink" x="0px" y="0px"
	 viewBox="0 0 45 47" style="enable-background:new 0 0 45 47;" xml:space="preserve">
<style type="text/css">
	.st0{fill:#FFFFFF;}
</style>
<g>
	<path class="st0" d="M22.1,38c-2.7,0-5-2.2-5-5s2.2-5,5-5s5,2.2,5,5S24.8,38,22.1,38z M22.1,30c-1.6,0-3,1.3-3,3s1.3,3,3,3
		c1.6,0,3-1.3,3-3S23.7,30,22.1,30z"/>
	<path class="st0" d="M30,47h-2v-2.8c0-1.7-3.6-3-6-3s-6,1.3-6,3V47h-2v-2.8c0-3.5,5.3-5,8-5s8,1.5,8,5V47z"/>
	<path class="st0" d="M34.1,38c-2.7,0-5-2.2-5-5s2.2-5,5-5s5,2.2,5,5S36.8,38,34.1,38z M34.1,30c-1.6,0-3,1.3-3,3s1.3,3,3,3
		c1.6,0,3-1.3,3-3S35.7,30,34.1,30z"/>
	<path class="st0" d="M42,47h-2v-2.8c0-1.7-3.6-3-6-3c-0.8,0-1.8,0.2-2.7,0.4l-0.6-1.9c1.1-0.3,2.3-0.5,3.3-0.5c2.7,0,8,1.5,8,5V47z
		"/>
	<path class="st0" d="M10,38c-2.7,0-5-2.2-5-5s2.2-5,5-5s5,2.2,5,5S12.8,38,10,38z M10,30c-1.6,0-3,1.3-3,3s1.3,3,3,3
		c1.6,0,3-1.3,3-3S11.7,30,10,30z"/>
	<path class="st0" d="M4,47H2v-2.8c0-3.5,5.3-5,8-5c1,0,2.1,0.2,3.3,0.5l-0.6,1.9c-0.9-0.3-1.9-0.4-2.7-0.4c-2.4,0-6,1.3-6,3V47z"/>
	<path class="st0" d="M22,26.8c-0.9,0-1.6-0.5-1.9-1.4L18.3,20h-3.8l-3.9,5.2c-0.5,0.7-1.4,1-2.2,0.7C7.5,25.6,7,24.9,7,24v-4H5
		c-2.8,0-5-2.2-5-5V5c0-2.8,2.2-5,5-5h35c2.8,0,5,2.2,5,5v10c0,2.8-2.2,5-5,5h-3v4c0,0.9-0.5,1.6-1.4,1.9c-0.8,0.3-1.7,0-2.2-0.7
		L29.5,20h-3.8l-1.8,5.5C23.6,26.3,22.9,26.8,22,26.8z M13.5,18h6.2l2.3,6.8l2.3-6.8h6.2l4.5,6v-6h5c1.7,0,3-1.3,3-3V5
		c0-1.7-1.3-3-3-3H5C3.3,2,2,3.3,2,5v10c0,1.7,1.3,3,3,3h4v6L13.5,18z"/>
</g>
</svg>
