<?xml version="1.0" encoding="utf-8"?>
<!-- Generator: Adobe Illustrator 21.0.2, SVG Export Plug-In . SVG Version: 6.00 Build 0)  -->
<svg version="1.1" id="_x2014_ÎÓÈ_x5F_1" xmlns="http://www.w3.org/2000/svg" xmlns:xlink="http://www.w3.org/1999/xlink"
	 x="0px" y="0px" viewBox="0 0 470 600.2" style="enable-background:new 0 0 470 600.2;" xml:space="preserve">
<style type="text/css">
	.st0{fill:#D4555A;}
</style>
<g>
	<path class="st0" d="M131.9,224.3c-2.2,0-4.9,0.2-9.9,0.6V276c4,0.1,5.6,0.2,9.1,0.2c8.9,0,15-3,18.9-9.1
		c2.9-4.7,4.5-10.9,4.5-18.3C154.5,232.1,147.4,224.3,131.9,224.3z"/>
	<path class="st0" d="M63.1,224.3c-2.1,0-5.1,0.1-6.1,0.2v21.3c1,0.3,3.7,0.4,5.2,0.4c15,0,16.8-6.1,16.8-11.4
		C79,231.7,79.1,224.3,63.1,224.3z"/>
	<path class="st0" d="M273,204.9c0-15.4-12.5-27.9-27.9-27.9H27.9C12.5,177,0,189.5,0,204.9v91.3C0,311.6,12.5,324,27.9,324h217.3
		c15.4,0,27.9-12.5,27.9-27.9v-91.2H273z M86.8,255.2c-6.5,5-15.3,7.6-25.8,7.6c-1.3,0-4,0-4-0.1V294H39v-83.7l3.4-0.6
		c7.8-1.3,14.8-2,20.8-2c10.2,0,18.4,2.4,24.4,7.1c6.3,5,9.5,11.5,9.5,19.4C97.1,242.9,93.7,249.9,86.8,255.2z M163.6,278.7
		c-7.5,9.3-18.9,14-34.1,14c-4.5,0-11-0.5-21.1-1.6l-2.5-0.4v-80.4l2.4-0.4c12.3-1.4,19.5-2.1,23.9-2.1c14.1,0,24.8,4.4,31.8,13
		c5.6,6.9,8.5,16.3,8.5,27.9C172.7,261.1,169.7,271.1,163.6,278.7z M234,225h-36v16h33v18h-33v35h-19v-85h55V225z"/>
	<path class="st0" d="M288,0v1H88.2C72.8,1,60,12.9,60,28.3V163h23V41.7C83,31.4,91.3,23,101.6,23H288v131.3
		c0,15.3,12.5,28.7,27.9,28.7H447v322.2c0,10.3-8.2,18.8-18.4,18.8h-84.2c-0.5,1-1,1.8-1.6,2.6L327.1,547h114.8
		c15.5,0,28.1-13,28.1-28.5V182.2L288,0z"/>
	<path class="st0" d="M185.7,524h-84.2c-10.3,0-18.6-8.6-18.6-18.8V337H60v181.5C60,534,72.8,547,88.2,547h114.7l-15.6-20.4
		C186.7,525.8,186.2,525,185.7,524z"/>
	<path class="st0" d="M326,507h-30V403.8c0-6.9-5.5-12.8-12.3-12.8h-37.2c-6.9,0-12.4,5.9-12.4,12.8V507h-29.9
		c-6,0-9.4,6.5-5.9,11.1l61,79.2c2.9,3.8,8.8,3.8,11.8,0l61-79.2C335.4,513.5,332,507,326,507z"/>
</g>
</svg>
