<?xml version="1.0" encoding="utf-8"?>
<!-- Generator: Adobe Illustrator 21.0.2, SVG Export Plug-In . SVG Version: 6.00 Build 0)  -->
<svg version="1.1" id="Layer_1" xmlns="http://www.w3.org/2000/svg" xmlns:xlink="http://www.w3.org/1999/xlink" x="0px" y="0px"
	 viewBox="0 0 800 560" style="enable-background:new 0 0 800 560;" xml:space="preserve">
<style type="text/css">
	.st0{fill:#D4555A;}
</style>
<g>
	<path class="st0" d="M793.8,258.4C572.5-86.1,227.5-86.1,6.2,258.4c-8.3,13-8.3,30.2,0,43.2c221.2,344.6,566.3,344.6,787.5,0
		C802.1,288.6,802.1,271.4,793.8,258.4z M400,480c-110.3,0-200-89.7-200-200S289.7,80,400,80s200,89.7,200,200S510.3,480,400,480z"
		/>
	<path class="st0" d="M400,200c-44.2,0-80,35.8-80,80s35.8,80,80,80s80-35.8,80-80S444.2,200,400,200z"/>
</g>
</svg>
