<?xml version="1.0" encoding="utf-8"?>
<!-- Generator: Adobe Illustrator 21.0.2, SVG Export Plug-In . SVG Version: 6.00 Build 0)  -->
<svg version="1.1" id="Layer_1" xmlns="http://www.w3.org/2000/svg" xmlns:xlink="http://www.w3.org/1999/xlink" x="0px" y="0px"
	 viewBox="0 0 32.5 31.9" style="enable-background:new 0 0 32.5 31.9;" xml:space="preserve">
<style type="text/css">
	.st0{fill:#00AAC5;}
</style>
<g>
	<g>
		<path class="st0" d="M22.7,31.9H0.6c-0.4,0-0.6-0.3-0.6-0.6V5.1c0-0.4,0.3-0.6,0.6-0.6h6.4c0.4,0,0.6,0.3,0.6,0.6v1.3h7.9V5.1
			c0-0.4,0.3-0.6,0.6-0.6h6.4c0.4,0,0.6,0.3,0.6,0.6v7.9c0,0.4-0.3,0.6-0.6,0.6s-0.6-0.3-0.6-0.6V5.7h-5.2V7c0,0.4-0.3,0.6-0.6,0.6
			H7.1C6.7,7.7,6.4,7.4,6.4,7V5.7H1.3v25h21.4c0.4,0,0.6,0.3,0.6,0.6C23.3,31.6,23.1,31.9,22.7,31.9z"/>
	</g>
	<g>
		<path class="st0" d="M16.3,7.7H7.1C6.7,7.7,6.4,7.4,6.4,7V3.3c0-0.4,0.3-0.6,0.6-0.6h2.2c0-0.1,0-0.2,0-0.3c0-1.3,1.1-2.4,2.4-2.4
			c1.3,0,2.4,1.1,2.4,2.4c0,0.1,0,0.2,0,0.3h2.2c0.4,0,0.6,0.3,0.6,0.6V7C16.9,7.4,16.6,7.7,16.3,7.7z M7.7,6.4h7.9V3.9h-2.5
			c-0.2,0-0.4-0.1-0.6-0.3c-0.1-0.2-0.1-0.4,0-0.6c0.1-0.2,0.2-0.4,0.2-0.6c0-0.6-0.5-1.1-1.1-1.1c-0.6,0-1.1,0.5-1.1,1.1
			c0,0.2,0.1,0.4,0.2,0.6c0.1,0.2,0.1,0.4,0,0.6s-0.3,0.3-0.6,0.3H7.7V6.4z"/>
	</g>
	<g>
		<path class="st0" d="M24.6,27.7h-3.9c-0.4,0-0.6-0.3-0.6-0.6v-2.4h-2.4c-0.4,0-0.6-0.3-0.6-0.6v-3.9c0-0.4,0.3-0.6,0.6-0.6h2.4
			v-2.4c0-0.4,0.3-0.6,0.6-0.6h3.9c0.4,0,0.6,0.3,0.6,0.6v2.4h2.4c0.4,0,0.6,0.3,0.6,0.6V24c0,0.4-0.3,0.6-0.6,0.6h-2.4v2.4
			C25.3,27.4,25,27.7,24.6,27.7z M21.4,26.4H24V24c0-0.4,0.3-0.6,0.6-0.6h2.4v-2.6h-2.4c-0.4,0-0.6-0.3-0.6-0.6v-2.4h-2.6v2.4
			c0,0.4-0.3,0.6-0.6,0.6h-2.4v2.6h2.4c0.4,0,0.6,0.3,0.6,0.6V26.4z"/>
	</g>
	<g>
		<path class="st0" d="M22.7,31.9c-5.4,0-9.8-4.4-9.8-9.8c0-5.4,4.4-9.8,9.8-9.8s9.8,4.4,9.8,9.8C32.5,27.5,28.1,31.9,22.7,31.9z
			 M22.7,13.6c-4.7,0-8.5,3.8-8.5,8.5c0,4.7,3.8,8.5,8.5,8.5s8.5-3.8,8.5-8.5C31.2,17.4,27.4,13.6,22.7,13.6z"/>
	</g>
</g>
</svg>
