<?xml version="1.0" encoding="utf-8"?>
<!-- Generator: Adobe Illustrator 21.0.2, SVG Export Plug-In . SVG Version: 6.00 Build 0)  -->
<svg version="1.1" id="Layer_1" xmlns="http://www.w3.org/2000/svg" xmlns:xlink="http://www.w3.org/1999/xlink" x="0px" y="0px"
	 viewBox="0 0 45.9 45.4" style="enable-background:new 0 0 45.9 45.4;" xml:space="preserve">
<style type="text/css">
	.st0{fill:#00AAC5;}
</style>
<g>
	<g>
		<g>
			<path class="st0" d="M32.1,35.2c-0.2,0-0.3,0-0.5-0.1c-0.3-0.2-0.5-0.5-0.5-0.8l0-0.8c0-0.3,0.1-0.5,0.3-0.7
				c0.3-0.3,0.4-0.5,0.3-0.9c-0.2-0.6-0.8-1.1-1.5-1.2c-0.4-0.1-0.7-0.4-0.8-0.8c-0.1-0.4,0.2-0.8,0.5-1l6-2.7
				c1.5-0.7,3.3-0.3,4.3,1l0.9,1.2c0.2,0.2,0.2,0.5,0.2,0.7c0,0.3-0.2,0.5-0.4,0.6L35.8,33c-1.1,0.7-2.1,1.3-3,2l-0.1,0.1
				C32.5,35.2,32.3,35.2,32.1,35.2z M32.7,29.9c0.4,0.4,0.8,0.9,1,1.5c0,0,0,0,0,0c0.1,0.3,0.1,0.5,0.1,0.7c0.3-0.2,0.7-0.4,1.1-0.7
				l4.4-2.7l-0.3-0.3c-0.5-0.6-1.3-0.8-2.1-0.5L32.7,29.9z"/>
		</g>
		<g>
			<path class="st0" d="M24.5,45.4c-0.7,0-1.3-0.1-1.9-0.3L8.8,40.3c-0.9-0.3-2-0.3-2.9,0.1l-4.6,1.9c-0.5,0.2-1,0-1.2-0.5
				c-0.2-0.5,0-1,0.5-1.2l4.6-1.9c1.3-0.5,2.8-0.6,4.2-0.1l13.7,4.7c1.2,0.4,2.6,0.2,3.7-0.5l7-4.8c2.6-1.8,5.1-3.7,7.5-5.7l2.4-2.1
				c0.4-0.3,0.4-0.9,0.1-1.2c-0.3-0.4-0.8-0.4-1.2-0.2L35.8,33c-1.6,1-3.5,2.2-5.2,3.7c-1.3,1.1-2.6,1.6-4.1,1.4
				c-2.4-0.3-4.2-2.5-4.9-3.4h-4.4c-0.5,0-0.9-0.4-0.9-0.9c0-0.5,0.4-0.9,0.9-0.9h14.3c0.6-0.4,0.5-0.7,0.4-1
				c-0.2-0.6-0.8-1.1-1.5-1.2l-16.6-2.4c-0.9-0.1-1.9,0-2.8,0.3l-9.3,3.3c-0.5,0.2-1-0.1-1.2-0.6c-0.2-0.5,0.1-1,0.6-1.2l9.3-3.3
				c1.2-0.4,2.4-0.5,3.6-0.4l16.6,2.4c1.4,0.2,2.6,1.2,3,2.4c0.1,0.3,0.1,0.5,0.1,0.7c0.4-0.2,0.7-0.5,1.1-0.7l6.9-4.2
				c1.2-0.7,2.7-0.4,3.5,0.6c0.9,1.2,0.8,2.8-0.4,3.8l-2.4,2.1c-2.4,2.1-5,4.1-7.7,5.9l-7,4.8C26.8,45,25.6,45.4,24.5,45.4z
				 M24,34.8c0.7,0.7,1.7,1.4,2.8,1.6c0.9,0.1,1.8-0.2,2.6-1c0.2-0.2,0.5-0.4,0.7-0.6H24z"/>
		</g>
	</g>
	<g>
		<g>
			<path class="st0" d="M25.4,24c-0.7,0-1.8-0.6-9.4-8.3c-0.5-0.5-0.8-0.8-0.9-0.9c-2-1.9-2.9-4.8-2.5-7.8c0.5-3.6,3.2-6.5,6.5-7
				c2.4-0.3,4.8,0.6,6.4,2.5c0.7-0.8,1.5-1.5,2.5-1.9c1.2-0.6,2.6-0.8,3.9-0.6c1.9,0.3,3.6,1.3,4.8,3c0.9,1.2,1.4,2.6,1.6,4
				c0.4,2.9-0.5,5.8-2.5,7.8c-0.1,0.1-0.5,0.5-0.9,0.9l-0.8,0.8l-4.1,4c0,0,0,0,0,0C26.3,24,25.9,24,25.4,24z M25.2,22.2L25.2,22.2
				L25.2,22.2z M20,1.8c-0.2,0-0.5,0-0.7,0.1c-2.5,0.4-4.5,2.6-4.9,5.4c-0.3,2.4,0.4,4.7,2,6.2c0.2,0.1,0.5,0.5,1,1
				c4.4,4.5,7.2,7,8.1,7.7c0.3-0.2,1.2-0.9,3.3-2.9l4.8-4.8c0.5-0.5,0.8-0.8,1-1c1.6-1.5,2.3-3.8,2-6.2c-0.2-1.2-0.6-2.3-1.3-3.2
				c-0.9-1.3-2.2-2-3.6-2.2c-1-0.1-2,0-2.9,0.4c-1,0.5-1.9,1.3-2.5,2.3c-0.2,0.3-0.5,0.4-0.8,0.4l0,0c-0.3,0-0.6-0.2-0.8-0.4
				C23.6,2.9,21.8,1.8,20,1.8z M29.4,19.9L29.4,19.9L29.4,19.9z"/>
		</g>
	</g>
</g>
</svg>
