<?xml version="1.0" encoding="utf-8"?>
<!-- Generator: Adobe Illustrator 21.0.2, SVG Export Plug-In . SVG Version: 6.00 Build 0)  -->
<svg version="1.1" id="icons" xmlns="http://www.w3.org/2000/svg" xmlns:xlink="http://www.w3.org/1999/xlink" x="0px" y="0px"
	 viewBox="0 0 48 41" style="enable-background:new 0 0 48 41;" xml:space="preserve">
<style type="text/css">
	.st0{fill:none;stroke:#D4555A;stroke-width:2;stroke-miterlimit:10;}
</style>
<g>
	<polyline class="st0" points="31,30 29,30 27,32 19,32 17,30 1,30 1,5 3,5 	"/>
	<polyline class="st0" points="43,4 45,4 45,24 	"/>
	<path class="st0" d="M31,26h-2c-1.9,0-3.2,0.5-4,2h-2V7c0-3.2,2-6,6-6h12v21"/>
	<path class="st0" d="M5,26h12c1.9,0,3.2,0.5,4,2h2V7c0-3.2-2-6-6-6H5V26z"/>
	<path class="st0" d="M46.8,29.4L33,19.4v17c0,0.5,0.4,0.7,0.9,0.3l3.9-3.7l3.7,6.6c0.3,0.5,1.1,0.6,1.6,0.2l1.6-1
		c0.6-0.4,0.8-1.1,0.5-1.6L41.6,31h4.7C46.9,31,47.2,29.7,46.8,29.4z"/>
	<g>
		<g>
			<line class="st0" x1="33" y1="15" x2="33" y2="12"/>
			<line class="st0" x1="29" y1="19" x2="26" y2="19"/>
		</g>
		<g>
			<line class="st0" x1="30" y1="16" x2="28" y2="14"/>
		</g>
		<g>
			<line class="st0" x1="36" y1="16" x2="38" y2="14"/>
		</g>
	</g>
</g>
</svg>
