<?xml version="1.0" encoding="utf-8"?>
<!-- Generator: Adobe Illustrator 21.0.2, SVG Export Plug-In . SVG Version: 6.00 Build 0)  -->
<svg version="1.1" id="Layer_1" xmlns="http://www.w3.org/2000/svg" xmlns:xlink="http://www.w3.org/1999/xlink" x="0px" y="0px"
	 viewBox="0 0 101 101" style="enable-background:new 0 0 101 101;" xml:space="preserve">
<style type="text/css">
	.st0{fill:#FFFFFF;}
</style>
<g>
	<path class="st0" d="M33.1,29.5c5,0,9.1-4.1,9.1-9.1c0-5-4.1-9.1-9.1-9.1c-5,0-9.1,4.1-9.1,9.1C23.9,25.4,28,29.5,33.1,29.5z
		 M33.1,14.4c3.2,0,5.9,2.6,5.9,5.9c0,3.2-2.6,5.9-5.9,5.9c-3.2,0-5.9-2.6-5.9-5.9C27.2,17.1,29.8,14.4,33.1,14.4z"/>
	<path class="st0" d="M41.8,30.7H24.3c-1.9,0-3.5,0.6-4.7,1.8c-1.9,1.9-1.9,4.6-1.9,4.7l-0.9,9.3c-0.1,0.9,0.6,1.7,1.5,1.8
		c0.9,0.1,1.7-0.6,1.8-1.5l0.9-9.5c0,0,0-1.6,0.9-2.6c0.5-0.5,1.3-0.8,2.3-0.8h17.5c3.1,0,3.4,2.6,3.4,3.5l0.9,9.3
		c0.1,0.8,0.8,1.5,1.6,1.5c0.1,0,0.1,0,0.2,0c0.9-0.1,1.5-0.9,1.5-1.8l-0.9-9.1C48.4,34.7,46.7,30.7,41.8,30.7z"/>
	<path class="st0" d="M24.6,39.2c-0.9-0.1-1.7,0.5-1.9,1.4l-0.9,5.8c-0.1,0.9,0.5,1.7,1.4,1.9c0.1,0,0.2,0,0.3,0
		c0.8,0,1.5-0.6,1.6-1.4l0.9-5.8C26.1,40.2,25.5,39.4,24.6,39.2z"/>
	<path class="st0" d="M43.4,40.6c-0.1-0.9-1-1.5-1.9-1.4c-0.9,0.1-1.5,1-1.4,1.9l0.9,5.8c0.1,0.8,0.8,1.4,1.6,1.4c0.1,0,0.2,0,0.3,0
		c0.9-0.1,1.5-1,1.4-1.9L43.4,40.6z"/>
	<path class="st0" d="M97.4,81.8L77.7,62.1C74.6,59.1,70,58,66.1,59l-6.3-6.3c4.2-5.6,6.4-12.4,6.4-19.6c0-8.8-3.4-17.2-9.7-23.4
		C50.2,3.4,41.9,0,33.1,0S15.9,3.4,9.7,9.7c-12.9,12.9-12.9,33.9,0,46.8c6.3,6.3,14.6,9.7,23.4,9.7c7.1,0,13.9-2.2,19.6-6.4l6.3,6.3
		c-1.1,3.9,0,8.4,3.2,11.6l19.7,19.7c2.3,2.3,5.4,3.6,8.6,3.6c2.9,0,5.6-1.1,7.5-3C102.2,93.7,102,86.4,97.4,81.8z M12,54.2
		C0.3,42.6,0.3,23.6,12,12c5.6-5.6,13.1-8.7,21.1-8.7c8,0,15.5,3.1,21.1,8.7c5.6,5.6,8.7,13.1,8.7,21.1c0,8-3.1,15.5-8.7,21.1
		c-5.6,5.6-13.1,8.7-21.1,8.7C25.1,62.9,17.6,59.8,12,54.2z M55.2,57.7c0.4-0.4,0.9-0.8,1.3-1.2c0.4-0.4,0.8-0.9,1.2-1.3l5.2,5.2
		c-0.5,0.3-1,0.7-1.4,1.1c-0.4,0.4-0.8,0.9-1.1,1.4L55.2,57.7z M95.6,95.7c-2.9,2.9-8.3,2.6-11.5-0.6L64.4,75.4
		c-3.3-3.3-3.6-8.5-0.6-11.5c1.4-1.4,3.2-2.1,5.2-2.1c2.3,0,4.6,1,6.3,2.7l19.7,19.7C98.4,87.5,98.7,92.6,95.6,95.7z"/>
</g>
</svg>
