<?xml version="1.0" encoding="utf-8"?>
<!-- Generator: Adobe Illustrator 21.0.2, SVG Export Plug-In . SVG Version: 6.00 Build 0)  -->
<svg version="1.1" id="Layer_1" xmlns="http://www.w3.org/2000/svg" xmlns:xlink="http://www.w3.org/1999/xlink" x="0px" y="0px"
	 viewBox="0 0 129.3 152.8" style="enable-background:new 0 0 129.3 152.8;" xml:space="preserve">
<style type="text/css">
	.st0{fill:#056DB6;}
</style>
<g>
	<path class="st0" d="M62.8,122.9c0.3,1.1,0.6,2.4,0.7,4c0.1,0.9,0.1,2,0.1,3.2l-0.1,22.7h16.8c2.1-9.6,5.3-16.5,10.4-22.8
		c2.9-3.5,8.9-3.5,14.7-3.5c2.8,0,5.5,0,7.6-0.4c2.9-0.5,5-1.7,6.1-3.5c2.1-3.3,0.7-8.2-0.1-11.1c-0.4-1.3-0.6-2.2-0.5-2.8
		c0.1-1.4,1.1-2.3,1.8-3c1.2-1.1,1.7-1.7-0.4-4c-0.7-0.1-2.4-0.1-3-0.1c-1,0-1.7,0-2-0.9l-0.2-0.7l0.8-1.1l0.8-0.1
		c1.7-0.2,3.7-0.7,4.1-0.9c3-2.2,2.5-3,1.1-5.1c-1.1-1.7-2.6-4-1.6-7.4c0.4-1.4,2.1-2.4,4.2-3.6c1.9-1.1,4.1-2.3,5-3.8l-17.3-0.1
		c-0.1,0-0.1,0-0.2,0c-6.3,0-7.6,1.2-7.8,1.6c-0.1,0.1-0.2,0.3,0.1,1c0.5,1.1,1.1,1.9,1.6,2.6l0.7,0.8c1.7,2,3.4,4.2,2.6,9
		c-1,6.5-6.7,9.4-11.9,9.4c0,0,0,0,0,0c-5.2,0-10.9-2.9-11.9-9.5c-0.7-4.8,1-6.9,2.7-9c0.8-1,1.6-2,2.3-3.4c0.1-0.2,0.1-0.4,0.2-0.5
		c0-0.2,0-0.4-0.2-0.6c-0.4-0.5-2-1.5-7.9-1.5l-18.2-0.1l-0.1,22.7c0,5.7-0.9,9-2.8,10.2c-0.7,0.4-1.9,0.8-3.5,0.1
		c-1.7-0.8-2.9-1.8-4-2.7c-1.9-1.6-3.2-2.7-6.9-2.1c-3.2,0.5-5.7,2.7-6.7,5.9c-1.2,3.7-0.2,8.1,2.3,10.5c1.2,1.1,2.6,1.8,4.4,2.1
		c0.7,0.1,1.3,0.1,2,0.2c2.3,0,3.4-0.9,5-2.2c1.1-0.9,2.3-1.9,4-2.6c1.9-0.9,3.7-0.3,4.8,1.6C62.1,121.4,62.6,122.3,62.8,122.9z"/>
	<g>
		<path class="st0" d="M60,1.5l1.3,0l2.6,0.1c16,0.8,30.9,7.7,39.8,18.3c6.9,8.1,9.7,17.9,8.3,28.3c-0.8,5.7,4.5,12.3,9.6,18.7
			c1.9,2.4,3.7,4.7,5.1,6.8l-15,0c-0.2,0-0.5,0-0.7,0c-5.9,0-9.2,1.1-10.8,3.5c-0.9,1.4-1,3.2-0.2,4.9c0.7,1.5,1.5,2.6,2.1,3.5
			l0.7,0.9c1.5,1.8,2.2,2.7,1.8,5.7c-0.6,4.1-4.4,5.9-7.8,5.9c-3.4,0-7.2-1.9-7.8-6c-0.5-3,0.3-3.9,1.8-5.7c0.9-1.1,2-2.4,2.9-4.3
			c0.3-0.5,0.4-1.1,0.5-1.7c0.2-1.4-0.2-2.7-1.2-3.8c-1.7-2-5.2-2.9-11-2.9l-20.9-0.1l-1.5,0v1.5v2.6l-0.1,22.7c0,4-0.5,5.7-0.8,6.4
			c-1.1-0.5-1.9-1.2-2.7-1.9l0,0c-1.7-1.4-3.9-3.2-7.8-3.2c-0.8,0-1.6,0.1-2.4,0.2c-4.9,0.7-8.5,3.9-10,8.8
			c-1.7,5.3-0.3,11.2,3.4,14.7c1.8,1.7,4,2.8,6.6,3.2c0.8,0.1,1.5,0.2,2.2,0.2c0.2,0,0.3,0,0.5,0c3.7-0.1,5.7-1.7,7.5-3.2
			c0.9-0.7,1.7-1.4,2.7-1.9l0.2,0.5c0.2,0.7,0.4,1.8,0.5,3.1c0.1,0.9,0.1,1.9,0.1,2.8l-0.1,21.2h-33c11.6-26,1.5-38.3-8.3-50.1
			C12.5,94.3,6.7,87.3,3.7,77.1L3,74.6c-0.4-1.5-0.6-2.8-0.8-4.1C1,61.7-1.4,32,22,14.5l0,0l0.1-0.1C33.2,6.1,46.3,1.6,60,1.5 M60,0
			C46,0.1,32.6,4.7,21.3,13.2l0,0C-2.9,31.2-0.6,61.7,0.7,70.6c0.2,1.4,0.5,2.8,0.8,4.3l0.7,2.6c3.1,10.4,9,17.7,14.7,24.6
			c10.2,12.4,19.7,24.3,7.1,50.7h36.8l0.1-22.7c0-1.1,0-2.1-0.1-3c-0.1-1.4-0.3-2.6-0.6-3.5l-0.4-1c-0.3-0.5-0.5-0.7-0.8-0.7
			c-0.2,0-0.4,0.1-0.6,0.2c-1.4,0.6-2.4,1.5-3.4,2.3c-1.7,1.4-3.4,2.8-6.6,2.8c-0.1,0-0.3,0-0.4,0c-0.6,0-1.3-0.1-2-0.2
			c-2.2-0.4-4.2-1.3-5.8-2.8c-3.3-3.1-4.5-8.4-3-13.2c1.4-4.3,4.6-7.1,8.8-7.8c0.8-0.1,1.5-0.2,2.2-0.2c3.4,0,5.1,1.5,6.8,2.9
			c1,0.8,2,1.6,3.4,2.3c0.3,0.1,0.5,0.2,0.6,0.2c0.2,0,0.3-0.1,0.3-0.1c0.4-0.2,1.6-1.5,1.6-8l0.1-22.7v-2.6L82,75.1
			c5.2,0,8.5,0.8,9.9,2.4c0.7,0.7,0.9,1.7,0.8,2.6c-0.1,0.4-0.2,0.9-0.4,1.3c-0.8,1.7-1.8,2.9-2.6,4c-1.5,1.9-2.7,3.2-2.1,6.9
			c0.8,5,5.2,7.2,9.3,7.2c0,0,0,0,0,0c4,0,8.5-2.2,9.3-7.2c0.6-3.7-0.5-5-2.1-6.9l-0.7-0.9c-0.6-0.7-1.3-1.8-1.9-3.1
			c-0.7-1.6-0.3-2.8,0.1-3.5c1.2-1.8,4.1-2.8,9.5-2.8c0.2,0,0.4,0,0.7,0l17.6,0.1c-0.1-0.2-0.2-0.4-0.3-0.7
			c-1.5-2.6-3.8-5.5-6.2-8.6c-4.9-6.2-9.9-12.6-9.2-17.6c1.5-10.8-1.5-21-8.7-29.5C95.6,8,80.4,1,64,0.1L61.4,0L60,0L60,0z"/>
	</g>
</g>
</svg>
