<?xml version="1.0" encoding="utf-8"?>
<!-- Generator: Adobe Illustrator 21.0.2, SVG Export Plug-In . SVG Version: 6.00 Build 0)  -->
<svg version="1.1" id="Layer_1" xmlns="http://www.w3.org/2000/svg" xmlns:xlink="http://www.w3.org/1999/xlink" x="0px" y="0px"
	 viewBox="0 0 104.8 103.4" style="enable-background:new 0 0 104.8 103.4;" xml:space="preserve">
<style type="text/css">
	.st0{fill:#D4555A;}
</style>
<path class="st0" d="M86.8,67.3c-5.2,0-9.9,2.2-13.2,5.8L35.9,54.7c0.2-0.9,0.2-1.9,0.2-2.9s-0.1-2-0.2-2.9l37.7-18.5
	c3.3,3.5,8,5.7,13.2,5.7c10,0,18.1-8.1,18.1-18.1S96.7,0,86.8,0c-10,0-18.1,8.1-18.1,18.1c0,1,0.1,2,0.2,2.9L31.2,39.5
	c-3.3-3.5-8-5.7-13.2-5.7c-9.9,0-18,8.1-18,18s8.1,18.1,18.1,18.1c5.2,0,9.9-2.2,13.2-5.8L69,82.5c-0.2,0.9-0.2,1.9-0.2,2.9
	c0,10,8.1,18.1,18.1,18.1S105,95.4,105,85.4C104.8,75.4,96.7,67.3,86.8,67.3z"/>
</svg>
