<?xml version="1.0" encoding="utf-8"?>
<!-- Generator: Adobe Illustrator 21.0.2, SVG Export Plug-In . SVG Version: 6.00 Build 0)  -->
<svg version="1.1" id="Layer_1" xmlns="http://www.w3.org/2000/svg" xmlns:xlink="http://www.w3.org/1999/xlink" x="0px" y="0px"
	 viewBox="0 0 129.3 152.8" style="enable-background:new 0 0 129.3 152.8;" xml:space="preserve">
<style type="text/css">
	.st0{fill-rule:evenodd;clip-rule:evenodd;fill:#28B573;}
	.st1{fill:none;stroke:#28B573;stroke-miterlimit:10;}
	.st2{fill:#28B573;}
</style>
<g>
	<path class="st0" d="M111.8,75.2l17.6,0.1c-0.1-0.2-0.2-0.4-0.3-0.7c-1.5-2.6-3.8-5.5-6.2-8.6c-4.9-6.2-9.9-12.6-9.2-17.6
		c1.5-10.8-1.5-21-8.7-29.5C95.6,8,80.4,1,64,0.1l-0.1,22.6c0,2.4,0.2,4.4,0.6,5.9c0.2,0.7,0.7,2.4,1.5,2.2c0.2,0,0.3-0.1,0.5-0.2
		c1.4-0.6,2.4-1.5,3.4-2.3c2-1.7,4.2-3.4,9-2.6c1.5,0.2,2.9,0.8,4.1,1.5c4.1,2.6,6.1,7.9,5,13.2c-1,4.9-4.5,8.3-9.2,9
		c-4.8,0.7-6.9-1-9-2.7c-1-0.8-2-1.6-3.4-2.3c-0.6-0.3-0.9-0.1-1-0.1c-0.3,0.2-1.3,1.1-1.6,5.3c-0.1,0.8-0.1,1.7-0.1,2.7l-0.1,22.7
		L82,75.1c5.2,0,8.5,0.8,9.9,2.4c0.7,0.7,0.9,1.7,0.8,2.6c-0.1,0.4-0.2,0.9-0.4,1.3c-0.8,1.7-1.8,2.9-2.6,4
		c-1.5,1.9-2.7,3.2-2.1,6.9c0.8,5,5.2,7.2,9.3,7.2c0,0,0,0,0,0c4,0,8.5-2.2,9.3-7.2c0.6-3.7-0.5-5-2.1-6.9l-0.7-0.9
		c-0.6-0.7-1.3-1.8-1.9-3.1c-0.7-1.6-0.3-2.8,0.1-3.5C102.8,76.1,105.9,75.2,111.8,75.2z"/>
	<path class="st1" d="M61.1,77.7"/>
	<g>
		<path class="st2" d="M59.9,1.5l-0.1,21.2c0,2.8,0.2,5,0.7,6.9c1.2,4.7,3.9,5.4,5.4,5.4c0.2,0,0.4,0,0.6,0c0.6-0.1,1.1-0.2,1.7-0.5
			c1.9-0.9,3.3-2,4.3-2.8c1.4-1.2,2.3-1.9,4.2-1.9c0.5,0,1,0,1.6,0.1c1,0.2,1.8,0.5,2.6,0.9c2.6,1.6,3.9,5.3,3.1,8.8
			c-0.7,3.2-2.8,5.4-5.8,5.8c-0.6,0.1-1.1,0.1-1.5,0.1c-1.9,0-2.8-0.7-4.2-1.9c-1.1-0.9-2.4-2-4.3-2.9c-0.8-0.4-1.6-0.5-2.3-0.5
			c-0.9,0-1.7,0.2-2.4,0.7c-2.1,1.2-3.2,4-3.6,8.5c-0.1,0.9-0.1,1.8-0.1,3l-0.1,22.7l0,2.6l0,1.5l1.5,0L82,79.3c4,0,5.7,0.5,6.4,0.8
			c-0.5,1.1-1.2,1.9-1.9,2.8c-1.7,2.1-3.8,4.7-3,10.2c0.8,5.3,5.3,10.7,13.4,10.7c5.8,0,12.2-3.3,13.3-10.7
			c0.9-5.5-1.2-8.1-2.9-10.2l-0.6-0.8c-0.4-0.5-0.9-1.2-1.3-2c0.7-0.3,2.4-0.8,6.3-0.8h0.1l13.3,0c-0.6,0.4-1.2,0.7-1.8,1
			c-2.3,1.3-4.3,2.5-4.9,4.5c-1.2,4.1,0.7,7,1.8,8.7c0.3,0.5,0.8,1.3,0.8,1.5c0,0-0.1,0.4-1.5,1.5c-0.4,0.2-1.9,0.5-3.5,0.7
			l-0.8,0.1l-0.6,0.1l-0.4,0.5l-0.8,1.1l-0.5,0.6l0.3,0.7l0.2,0.7c0.7,1.9,2.4,1.9,3.4,1.9l0.1,0c1,0,1.7,0,2.2,0.1
			c0.4,0.5,0.6,0.8,0.7,0.9c-0.1,0.1-0.4,0.4-0.6,0.6c-0.8,0.8-2,2-2.2,3.9c-0.1,0.9,0.2,1.9,0.6,3.4c0.7,2.7,2,7.2,0.2,10
			c-0.9,1.4-2.6,2.4-5.1,2.8c-2,0.4-4.6,0.4-7.3,0.4c-6.2,0-12.5,0-15.9,4.1c-5.1,6.3-8.2,13-10.4,22.3H63.5h-2.6H26.4
			c11.6-26,1.5-38.3-8.3-50.1C12.5,94.3,6.7,87.3,3.7,77.1L3,74.6c-0.4-1.5-0.6-2.8-0.8-4.1C1,61.7-1.4,32,22,14.5l0,0l0.1-0.1
			C33.2,6.1,46.2,1.6,59.9,1.5 M60,0C46,0.1,32.6,4.7,21.3,13.2l0,0C-2.9,31.2-0.6,61.7,0.7,70.6c0.2,1.4,0.5,2.8,0.8,4.3l0.7,2.6
			c3.1,10.4,9,17.7,14.7,24.6c10.2,12.4,19.7,24.3,7.1,50.7h36.8h2.6h16.8c2.1-9.6,5.3-16.5,10.4-22.8c2.9-3.5,8.9-3.5,14.7-3.5
			c2.8,0,5.5,0,7.6-0.4c2.9-0.5,5-1.7,6.1-3.5c2.1-3.3,0.7-8.2-0.1-11.1c-0.4-1.3-0.6-2.2-0.5-2.8c0.1-1.4,1.1-2.3,1.8-3
			c1.2-1.1,1.7-1.7-0.4-4c-0.7-0.1-2.4-0.1-3-0.1c-1,0-1.7,0-2-0.9l-0.2-0.7l0.8-1.1l0.8-0.1c1.7-0.2,3.7-0.7,4.1-0.9
			c3-2.2,2.5-3,1.1-5.1c-1.1-1.7-2.6-4-1.6-7.4c0.4-1.4,2.1-2.4,4.2-3.6c1.9-1.1,4.1-2.3,5-3.8l-17.3-0.1c-0.1,0-0.1,0-0.2,0
			c-6.3,0-7.6,1.2-7.8,1.6c-0.1,0.1-0.2,0.3,0.1,1c0.5,1.1,1.1,1.9,1.6,2.6l0.7,0.8c1.7,2,3.4,4.2,2.6,9c-1,6.5-6.7,9.4-11.9,9.4
			c0,0,0,0,0,0c-5.2,0-10.9-2.9-11.9-9.5c-0.7-4.8,1-6.9,2.7-9c0.8-1,1.6-2,2.3-3.4c0.1-0.2,0.1-0.4,0.2-0.5c0-0.2,0-0.4-0.2-0.6
			c-0.4-0.5-2-1.5-7.9-1.5l-20.9-0.1l0-2.6l0.1-22.7c0-1.1,0-2,0.1-2.9c0.3-4,1.2-6.4,2.8-7.3c0.4-0.2,1-0.5,1.7-0.5
			c0.5,0,1.1,0.1,1.7,0.4c1.7,0.8,2.9,1.8,4,2.7c1.5,1.3,2.7,2.3,5.2,2.3c0.5,0,1.1,0,1.8-0.1c3.6-0.5,6.2-3.2,7-7
			c0.9-4.2-0.7-8.5-3.8-10.4c-0.9-0.6-2-1-3.1-1.2c-0.7-0.1-1.3-0.2-1.8-0.2c-2.4,0-3.6,1-5.1,2.2c-1.1,0.9-2.3,1.9-4,2.6
			c-0.4,0.2-0.9,0.3-1.3,0.4c-0.1,0-0.3,0-0.4,0c-1.2,0-3-0.7-3.9-4.2c-0.4-1.7-0.6-3.8-0.6-6.5L61.4,0L60,0L60,0z"/>
	</g>
</g>
</svg>
