<?xml version="1.0" encoding="utf-8"?>
<!-- Generator: Adobe Illustrator 21.0.2, SVG Export Plug-In . SVG Version: 6.00 Build 0)  -->
<svg version="1.1" id="Symbol" xmlns="http://www.w3.org/2000/svg" xmlns:xlink="http://www.w3.org/1999/xlink" x="0px" y="0px"
	 viewBox="0 0 33.2 46" style="enable-background:new 0 0 33.2 46;" xml:space="preserve">
<style type="text/css">
	.st0{fill:#00AAC5;}
</style>
<path class="st0" d="M16.7,2c3.1,0,5.6,0.4,7.1,3.7c1.5,3.4,1.3,3,3.1,7.1c1.8,4.1-1.9,9-3.3,11C23.5,24.1,8,44,8,44s-5.1-7.1-6-8.3
	c8.5-11.9,17-20.4,18.9-27.4c-1.7-0.8-3.1-1.2-4.6-1.2c-1.4,0-2.8,0.4-4.4,1.2c0.5,1.3,1.2,3.2,2.3,5l1.2-1.9c-0.3-0.6-0.7-1.3-1-2
	c0.7-0.2,1.3-0.3,1.9-0.3c0.7,0,1.3,0.1,2.1,0.4c-1.8,5.9-13.7,18.7-18,25.1c-0.5,0.7-0.5,1.7,0,2.4l6,8.3c0.4,0.5,1,0.8,1.6,0.8
	c0.7,0,1.2-0.3,1.6-0.8c2.8-3.6,12.9-16.5,15.9-20.6c1.4-1.9,5.5-7.7,3.1-12.6c-0.9-2-2.3-5.4-3.1-7.1c-2-4.5-5.7-4.9-8.9-4.9
	c-3.2,0-6.9,0-9,4.5C6.9,6.3,5.3,10.1,4.5,12c-1.9,4.3,0.3,8.7,2,11.2l1.3-1.6c-1.4-2.3-2.9-5.6-1.5-8.8C8.1,8.7,8,8.7,9.5,5.3
	C11,2,13.6,2,16.7,2L16.7,2z M25.5,27.8l5.8,7.8L25.1,44c0,0-2.7-3.6-6-7.8l-1.2,1.7c3.1,4,5.7,7.3,5.7,7.4c0.4,0.5,1,0.8,1.6,0.8
	c0.7,0,1.2-0.3,1.6-0.8l6.1-8.4c0.5-0.7,0.5-1.7,0-2.4l-6.1-8.2L25.5,27.8z"/>
</svg>
