<?xml version="1.0" encoding="utf-8"?>
<!-- Generator: Adobe Illustrator 21.0.2, SVG Export Plug-In . SVG Version: 6.00 Build 0)  -->
<svg version="1.1" id="Capa_1" xmlns="http://www.w3.org/2000/svg" xmlns:xlink="http://www.w3.org/1999/xlink" x="0px" y="0px"
	 viewBox="0 0 57.9 26" style="enable-background:new 0 0 57.9 26;" xml:space="preserve">
<style type="text/css">
	.st0{fill:#FFFFFF;}
</style>
<g>
	<path class="st0" d="M29,6c-3.9,0-7,3.1-7,7c0,0.6,0.4,1,1,1s1-0.4,1-1c0-2.8,2.2-5,5-5c0.6,0,1-0.4,1-1S29.6,6,29,6z"/>
	<path class="st0" d="M57.7,11.9C50,4.2,39.9,0,29.1,0c0,0,0,0-0.1,0c0,0,0,0,0,0c0,0-0.1,0-0.1,0C18.2,0,8.1,4.3,0.5,11.9l-0.2,0.2
		c-0.4,0.4-0.4,1,0,1.4c0.2,0.2,0.4,0.3,0.7,0.3c0.3,0,0.5-0.1,0.7-0.3l0.2-0.2C7.2,8,13.7,4.5,20.8,2.9C17.9,5.3,16,8.9,16,13
		c0,7.2,5.8,13,13,13s13-5.8,13-13c0-4.1-1.9-7.8-4.9-10.2c7.2,1.5,13.8,5.1,19.1,10.5c0.4,0.4,1,0.4,1.4,0
		C58,12.9,58,12.3,57.7,11.9z M40,13c0,6.1-4.9,11-11,11s-11-4.9-11-11c0-6,4.9-11,10.9-11C29,2,29,2,29,2C35.1,2,40,6.9,40,13z"/>
</g>
</svg>
