<?xml version="1.0" encoding="utf-8"?>
<!-- Generator: Adobe Illustrator 21.0.2, SVG Export Plug-In . SVG Version: 6.00 Build 0)  -->
<svg version="1.1" id="Layer_1" xmlns="http://www.w3.org/2000/svg" xmlns:xlink="http://www.w3.org/1999/xlink" x="0px" y="0px"
	 viewBox="0 0 10.9 13" style="enable-background:new 0 0 10.9 13;" xml:space="preserve">
<style type="text/css">
	.st0{fill:#FFFFFF;}
</style>
<g>
	<path class="st0" d="M6.2,1.6C6.1,1.3,5.8,1.2,5.5,1.2S4.9,1.3,4.7,1.6C4.5,1.8,4.5,2.1,4.5,2.5v1.3c0,0.4,0.1,0.7,0.2,0.9
		C4.9,4.9,5.1,5,5.5,5s0.6-0.1,0.8-0.4c0.1-0.2,0.2-0.5,0.2-0.9V2.5C6.4,2.1,6.4,1.8,6.2,1.6z M5.8,3.9c0,0.3-0.1,0.5-0.3,0.5
		c-0.2,0-0.3-0.2-0.3-0.5V2.3c0-0.3,0.1-0.5,0.3-0.5c0.2,0,0.3,0.2,0.3,0.5V3.9z"/>
	<path class="st0" d="M7,1.3h0.7V4c0,0.2,0,0.2,0,0.3c0,0.1,0.1,0.2,0.2,0.2c0.1,0,0.3-0.1,0.4-0.3V1.3h0.7V5H8.2V4.5
		C8,4.9,7.7,5,7.5,5C7.2,5,7.1,4.9,7,4.7C7,4.6,7,4.4,7,4.2V1.3z"/>
	<path class="st0" d="M2.8,0l0.5,1.9L3.9,0h0.8L3.7,2.9v2H3v-2C2.9,2.6,2.8,2.1,2.5,1.4C2.4,0.9,2.2,0.5,2,0H2.8z"/>
	<g>
		<path class="st0" d="M6.6,8.4c-0.1,0-0.2,0.1-0.3,0.2v2.2c0.1,0.1,0.2,0.2,0.3,0.2c0.2,0,0.3-0.2,0.3-0.5V8.9
			C6.9,8.6,6.8,8.4,6.6,8.4z"/>
		<path class="st0" d="M9,8.4c-0.2,0-0.3,0.2-0.3,0.5v0.3h0.7V8.9C9.3,8.6,9.2,8.4,9,8.4z"/>
		<path class="st0" d="M10.8,7c0,0-0.1-0.7-0.4-1.1C10,5.5,9.5,5.5,9.3,5.4C7.8,5.3,5.5,5.3,5.5,5.3h0c0,0-2.3,0-3.8,0.1
			c-0.2,0-0.7,0-1.1,0.5C0.2,6.2,0.1,7,0.1,7S0,7.8,0,8.7v0.8c0,0.9,0.1,1.8,0.1,1.8s0.1,0.7,0.4,1.1c0.4,0.4,1,0.4,1.2,0.5
			C2.6,12.9,5.5,13,5.5,13s2.3,0,3.8-0.1c0.2,0,0.7,0,1.1-0.5c0.3-0.3,0.4-1.1,0.4-1.1s0.1-0.9,0.1-1.8V8.7C10.9,7.8,10.8,7,10.8,7z
			 M2.4,11.5H1.7V7.3H0.9V6.6h2.3v0.7H2.4V11.5z M5,11.5H4.4v-0.4c-0.3,0.3-0.5,0.4-0.8,0.4c-0.2,0-0.4-0.1-0.4-0.3
			c0-0.1-0.1-0.3-0.1-0.5V7.8h0.7v2.7c0,0.2,0,0.2,0,0.3c0,0.1,0.1,0.2,0.2,0.2c0.1,0,0.3-0.1,0.4-0.3V7.8H5V11.5z M7.5,10.4
			c0,0.3,0,0.6-0.1,0.7c-0.1,0.3-0.3,0.4-0.5,0.4c-0.2,0-0.5-0.1-0.7-0.4v0.4H5.6V6.6h0.7v1.6c0.2-0.3,0.4-0.4,0.7-0.4
			c0.3,0,0.4,0.1,0.5,0.4c0,0.1,0.1,0.4,0.1,0.7V10.4z M10,9.8H8.7v0.6c0,0.3,0.1,0.5,0.3,0.5c0.2,0,0.3-0.1,0.3-0.3
			c0,0,0-0.2,0-0.4H10v0.1c0,0.2,0,0.4,0,0.4c0,0.1-0.1,0.3-0.2,0.4c-0.2,0.3-0.5,0.4-0.8,0.4c-0.3,0-0.6-0.1-0.8-0.4
			C8.1,11,8,10.7,8,10.3V9c0-0.4,0.1-0.7,0.2-0.9C8.4,7.9,8.7,7.8,9,7.8c0.3,0,0.6,0.1,0.8,0.4C9.9,8.4,10,8.6,10,9V9.8z"/>
	</g>
</g>
</svg>
