<?xml version="1.0" encoding="utf-8"?>
<!-- Generator: Adobe Illustrator 21.0.2, SVG Export Plug-In . SVG Version: 6.00 Build 0)  -->
<svg version="1.1" id="_x2014_ÎÓÈ_x5F_1" xmlns="http://www.w3.org/2000/svg" xmlns:xlink="http://www.w3.org/1999/xlink"
	 x="0px" y="0px" viewBox="0 0 300 220.7" style="enable-background:new 0 0 300 220.7;" xml:space="preserve">
<style type="text/css">
	.st0{fill:#D4555A;}
</style>
<path class="st0" d="M295,26.9c-1.1-8.7-9.4-16.9-18.3-18.2C191.1-2.9,108.9-2.9,23.3,8.7C14.4,10,6,18.2,5,26.9
	c-6.6,55.5-6.6,111.5,0,166.9c1.1,8.7,9.4,16.9,18.3,18.2c85.6,11.6,167.8,11.6,253.4,0c9-1.3,17.3-9.5,18.3-18.2
	C301.7,138.4,301.7,82.3,295,26.9z M202,118.4l-80.4,47.4c-6.2,3.7-14.1-0.8-14.1-8V63c0-7.2,7.8-11.7,14.1-8l80.4,47.4
	C208.1,105.9,208.1,114.8,202,118.4z"/>
</svg>
